G75*
%MOIN*%
%OFA0B0*%
%FSLAX25Y25*%
%IPPOS*%
%LPD*%
%AMOC8*
5,1,8,0,0,1.08239X$1,22.5*
%
%ADD10C,0.00400*%
%ADD11R,0.01480X0.00740*%
%ADD12R,0.02220X0.00740*%
%ADD13R,0.01480X0.00740*%
%ADD14R,0.02960X0.00740*%
%ADD15R,0.00740X0.00740*%
%ADD16R,0.03700X0.00740*%
%ADD17R,0.04441X0.00740*%
%ADD18R,0.03700X0.00740*%
%ADD19R,0.04440X0.00740*%
%ADD20R,0.00740X0.00740*%
%ADD21R,0.02960X0.00740*%
%ADD22R,0.08881X0.00740*%
%ADD23R,0.05180X0.00740*%
%ADD24R,0.11841X0.00740*%
%ADD25R,0.05920X0.00740*%
%ADD26R,0.05180X0.00740*%
%ADD27R,0.05920X0.00740*%
%ADD28R,0.14801X0.00740*%
%ADD29R,0.16281X0.00740*%
%ADD30R,0.06660X0.00740*%
%ADD31R,0.17761X0.00740*%
%ADD32R,0.19241X0.00740*%
%ADD33R,0.19981X0.00740*%
%ADD34R,0.07400X0.00740*%
%ADD35R,0.06661X0.00740*%
%ADD36R,0.08141X0.00740*%
%ADD37R,0.08140X0.00740*%
%ADD38R,0.09620X0.00740*%
%ADD39R,0.08880X0.00740*%
%ADD40R,0.20721X0.00740*%
%ADD41R,0.18501X0.00740*%
%ADD42R,0.13321X0.00740*%
%ADD43R,0.17021X0.00740*%
%ADD44R,0.15541X0.00740*%
%ADD45R,0.10361X0.00740*%
D10*
X0010414Y0156157D02*
X0009547Y0157024D01*
X0010414Y0157892D01*
X0009547Y0158759D01*
X0010414Y0159626D01*
X0013017Y0159626D01*
X0013017Y0161313D02*
X0010414Y0161313D01*
X0009547Y0162181D01*
X0010414Y0163048D01*
X0009547Y0163915D01*
X0010414Y0164783D01*
X0013017Y0164783D01*
X0013017Y0166470D02*
X0010414Y0166470D01*
X0009547Y0167337D01*
X0010414Y0168204D01*
X0009547Y0169072D01*
X0010414Y0169939D01*
X0013017Y0169939D01*
X0010414Y0171626D02*
X0010414Y0172493D01*
X0009547Y0172493D01*
X0009547Y0171626D01*
X0010414Y0171626D01*
X0009547Y0174204D02*
X0009547Y0175939D01*
X0009547Y0175072D02*
X0013017Y0175072D01*
X0013017Y0174204D01*
X0014751Y0175072D02*
X0015619Y0175072D01*
X0013017Y0177642D02*
X0009547Y0177642D01*
X0009547Y0181111D02*
X0012149Y0181111D01*
X0013017Y0180244D01*
X0013017Y0177642D01*
X0013017Y0182798D02*
X0009547Y0182798D01*
X0013017Y0182798D02*
X0013017Y0185400D01*
X0012149Y0186268D01*
X0009547Y0186268D01*
X0010414Y0187955D02*
X0009547Y0188822D01*
X0009547Y0190557D01*
X0010414Y0191424D01*
X0012149Y0191424D01*
X0013017Y0190557D01*
X0013017Y0188822D01*
X0012149Y0187955D01*
X0010414Y0187955D01*
X0013017Y0193111D02*
X0013017Y0194846D01*
X0013884Y0193978D02*
X0010414Y0193978D01*
X0009547Y0194846D01*
X0010414Y0196549D02*
X0012149Y0196549D01*
X0013017Y0197416D01*
X0013017Y0199151D01*
X0012149Y0200018D01*
X0011282Y0200018D01*
X0011282Y0196549D01*
X0010414Y0196549D02*
X0009547Y0197416D01*
X0009547Y0199151D01*
X0009547Y0201705D02*
X0014751Y0201705D01*
X0013017Y0204307D02*
X0011282Y0201705D01*
X0009547Y0204307D01*
X0009547Y0206002D02*
X0013017Y0206002D01*
X0013017Y0208604D01*
X0012149Y0209472D01*
X0009547Y0209472D01*
X0010414Y0211158D02*
X0009547Y0212026D01*
X0009547Y0213761D01*
X0010414Y0214628D01*
X0012149Y0214628D01*
X0013017Y0213761D01*
X0013017Y0212026D01*
X0012149Y0211158D01*
X0010414Y0211158D01*
X0009547Y0216315D02*
X0009547Y0218050D01*
X0009547Y0217182D02*
X0014751Y0217182D01*
X0014751Y0216315D01*
X0012149Y0219752D02*
X0010414Y0219752D01*
X0009547Y0220620D01*
X0009547Y0222355D01*
X0010414Y0223222D01*
X0012149Y0223222D01*
X0013017Y0222355D01*
X0013017Y0220620D01*
X0012149Y0219752D01*
X0007812Y0224909D02*
X0007812Y0225776D01*
X0008680Y0226644D01*
X0013017Y0226644D01*
X0013017Y0228346D02*
X0013017Y0229214D01*
X0009547Y0229214D01*
X0009547Y0230081D02*
X0009547Y0228346D01*
X0009547Y0231784D02*
X0009547Y0232651D01*
X0010414Y0232651D01*
X0010414Y0231784D01*
X0009547Y0231784D01*
X0010414Y0234362D02*
X0009547Y0235230D01*
X0009547Y0237832D01*
X0010414Y0239519D02*
X0009547Y0240386D01*
X0009547Y0242121D01*
X0010414Y0242988D01*
X0012149Y0242988D01*
X0013017Y0242121D01*
X0013017Y0240386D01*
X0012149Y0239519D01*
X0010414Y0239519D01*
X0013017Y0237832D02*
X0013017Y0235230D01*
X0012149Y0234362D01*
X0010414Y0234362D01*
X0014751Y0229214D02*
X0015619Y0229214D01*
X0015619Y0226644D02*
X0014751Y0226644D01*
X0013017Y0244675D02*
X0009547Y0244675D01*
X0009547Y0246410D02*
X0012149Y0246410D01*
X0013017Y0247277D01*
X0012149Y0248145D01*
X0009547Y0248145D01*
X0012149Y0246410D02*
X0013017Y0245542D01*
X0013017Y0244675D01*
X0013017Y0156157D02*
X0010414Y0156157D01*
X0609190Y0208176D02*
X0609190Y0209044D01*
X0610058Y0209911D01*
X0614395Y0209911D01*
X0614395Y0211614D02*
X0614395Y0212481D01*
X0610925Y0212481D01*
X0610925Y0211614D02*
X0610925Y0213349D01*
X0610925Y0215052D02*
X0610925Y0215919D01*
X0611792Y0215919D01*
X0611792Y0215052D01*
X0610925Y0215052D01*
X0611792Y0217630D02*
X0610925Y0218497D01*
X0610925Y0221099D01*
X0611792Y0222786D02*
X0610925Y0223654D01*
X0610925Y0225388D01*
X0611792Y0226256D01*
X0613527Y0226256D01*
X0614395Y0225388D01*
X0614395Y0223654D01*
X0613527Y0222786D01*
X0611792Y0222786D01*
X0614395Y0221099D02*
X0614395Y0218497D01*
X0613527Y0217630D01*
X0611792Y0217630D01*
X0616129Y0212481D02*
X0616997Y0212481D01*
X0616997Y0209911D02*
X0616129Y0209911D01*
X0613527Y0206490D02*
X0614395Y0205622D01*
X0614395Y0203887D01*
X0613527Y0203020D01*
X0611792Y0203020D01*
X0610925Y0203887D01*
X0610925Y0205622D01*
X0611792Y0206490D01*
X0613527Y0206490D01*
X0610925Y0201317D02*
X0610925Y0199582D01*
X0610925Y0200450D02*
X0616129Y0200450D01*
X0616129Y0199582D01*
X0614395Y0197028D02*
X0614395Y0195293D01*
X0613527Y0194426D01*
X0611792Y0194426D01*
X0610925Y0195293D01*
X0610925Y0197028D01*
X0611792Y0197896D01*
X0613527Y0197896D01*
X0614395Y0197028D01*
X0613527Y0192739D02*
X0610925Y0192739D01*
X0613527Y0192739D02*
X0614395Y0191872D01*
X0614395Y0189270D01*
X0610925Y0189270D01*
X0610925Y0187575D02*
X0612660Y0184973D01*
X0614395Y0187575D01*
X0616129Y0184973D02*
X0610925Y0184973D01*
X0612660Y0183286D02*
X0612660Y0179816D01*
X0613527Y0179816D02*
X0614395Y0180684D01*
X0614395Y0182418D01*
X0613527Y0183286D01*
X0612660Y0183286D01*
X0610925Y0182418D02*
X0610925Y0180684D01*
X0611792Y0179816D01*
X0613527Y0179816D01*
X0614395Y0178113D02*
X0614395Y0176379D01*
X0615262Y0177246D02*
X0611792Y0177246D01*
X0610925Y0178113D01*
X0611792Y0174692D02*
X0613527Y0174692D01*
X0614395Y0173824D01*
X0614395Y0172090D01*
X0613527Y0171222D01*
X0611792Y0171222D01*
X0610925Y0172090D01*
X0610925Y0173824D01*
X0611792Y0174692D01*
X0610925Y0169535D02*
X0613527Y0169535D01*
X0614395Y0168668D01*
X0614395Y0166066D01*
X0610925Y0166066D01*
X0610925Y0164379D02*
X0613527Y0164379D01*
X0614395Y0163512D01*
X0614395Y0160909D01*
X0610925Y0160909D01*
X0610925Y0159207D02*
X0610925Y0157472D01*
X0610925Y0158339D02*
X0614395Y0158339D01*
X0614395Y0157472D01*
X0616129Y0158339D02*
X0616997Y0158339D01*
X0614395Y0153207D02*
X0611792Y0153207D01*
X0610925Y0152339D01*
X0611792Y0151472D01*
X0610925Y0150605D01*
X0611792Y0149737D01*
X0614395Y0149737D01*
X0614395Y0148051D02*
X0611792Y0148051D01*
X0610925Y0147183D01*
X0611792Y0146316D01*
X0610925Y0145448D01*
X0611792Y0144581D01*
X0614395Y0144581D01*
X0614395Y0142894D02*
X0611792Y0142894D01*
X0610925Y0142027D01*
X0611792Y0141159D01*
X0610925Y0140292D01*
X0611792Y0139424D01*
X0614395Y0139424D01*
X0611792Y0154894D02*
X0611792Y0155761D01*
X0610925Y0155761D01*
X0610925Y0154894D01*
X0611792Y0154894D01*
X0610925Y0227943D02*
X0614395Y0227943D01*
X0614395Y0228810D01*
X0613527Y0229677D01*
X0614395Y0230545D01*
X0613527Y0231412D01*
X0610925Y0231412D01*
X0610925Y0229677D02*
X0613527Y0229677D01*
D11*
X0203176Y0376504D03*
X0203176Y0377984D03*
X0203176Y0378724D03*
X0203176Y0379464D03*
X0203176Y0380204D03*
X0203176Y0380944D03*
X0203176Y0381684D03*
X0203176Y0382424D03*
X0195776Y0382424D03*
X0195776Y0381684D03*
X0195776Y0380944D03*
X0195776Y0380204D03*
X0195776Y0379464D03*
X0195776Y0378724D03*
X0195776Y0377984D03*
X0195776Y0376504D03*
X0188375Y0379464D03*
X0188375Y0380204D03*
X0188375Y0380944D03*
X0195035Y0384644D03*
X0195776Y0383164D03*
X0166174Y0380944D03*
X0166174Y0380204D03*
X0166174Y0379464D03*
X0158774Y0378724D03*
X0155813Y0379464D03*
X0155813Y0380204D03*
X0155813Y0380944D03*
X0155813Y0381684D03*
X0155813Y0382424D03*
X0148413Y0382424D03*
X0148413Y0381684D03*
X0126952Y0381684D03*
X0126952Y0380944D03*
X0126952Y0380204D03*
X0126952Y0379464D03*
X0126952Y0378724D03*
X0126952Y0377244D03*
X0126952Y0376504D03*
X0123992Y0360963D03*
D12*
X0129542Y0360223D03*
X0124362Y0354303D03*
X0138422Y0372804D03*
X0156184Y0378724D03*
X0163584Y0372804D03*
X0185045Y0378724D03*
X0185045Y0381684D03*
X0188005Y0381684D03*
X0188005Y0378724D03*
X0195406Y0383904D03*
D13*
X0184675Y0380944D03*
X0184675Y0380204D03*
X0184675Y0379464D03*
X0177275Y0379464D03*
X0177275Y0378724D03*
X0177275Y0377984D03*
X0177275Y0377244D03*
X0177275Y0376504D03*
X0177275Y0380204D03*
X0177275Y0380944D03*
X0177275Y0381684D03*
X0177275Y0382424D03*
X0169874Y0381684D03*
X0169874Y0380944D03*
X0169874Y0379464D03*
X0169874Y0378724D03*
X0166914Y0378724D03*
X0166914Y0381684D03*
X0147673Y0380944D03*
X0145453Y0380944D03*
X0145453Y0381684D03*
X0145453Y0382424D03*
X0145453Y0378724D03*
X0145453Y0377984D03*
X0145453Y0377244D03*
X0145453Y0376504D03*
X0147673Y0378724D03*
X0138053Y0378724D03*
X0138053Y0379464D03*
X0138053Y0381684D03*
X0135092Y0381684D03*
X0135092Y0380944D03*
X0135092Y0379464D03*
X0135092Y0378724D03*
X0127692Y0382424D03*
X0129912Y0355043D03*
D14*
X0129172Y0354303D03*
X0129172Y0360963D03*
X0124732Y0360223D03*
X0126952Y0377984D03*
X0136572Y0377984D03*
X0136572Y0382424D03*
X0146193Y0379464D03*
X0152853Y0372804D03*
X0168394Y0382424D03*
X0178015Y0372804D03*
D15*
X0177645Y0375764D03*
X0170244Y0380204D03*
X0159144Y0380204D03*
X0159144Y0379464D03*
X0159144Y0380944D03*
X0159144Y0381684D03*
X0159144Y0382424D03*
X0148043Y0377984D03*
X0145823Y0375764D03*
X0130282Y0359483D03*
X0123622Y0353563D03*
D16*
X0125102Y0355043D03*
X0186525Y0377984D03*
X0186525Y0382424D03*
D17*
X0178015Y0372064D03*
X0136572Y0380204D03*
D18*
X0146563Y0380204D03*
X0168024Y0377984D03*
X0138422Y0349862D03*
D19*
X0128432Y0353563D03*
X0125472Y0355783D03*
X0125472Y0359483D03*
X0128432Y0361703D03*
X0127692Y0372064D03*
X0127692Y0349862D03*
X0148413Y0349122D03*
X0163214Y0349862D03*
X0173574Y0349122D03*
X0163214Y0372064D03*
X0152853Y0372064D03*
X0157294Y0377984D03*
D20*
X0195406Y0375764D03*
X0202806Y0375764D03*
D21*
X0127692Y0372804D03*
D22*
X0173574Y0349862D03*
X0195776Y0372804D03*
D23*
X0138423Y0372064D03*
X0138423Y0371324D03*
X0138423Y0351343D03*
X0138423Y0350602D03*
X0128062Y0350602D03*
D24*
X0148413Y0351343D03*
X0173574Y0351343D03*
X0195776Y0372064D03*
D25*
X0203916Y0364663D03*
X0204656Y0361703D03*
X0204656Y0360963D03*
X0204656Y0360223D03*
X0203916Y0357263D03*
X0152853Y0357263D03*
X0152853Y0358003D03*
X0152853Y0358743D03*
X0152853Y0359483D03*
X0152853Y0360223D03*
X0152853Y0360963D03*
X0152853Y0361703D03*
X0152853Y0362443D03*
X0152853Y0363183D03*
X0152853Y0363923D03*
X0152853Y0364663D03*
X0152853Y0365403D03*
X0152853Y0366143D03*
X0152853Y0366883D03*
X0152853Y0367623D03*
X0152853Y0368363D03*
X0152853Y0369103D03*
X0152853Y0369843D03*
X0152853Y0370584D03*
X0152853Y0371324D03*
X0152853Y0356523D03*
X0138053Y0352083D03*
X0127692Y0352083D03*
X0127692Y0352823D03*
X0127692Y0351343D03*
X0127692Y0362443D03*
X0127692Y0363183D03*
X0127692Y0363923D03*
X0127692Y0364663D03*
X0127692Y0365403D03*
X0127692Y0366143D03*
X0127692Y0366883D03*
X0127692Y0367623D03*
X0127692Y0368363D03*
X0127692Y0369103D03*
X0127692Y0369843D03*
X0127692Y0370584D03*
X0127692Y0371324D03*
X0138053Y0370584D03*
D26*
X0163584Y0371324D03*
X0163584Y0350602D03*
D27*
X0163214Y0351343D03*
X0163214Y0352083D03*
X0163214Y0358003D03*
X0163214Y0358743D03*
X0163214Y0359483D03*
X0163214Y0360223D03*
X0163214Y0360963D03*
X0163214Y0361703D03*
X0163214Y0362443D03*
X0163214Y0363183D03*
X0163214Y0363923D03*
X0163214Y0364663D03*
X0163214Y0365403D03*
X0163214Y0366143D03*
X0163214Y0366883D03*
X0163214Y0367623D03*
X0163214Y0368363D03*
X0163214Y0369103D03*
X0163214Y0369843D03*
X0163214Y0370584D03*
X0178015Y0370584D03*
X0178015Y0371324D03*
X0178015Y0369843D03*
X0178015Y0369103D03*
X0178015Y0368363D03*
X0178015Y0367623D03*
X0178015Y0366883D03*
X0178015Y0366143D03*
X0178015Y0365403D03*
X0178015Y0364663D03*
X0178015Y0363923D03*
X0178015Y0363183D03*
X0178015Y0362443D03*
X0178015Y0361703D03*
X0178015Y0360963D03*
X0178015Y0360223D03*
X0178015Y0359483D03*
X0178015Y0358743D03*
X0178015Y0358003D03*
X0178015Y0357263D03*
X0178015Y0356523D03*
X0187635Y0357263D03*
X0187635Y0358003D03*
X0187635Y0358743D03*
X0187635Y0363923D03*
X0187635Y0364663D03*
X0195776Y0349122D03*
X0126212Y0356523D03*
X0126212Y0358743D03*
D28*
X0195775Y0371324D03*
D29*
X0195776Y0370584D03*
D30*
X0188745Y0366883D03*
X0188005Y0366143D03*
X0188005Y0365403D03*
X0187265Y0363183D03*
X0187265Y0362443D03*
X0187265Y0361703D03*
X0187265Y0360963D03*
X0187265Y0360223D03*
X0187265Y0359483D03*
X0188005Y0356523D03*
X0188745Y0355783D03*
X0177645Y0355783D03*
X0163584Y0356523D03*
X0163584Y0357263D03*
X0138422Y0357263D03*
X0138422Y0358003D03*
X0138422Y0358743D03*
X0138422Y0359483D03*
X0138422Y0360223D03*
X0138422Y0360963D03*
X0138422Y0361703D03*
X0138422Y0362443D03*
X0138422Y0363183D03*
X0138422Y0363923D03*
X0138422Y0364663D03*
X0138422Y0365403D03*
X0138422Y0366143D03*
X0138422Y0366883D03*
X0138422Y0367623D03*
X0138422Y0368363D03*
X0138422Y0369103D03*
X0138422Y0369843D03*
X0138422Y0356523D03*
X0202806Y0355043D03*
X0203546Y0355783D03*
X0203546Y0356523D03*
X0203546Y0365403D03*
X0203546Y0366143D03*
D31*
X0195776Y0369843D03*
D32*
X0195775Y0369103D03*
X0195775Y0353563D03*
D33*
X0196146Y0368363D03*
X0170244Y0353563D03*
X0170244Y0352823D03*
X0145083Y0352823D03*
D34*
X0138793Y0355783D03*
X0126952Y0357263D03*
X0126952Y0358003D03*
X0163954Y0355783D03*
X0177274Y0355043D03*
X0189115Y0355043D03*
X0189115Y0367623D03*
X0202436Y0367623D03*
X0203176Y0366883D03*
D35*
X0204286Y0363923D03*
X0204286Y0363183D03*
X0204286Y0362443D03*
X0204286Y0359483D03*
X0204286Y0358743D03*
X0204286Y0358003D03*
X0152483Y0355783D03*
X0152483Y0355043D03*
D36*
X0151743Y0354303D03*
X0148783Y0349862D03*
X0139163Y0355043D03*
X0202066Y0354303D03*
D37*
X0189485Y0354303D03*
X0176905Y0354303D03*
X0164324Y0355043D03*
D38*
X0139903Y0354303D03*
D39*
X0164694Y0354303D03*
D40*
X0145453Y0353563D03*
D41*
X0196146Y0352823D03*
D42*
X0195776Y0350602D03*
X0173574Y0352083D03*
X0148413Y0352083D03*
D43*
X0196146Y0352083D03*
D44*
X0196146Y0351343D03*
D45*
X0195775Y0349862D03*
X0173574Y0350602D03*
X0148413Y0350602D03*
M02*
