%
M48
M72
T01C0.01575
T02C0.03200
T03C0.03543
T04C0.03937
T05C0.04000
T06C0.04055
T07C0.04331
T08C0.06693
T09C0.09843
T10C0.11811
T11C0.12992
%
T01
X53333Y48844
X49396Y72466
X41522Y72466
X33648Y72466
X25774Y72466
X17900Y72466
X17900Y127584
X25774Y127584
X33648Y127584
X41522Y127584
X49396Y127584
X57270Y127584
X57270Y135458
X49396Y135458
X41522Y135458
X33648Y135458
X25774Y135458
X17900Y135458
X17900Y143332
X25774Y143332
X33648Y143332
X33648Y182702
X49396Y182702
X65144Y182702
X80892Y182702
X86797Y205340
X93687Y207309
X108451Y214198
X120262Y214198
X131089Y212230
X137979Y212230
X147821Y214198
X159632Y214198
X175380Y209277
X182270Y205340
X191128Y214198
X202939Y214198
X202939Y226009
X191128Y226009
X213766Y242742
X221640Y236836
X225577Y230931
X230498Y226009
X250183Y226009
X269868Y226009
X294475Y226009
X298412Y222072
X309238Y221088
X309238Y226009
X309238Y230931
X297427Y253569
X289553Y268332
X313175Y273254
X324986Y263411
X336797Y273254
X344671Y273254
X332860Y281128
X312191Y288017
X310223Y292939
X300380Y299828
X304317Y302781
X313175Y300813
X319081Y305734
X332860Y300813
X338766Y297860
X360419Y316561
X360419Y328372
X372230Y328372
X372230Y316561
X384041Y316561
X393884Y316561
X402742Y316561
X401758Y331324
X417506Y343135
X417506Y349041
X401758Y353962
X394868Y353962
X385026Y353962
X360419Y340183
X332860Y344120
X324986Y344120
X317506Y342742
X328923Y351994
X306286Y328372
X301364Y328372
X296443Y328372
X291522Y328372
X258057Y348057
X223608Y330340
X218687Y331324
X214750Y334277
X195065Y348057
X163569Y348057
X132073Y348057
X100577Y348057
X69081Y348057
X69081Y320498
X69081Y300813
X44475Y280143
X41522Y275222
X66128Y261443
X62191Y255537
X70065Y255537
X76955Y237820
X76955Y231915
X73018Y210261
X61207Y210261
X50380Y203372
X43490Y201403
X33648Y210261
X33648Y233883
X25774Y233883
X82860Y274238
X88766Y274238
X112388Y262427
X116325Y255537
X108451Y255537
X128136Y265380
X154711Y263411
X157664Y258490
X160616Y263411
X171443Y265380
X164553Y248647
X159632Y226009
X147821Y226009
X120262Y226009
X124199Y186639
X124199Y178765
X124199Y170891
X155695Y174828
X155695Y163017
X155695Y151206
X191128Y151206
X191128Y163017
X191128Y174828
X226561Y163017
X234435Y163017
X226561Y151206
X250183Y155143
X258057Y155143
X258057Y163017
X250183Y163017
X265931Y163017
X285616Y159080
X285616Y151206
X293490Y151206
X321049Y151206
X328923Y151206
X336797Y151206
X360419Y151206
X368293Y151206
X376167Y151206
X379120Y166954
X376167Y170891
X371246Y174828
X368293Y178765
X385026Y166954
X395853Y170891
X403727Y170891
X411601Y170891
X428333Y158096
X435223Y151206
X454908Y143332
X454908Y131521
X454908Y119710
X466719Y100025
X466719Y88214
X466719Y76403
X466719Y64592
X466719Y52781
X447034Y17348
X415538Y17348
X368293Y17348
X336797Y17348
X273805Y17348
X210813Y17348
X179317Y17348
X132073Y17348
X128136Y33096
X116325Y33096
X104514Y33096
X100577Y17348
X104514Y60655
X116325Y60655
X128136Y60655
X128136Y76403
X124199Y80340
X120262Y76403
X120262Y84277
X124199Y88214
X128136Y84277
X128136Y92151
X124199Y96088
X120262Y92151
X120262Y100025
X128136Y100025
X153727Y107899
X152742Y89198
X189160Y107899
X226561Y104946
X231482Y89198
X260026Y93135
X268884Y89198
X299396Y93135
X302349Y89198
X334829Y93135
X342703Y89198
X374199Y93135
X379120Y89198
X411601Y93135
X415538Y89198
X448018Y93135
X411601Y151206
X403727Y151206
X395853Y151206
X451955Y188608
X469671Y188608
X484435Y188608
X484435Y182702
X490341Y182702
X490341Y188608
X500183Y188608
X500183Y182702
X506089Y188608
X528727Y198450
X537585Y190576
X553333Y190576
X521837Y214198
X536601Y229946
X533648Y233883
X528530Y242545
X528333Y251206
X525774Y261443
X513963Y261443
X525774Y273254
X521227Y279533
X515479Y284533
X517900Y298844
X525774Y298844
X525774Y305734
X517900Y305734
X523805Y315950
X517900Y320950
X486404Y303765
X481482Y303765
X470656Y295891
X461797Y295891
X459376Y284533
X450971Y281128
X446049Y286049
X445065Y273254
X451955Y273254
X457860Y273254
X467782Y273175
X478530Y273254
X484435Y273254
X489356Y273254
X472782Y262584
X467782Y262348
X462782Y241757
X486404Y237820
X498215Y222072
X439160Y222072
X439160Y214198
X419475Y219120
X420459Y224041
X416522Y214198
X407664Y218135
X395853Y218135
X395853Y229946
X408648Y234868
X419475Y245694
X421443Y262427
X416522Y262427
X410616Y262427
X411601Y273254
X416522Y273254
X421443Y273254
X402742Y286049
X397329Y284572
X406679Y293923
X415538Y303765
X439160Y302781
X439160Y308687
X453313Y315950
X447565Y320950
X452939Y326403
X448018Y329356
X440144Y342151
X440144Y348057
X461797Y352978
X470656Y352978
X466719Y330340
X462782Y379553
X494278Y379553
X525774Y379553
X557270Y379553
X573018Y363805
X581423Y320950
X581502Y315950
X604514Y316561
X604514Y285065
X582329Y284533
X582250Y279533
X604514Y253569
X604514Y222072
X502152Y156128
X487388Y163017
X407664Y202387
X395853Y202387
X363372Y224041
X336797Y202387
X324986Y198450
X313175Y202387
X294475Y185655
X298412Y180734
X269868Y202387
X250183Y202387
X230498Y202387
X217703Y256521
X217703Y262427
X209829Y262427
X209829Y256521
X209829Y274238
X215734Y278175
X234435Y273254
X234435Y285065
X234435Y296876
X221640Y311639
X208845Y311639
X207860Y316561
X193097Y309671
X189160Y312624
X179317Y316561
X163569Y316561
X163569Y300813
X179317Y300813
X163569Y379553
X132073Y379553
X100577Y379553
X69081Y379553
X33648Y320498
X33648Y300813
X195065Y379553
X258057Y379553
X289553Y379553
X321049Y379553
X352545Y379553
X431286Y379553
X373215Y294907
X368293Y294907
X373215Y283096
X371246Y279159
X367309Y276206
X365341Y272269
X372230Y268332
X375183Y264395
X377152Y259474
X379120Y254553
X380104Y249631
X385026Y247663
X363372Y248647
X356482Y248647
X356482Y254553
X561207Y64592
X576955Y64592
X576955Y44907
X561207Y44907
T02
X551522Y160104
X531522Y160104
X465813Y214198
X455813Y214198
X283727Y241757
X273727Y241757
X61246Y153608
X61246Y143608
X69081Y71639
X69081Y51639
T03
X614356Y118726
T04
X531167Y124198
X523175Y124198
X515183Y124198
X519160Y114198
X511167Y114198
X503175Y114198
X495183Y114198
X487191Y114198
X483215Y124198
X491207Y124198
X499199Y124198
X527152Y114198
T05
X345774Y366836
X335774Y366836
X325774Y366836
X315774Y366836
X305774Y366836
X147821Y313765
X147821Y303765
X147821Y293765
T06
X483215Y134198
X493215Y134198
X521167Y134198
X531167Y134198
T07
X293490Y48844
X281679Y48844
X269868Y48844
X258057Y48844
X246246Y48844
X234435Y48844
X222624Y48844
X210813Y48844
X199002Y48844
X187191Y48844
X175380Y48844
X163569Y48844
X163569Y37033
X175380Y37033
X187191Y37033
X199002Y37033
X210813Y37033
X222624Y37033
X234435Y37033
X246246Y37033
X258057Y37033
X269868Y37033
X281679Y37033
X293490Y37033
T08
X475439Y41679
X538904Y41679
T09
X301994Y20025
X155065Y20025
T10
X55892Y21285
X392112Y21285
X570459Y21285
X570459Y375616
X392112Y375616
X234238Y375616
X55892Y375616
T11
X482191Y54198
X532152Y54198
M30
