G75*
%MOIN*%
%OFA0B0*%
%FSLAX25Y25*%
%IPPOS*%
%LPD*%
%AMOC8*
5,1,8,0,0,1.08239X$1,22.5*
%
%ADD10C,0.06000*%
%ADD11C,0.05200*%
%ADD12OC8,0.06300*%
%ADD13C,0.06300*%
%ADD14C,0.07500*%
%ADD15OC8,0.07500*%
%ADD16C,0.05937*%
%ADD17C,0.06083*%
%ADD18C,0.10039*%
%ADD19C,0.06496*%
%ADD20OC8,0.13843*%
%ADD21C,0.01000*%
%ADD22C,0.03175*%
%ADD23C,0.02400*%
%ADD24C,0.01200*%
%ADD25C,0.01600*%
%ADD26C,0.05315*%
D10*
X0144821Y0293765D02*
X0150821Y0293765D01*
X0150821Y0303765D02*
X0144821Y0303765D01*
X0144821Y0313765D02*
X0150821Y0313765D01*
X0305774Y0363836D02*
X0305774Y0369836D01*
X0315774Y0369836D02*
X0315774Y0363836D01*
X0325774Y0363836D02*
X0325774Y0369836D01*
X0335774Y0369836D02*
X0335774Y0363836D01*
X0345774Y0363836D02*
X0345774Y0369836D01*
D11*
X0283727Y0241757D03*
X0273727Y0241757D03*
X0455813Y0214198D03*
X0465813Y0214198D03*
D12*
X0061246Y0143608D03*
D13*
X0061246Y0153608D03*
D14*
X0069081Y0071639D03*
X0531522Y0160104D03*
D15*
X0551522Y0160104D03*
X0069081Y0051639D03*
D16*
X0483215Y0124198D03*
X0491207Y0124198D03*
X0499199Y0124198D03*
X0503175Y0114198D03*
X0511167Y0114198D03*
X0519160Y0114198D03*
X0527152Y0114198D03*
X0523175Y0124198D03*
X0515183Y0124198D03*
X0531167Y0124198D03*
X0495183Y0114198D03*
X0487191Y0114198D03*
D17*
X0483215Y0134198D03*
X0493215Y0134198D03*
X0521167Y0134198D03*
X0531167Y0134198D03*
D18*
X0538904Y0041679D03*
X0475439Y0041679D03*
D19*
X0293490Y0037033D03*
X0281679Y0037033D03*
X0269868Y0037033D03*
X0258057Y0037033D03*
X0246246Y0037033D03*
X0234435Y0037033D03*
X0222624Y0037033D03*
X0210813Y0037033D03*
X0199002Y0037033D03*
X0187191Y0037033D03*
X0175380Y0037033D03*
X0163569Y0037033D03*
X0163569Y0048844D03*
X0175380Y0048844D03*
X0187191Y0048844D03*
X0199002Y0048844D03*
X0210813Y0048844D03*
X0222624Y0048844D03*
X0234435Y0048844D03*
X0246246Y0048844D03*
X0258057Y0048844D03*
X0269868Y0048844D03*
X0281679Y0048844D03*
X0293490Y0048844D03*
D20*
X0301994Y0020025D03*
X0155065Y0020025D03*
D21*
X0042085Y0013974D02*
X0042085Y0061550D01*
X0041400Y0063204D01*
X0040134Y0064470D01*
X0038480Y0065155D01*
X0010589Y0065155D01*
X0010589Y0331746D01*
X0038480Y0331746D01*
X0040134Y0332431D01*
X0041400Y0333697D01*
X0042085Y0335351D01*
X0042085Y0382927D01*
X0048487Y0382927D01*
X0047565Y0382005D01*
X0046195Y0379632D01*
X0045486Y0376986D01*
X0045486Y0374246D01*
X0046195Y0371599D01*
X0047565Y0369227D01*
X0049503Y0367289D01*
X0051876Y0365919D01*
X0054522Y0365210D01*
X0057262Y0365210D01*
X0059908Y0365919D01*
X0062281Y0367289D01*
X0064218Y0369227D01*
X0065588Y0371599D01*
X0066297Y0374246D01*
X0066297Y0376986D01*
X0065588Y0379632D01*
X0064218Y0382005D01*
X0063296Y0382927D01*
X0226834Y0382927D01*
X0225912Y0382005D01*
X0224542Y0379632D01*
X0223833Y0376986D01*
X0223833Y0374246D01*
X0224542Y0371599D01*
X0225912Y0369227D01*
X0227849Y0367289D01*
X0230222Y0365919D01*
X0232868Y0365210D01*
X0235608Y0365210D01*
X0238255Y0365919D01*
X0240627Y0367289D01*
X0242565Y0369227D01*
X0243935Y0371599D01*
X0244644Y0374246D01*
X0244644Y0376986D01*
X0243935Y0379632D01*
X0242565Y0382005D01*
X0241643Y0382927D01*
X0384708Y0382927D01*
X0383786Y0382005D01*
X0382416Y0379632D01*
X0381707Y0376986D01*
X0381707Y0374246D01*
X0382416Y0371599D01*
X0383786Y0369227D01*
X0385723Y0367289D01*
X0388096Y0365919D01*
X0390742Y0365210D01*
X0393482Y0365210D01*
X0396129Y0365919D01*
X0398501Y0367289D01*
X0400439Y0369227D01*
X0401809Y0371599D01*
X0402518Y0374246D01*
X0402518Y0376986D01*
X0401809Y0379632D01*
X0400439Y0382005D01*
X0399517Y0382927D01*
X0563054Y0382927D01*
X0562132Y0382005D01*
X0560762Y0379632D01*
X0560053Y0376986D01*
X0560053Y0374246D01*
X0560762Y0371599D01*
X0562132Y0369227D01*
X0564070Y0367289D01*
X0566442Y0365919D01*
X0569089Y0365210D01*
X0571829Y0365210D01*
X0574475Y0365919D01*
X0576848Y0367289D01*
X0578785Y0369227D01*
X0580155Y0371599D01*
X0580864Y0374246D01*
X0580864Y0376986D01*
X0580155Y0379632D01*
X0578785Y0382005D01*
X0577863Y0382927D01*
X0584266Y0382927D01*
X0584266Y0335351D01*
X0584951Y0333697D01*
X0586217Y0332431D01*
X0587871Y0331746D01*
X0615762Y0331746D01*
X0615762Y0122644D01*
X0615183Y0122883D01*
X0613529Y0122883D01*
X0612001Y0122251D01*
X0610832Y0121081D01*
X0610199Y0119553D01*
X0610199Y0117899D01*
X0610832Y0116371D01*
X0612001Y0115201D01*
X0613529Y0114569D01*
X0615183Y0114569D01*
X0615762Y0114808D01*
X0615762Y0065155D01*
X0587871Y0065155D01*
X0586217Y0064470D01*
X0584951Y0063204D01*
X0584266Y0061550D01*
X0584266Y0013974D01*
X0577863Y0013974D01*
X0578785Y0014896D01*
X0580155Y0017269D01*
X0580864Y0019915D01*
X0580864Y0022655D01*
X0580155Y0025301D01*
X0578785Y0027674D01*
X0576848Y0029612D01*
X0574475Y0030981D01*
X0571829Y0031691D01*
X0569089Y0031691D01*
X0566442Y0030981D01*
X0564070Y0029612D01*
X0562132Y0027674D01*
X0560762Y0025301D01*
X0560053Y0022655D01*
X0560053Y0019915D01*
X0560762Y0017269D01*
X0562132Y0014896D01*
X0563054Y0013974D01*
X0399517Y0013974D01*
X0400439Y0014896D01*
X0401809Y0017269D01*
X0402518Y0019915D01*
X0402518Y0022655D01*
X0401809Y0025301D01*
X0400439Y0027674D01*
X0398501Y0029612D01*
X0396129Y0030981D01*
X0393482Y0031691D01*
X0390742Y0031691D01*
X0388096Y0030981D01*
X0385723Y0029612D01*
X0383786Y0027674D01*
X0382416Y0025301D01*
X0381707Y0022655D01*
X0381707Y0019915D01*
X0382416Y0017269D01*
X0383786Y0014896D01*
X0384708Y0013974D01*
X0307852Y0013974D01*
X0310416Y0016537D01*
X0310416Y0023513D01*
X0305482Y0028446D01*
X0298506Y0028446D01*
X0293573Y0023513D01*
X0293573Y0016537D01*
X0296136Y0013974D01*
X0160923Y0013974D01*
X0163486Y0016537D01*
X0163486Y0023513D01*
X0158553Y0028446D01*
X0151577Y0028446D01*
X0146644Y0023513D01*
X0146644Y0016537D01*
X0149207Y0013974D01*
X0063296Y0013974D01*
X0064218Y0014896D01*
X0065588Y0017269D01*
X0066297Y0019915D01*
X0066297Y0022655D01*
X0065588Y0025301D01*
X0064218Y0027674D01*
X0062281Y0029612D01*
X0059908Y0030981D01*
X0057262Y0031691D01*
X0054522Y0031691D01*
X0051876Y0030981D01*
X0049503Y0029612D01*
X0047565Y0027674D01*
X0046195Y0025301D01*
X0045486Y0022655D01*
X0045486Y0019915D01*
X0046195Y0017269D01*
X0047565Y0014896D01*
X0048487Y0013974D01*
X0042085Y0013974D01*
X0042085Y0014467D02*
X0047995Y0014467D01*
X0047237Y0015465D02*
X0042085Y0015465D01*
X0042085Y0016464D02*
X0046660Y0016464D01*
X0046144Y0017462D02*
X0042085Y0017462D01*
X0042085Y0018461D02*
X0045876Y0018461D01*
X0045609Y0019459D02*
X0042085Y0019459D01*
X0042085Y0020458D02*
X0045486Y0020458D01*
X0045486Y0021456D02*
X0042085Y0021456D01*
X0042085Y0022455D02*
X0045486Y0022455D01*
X0045700Y0023453D02*
X0042085Y0023453D01*
X0042085Y0024452D02*
X0045968Y0024452D01*
X0046281Y0025450D02*
X0042085Y0025450D01*
X0042085Y0026449D02*
X0046858Y0026449D01*
X0047434Y0027447D02*
X0042085Y0027447D01*
X0042085Y0028446D02*
X0048337Y0028446D01*
X0049335Y0029444D02*
X0042085Y0029444D01*
X0042085Y0030443D02*
X0050943Y0030443D01*
X0053592Y0031441D02*
X0042085Y0031441D01*
X0042085Y0032440D02*
X0162251Y0032440D01*
X0162625Y0032285D02*
X0164513Y0032285D01*
X0166259Y0033008D01*
X0167594Y0034344D01*
X0168317Y0036089D01*
X0168317Y0036346D01*
X0168646Y0036017D01*
X0169630Y0035033D01*
X0171069Y0035033D01*
X0171355Y0034344D01*
X0172691Y0033008D01*
X0174436Y0032285D01*
X0176325Y0032285D01*
X0178070Y0033008D01*
X0179405Y0034344D01*
X0180128Y0036089D01*
X0180128Y0037331D01*
X0180457Y0037002D01*
X0182426Y0035033D01*
X0182880Y0035033D01*
X0183166Y0034344D01*
X0184502Y0033008D01*
X0186247Y0032285D01*
X0188136Y0032285D01*
X0189881Y0033008D01*
X0191216Y0034344D01*
X0191939Y0036089D01*
X0191939Y0037331D01*
X0192268Y0037002D01*
X0194237Y0035033D01*
X0194691Y0035033D01*
X0194977Y0034344D01*
X0196313Y0033008D01*
X0198058Y0032285D01*
X0199947Y0032285D01*
X0201692Y0033008D01*
X0203027Y0034344D01*
X0203750Y0036089D01*
X0203750Y0037331D01*
X0204079Y0037002D01*
X0206048Y0035033D01*
X0206502Y0035033D01*
X0206788Y0034344D01*
X0208124Y0033008D01*
X0209869Y0032285D01*
X0211758Y0032285D01*
X0213503Y0033008D01*
X0214838Y0034344D01*
X0215561Y0036089D01*
X0215561Y0037331D01*
X0215890Y0037002D01*
X0217859Y0035033D01*
X0218313Y0035033D01*
X0218599Y0034344D01*
X0219935Y0033008D01*
X0221680Y0032285D01*
X0223569Y0032285D01*
X0225314Y0033008D01*
X0226649Y0034344D01*
X0227372Y0036089D01*
X0227372Y0037331D01*
X0227701Y0037002D01*
X0229670Y0035033D01*
X0230124Y0035033D01*
X0230410Y0034344D01*
X0231746Y0033008D01*
X0233491Y0032285D01*
X0235380Y0032285D01*
X0237125Y0033008D01*
X0238460Y0034344D01*
X0239183Y0036089D01*
X0239183Y0037331D01*
X0239512Y0037002D01*
X0241481Y0035033D01*
X0241935Y0035033D01*
X0242221Y0034344D01*
X0243557Y0033008D01*
X0245302Y0032285D01*
X0247191Y0032285D01*
X0248936Y0033008D01*
X0250271Y0034344D01*
X0250994Y0036089D01*
X0250994Y0037978D01*
X0250271Y0039723D01*
X0248936Y0041058D01*
X0247191Y0041781D01*
X0245302Y0041781D01*
X0243557Y0041058D01*
X0242341Y0039842D01*
X0242341Y0041823D01*
X0450856Y0041823D01*
X0452086Y0043053D01*
X0452086Y0119596D01*
X0450856Y0120826D01*
X0447943Y0120826D01*
X0449997Y0121677D01*
X0451957Y0123637D01*
X0453018Y0126198D01*
X0453018Y0128970D01*
X0451957Y0131532D01*
X0449997Y0133492D01*
X0449997Y0133492D01*
X0447435Y0134553D01*
X0161199Y0134553D01*
X0158637Y0133492D01*
X0156677Y0131532D01*
X0156677Y0131532D01*
X0155616Y0128970D01*
X0155616Y0126198D01*
X0156677Y0123637D01*
X0158637Y0121677D01*
X0158637Y0121677D01*
X0160691Y0120826D01*
X0149821Y0120826D01*
X0149821Y0200575D01*
X0150618Y0201372D01*
X0181130Y0201372D01*
X0182011Y0202253D01*
X0182884Y0202253D01*
X0184019Y0202723D01*
X0184887Y0203591D01*
X0185357Y0204726D01*
X0185357Y0205954D01*
X0184887Y0207089D01*
X0184019Y0207958D01*
X0182884Y0208428D01*
X0181656Y0208428D01*
X0180521Y0207958D01*
X0179652Y0207089D01*
X0179182Y0205954D01*
X0179182Y0205372D01*
X0174303Y0205372D01*
X0175121Y0206190D01*
X0175994Y0206190D01*
X0177129Y0206660D01*
X0177997Y0207528D01*
X0178467Y0208663D01*
X0178467Y0209891D01*
X0177997Y0211026D01*
X0177129Y0211895D01*
X0175994Y0212365D01*
X0174766Y0212365D01*
X0173631Y0211895D01*
X0172763Y0211026D01*
X0172293Y0209891D01*
X0172293Y0209018D01*
X0171599Y0208324D01*
X0146993Y0208324D01*
X0145853Y0207184D01*
X0141066Y0211971D01*
X0141066Y0212844D01*
X0140596Y0213979D01*
X0139727Y0214847D01*
X0138593Y0215317D01*
X0137364Y0215317D01*
X0136230Y0214847D01*
X0135361Y0213979D01*
X0134891Y0212844D01*
X0134891Y0211616D01*
X0135146Y0211002D01*
X0134176Y0211971D01*
X0134176Y0212844D01*
X0133706Y0213979D01*
X0132838Y0214847D01*
X0131703Y0215317D01*
X0130475Y0215317D01*
X0129340Y0214847D01*
X0128471Y0213979D01*
X0128001Y0212844D01*
X0128001Y0211616D01*
X0128471Y0210481D01*
X0129340Y0209613D01*
X0130475Y0209143D01*
X0131348Y0209143D01*
X0133150Y0207340D01*
X0096775Y0207340D01*
X0096775Y0207923D01*
X0096305Y0209058D01*
X0095436Y0209926D01*
X0094301Y0210396D01*
X0093073Y0210396D01*
X0091938Y0209926D01*
X0091070Y0209058D01*
X0090600Y0207923D01*
X0090600Y0206695D01*
X0091070Y0205560D01*
X0091258Y0205372D01*
X0089885Y0205372D01*
X0089885Y0205954D01*
X0089415Y0207089D01*
X0088546Y0207958D01*
X0087412Y0208428D01*
X0086183Y0208428D01*
X0085049Y0207958D01*
X0084180Y0207089D01*
X0083710Y0205954D01*
X0083710Y0204726D01*
X0084180Y0203591D01*
X0084368Y0203403D01*
X0053467Y0203403D01*
X0053467Y0203986D01*
X0052997Y0205121D01*
X0052129Y0205989D01*
X0050994Y0206459D01*
X0049766Y0206459D01*
X0048631Y0205989D01*
X0047763Y0205121D01*
X0047293Y0203986D01*
X0047293Y0202758D01*
X0047763Y0201623D01*
X0047951Y0201435D01*
X0046578Y0201435D01*
X0046578Y0202017D01*
X0046108Y0203152D01*
X0045239Y0204021D01*
X0044104Y0204491D01*
X0042876Y0204491D01*
X0041741Y0204021D01*
X0040873Y0203152D01*
X0040403Y0202017D01*
X0040403Y0200789D01*
X0040873Y0199654D01*
X0041741Y0198786D01*
X0042876Y0198316D01*
X0043749Y0198316D01*
X0044630Y0197435D01*
X0131245Y0197435D01*
X0132041Y0196638D01*
X0132041Y0066716D01*
X0133213Y0065545D01*
X0142071Y0056687D01*
X0146705Y0056687D01*
X0146705Y0043053D01*
X0147935Y0041823D01*
X0154679Y0041823D01*
X0154679Y0037189D01*
X0155851Y0036017D01*
X0156835Y0035033D01*
X0159258Y0035033D01*
X0159544Y0034344D01*
X0160880Y0033008D01*
X0162625Y0032285D01*
X0164887Y0032440D02*
X0174062Y0032440D01*
X0172260Y0033438D02*
X0166689Y0033438D01*
X0167633Y0034437D02*
X0171316Y0034437D01*
X0169228Y0035435D02*
X0168046Y0035435D01*
X0170459Y0037033D02*
X0169475Y0038017D01*
X0169475Y0057702D01*
X0166522Y0060655D01*
X0143884Y0060655D01*
X0136010Y0068529D01*
X0136010Y0198450D01*
X0133057Y0201403D01*
X0052349Y0201403D01*
X0050380Y0203372D01*
X0047529Y0202187D02*
X0046508Y0202187D01*
X0046074Y0203185D02*
X0047293Y0203185D01*
X0047375Y0204184D02*
X0044845Y0204184D01*
X0042135Y0204184D02*
X0010589Y0204184D01*
X0010589Y0205182D02*
X0047824Y0205182D01*
X0049094Y0206181D02*
X0010589Y0206181D01*
X0010589Y0207179D02*
X0084270Y0207179D01*
X0083804Y0206181D02*
X0051666Y0206181D01*
X0052936Y0205182D02*
X0083710Y0205182D01*
X0083935Y0204184D02*
X0053385Y0204184D01*
X0045459Y0199435D02*
X0043490Y0201403D01*
X0045459Y0199435D02*
X0132073Y0199435D01*
X0134041Y0197466D01*
X0134041Y0067545D01*
X0142900Y0058687D01*
X0154711Y0058687D01*
X0156679Y0056718D01*
X0156679Y0038017D01*
X0157664Y0037033D01*
X0163569Y0037033D01*
X0161768Y0041426D02*
X0158679Y0041426D01*
X0158679Y0041823D02*
X0167475Y0041823D01*
X0167475Y0039842D01*
X0166259Y0041058D01*
X0164513Y0041781D01*
X0162625Y0041781D01*
X0160880Y0041058D01*
X0159544Y0039723D01*
X0159258Y0039033D01*
X0158679Y0039033D01*
X0158679Y0041823D01*
X0158679Y0040428D02*
X0160249Y0040428D01*
X0159422Y0039429D02*
X0158679Y0039429D01*
X0154679Y0039429D02*
X0042085Y0039429D01*
X0042085Y0038431D02*
X0154679Y0038431D01*
X0154679Y0037432D02*
X0042085Y0037432D01*
X0042085Y0036434D02*
X0155434Y0036434D01*
X0156433Y0035435D02*
X0042085Y0035435D01*
X0042085Y0034437D02*
X0159505Y0034437D01*
X0160449Y0033438D02*
X0042085Y0033438D01*
X0042085Y0040428D02*
X0154679Y0040428D01*
X0154679Y0041426D02*
X0042085Y0041426D01*
X0042085Y0042425D02*
X0147333Y0042425D01*
X0146705Y0043423D02*
X0042085Y0043423D01*
X0042085Y0044422D02*
X0146705Y0044422D01*
X0146705Y0045420D02*
X0042085Y0045420D01*
X0042085Y0046419D02*
X0146705Y0046419D01*
X0146705Y0047417D02*
X0042085Y0047417D01*
X0042085Y0048416D02*
X0146705Y0048416D01*
X0146705Y0049414D02*
X0042085Y0049414D01*
X0042085Y0050413D02*
X0146705Y0050413D01*
X0146705Y0051411D02*
X0042085Y0051411D01*
X0042085Y0052410D02*
X0146705Y0052410D01*
X0146705Y0053409D02*
X0042085Y0053409D01*
X0042085Y0054407D02*
X0146705Y0054407D01*
X0146705Y0055406D02*
X0042085Y0055406D01*
X0042085Y0056404D02*
X0146705Y0056404D01*
X0141355Y0057403D02*
X0042085Y0057403D01*
X0042085Y0058401D02*
X0140357Y0058401D01*
X0139358Y0059400D02*
X0042085Y0059400D01*
X0042085Y0060398D02*
X0138360Y0060398D01*
X0137361Y0061397D02*
X0042085Y0061397D01*
X0041735Y0062395D02*
X0136363Y0062395D01*
X0135364Y0063394D02*
X0041210Y0063394D01*
X0040212Y0064392D02*
X0134366Y0064392D01*
X0133367Y0065391D02*
X0010589Y0065391D01*
X0010589Y0066389D02*
X0132369Y0066389D01*
X0132041Y0067388D02*
X0072254Y0067388D01*
X0072055Y0067189D02*
X0073532Y0068665D01*
X0074331Y0070595D01*
X0074331Y0072684D01*
X0073532Y0074613D01*
X0072055Y0076090D01*
X0070125Y0076889D01*
X0068037Y0076889D01*
X0066107Y0076090D01*
X0064630Y0074613D01*
X0063831Y0072684D01*
X0063831Y0070595D01*
X0064630Y0068665D01*
X0066107Y0067189D01*
X0068037Y0066389D01*
X0070125Y0066389D01*
X0072055Y0067189D01*
X0073252Y0068386D02*
X0132041Y0068386D01*
X0132041Y0069385D02*
X0073830Y0069385D01*
X0074243Y0070383D02*
X0132041Y0070383D01*
X0132041Y0071382D02*
X0074331Y0071382D01*
X0074331Y0072380D02*
X0132041Y0072380D01*
X0132041Y0073379D02*
X0074043Y0073379D01*
X0073629Y0074377D02*
X0132041Y0074377D01*
X0132041Y0075376D02*
X0072769Y0075376D01*
X0071369Y0076374D02*
X0132041Y0076374D01*
X0132041Y0077373D02*
X0010589Y0077373D01*
X0010589Y0078371D02*
X0132041Y0078371D01*
X0132041Y0079370D02*
X0010589Y0079370D01*
X0010589Y0080368D02*
X0132041Y0080368D01*
X0132041Y0081367D02*
X0010589Y0081367D01*
X0010589Y0082365D02*
X0132041Y0082365D01*
X0132041Y0083364D02*
X0010589Y0083364D01*
X0010589Y0084362D02*
X0132041Y0084362D01*
X0132041Y0085361D02*
X0010589Y0085361D01*
X0010589Y0086359D02*
X0132041Y0086359D01*
X0132041Y0087358D02*
X0010589Y0087358D01*
X0010589Y0088356D02*
X0132041Y0088356D01*
X0132041Y0089355D02*
X0010589Y0089355D01*
X0010589Y0090353D02*
X0132041Y0090353D01*
X0132041Y0091352D02*
X0010589Y0091352D01*
X0010589Y0092350D02*
X0132041Y0092350D01*
X0132041Y0093349D02*
X0010589Y0093349D01*
X0010589Y0094347D02*
X0132041Y0094347D01*
X0132041Y0095346D02*
X0010589Y0095346D01*
X0010589Y0096345D02*
X0132041Y0096345D01*
X0132041Y0097343D02*
X0010589Y0097343D01*
X0010589Y0098342D02*
X0132041Y0098342D01*
X0132041Y0099340D02*
X0010589Y0099340D01*
X0010589Y0100339D02*
X0132041Y0100339D01*
X0132041Y0101337D02*
X0010589Y0101337D01*
X0010589Y0102336D02*
X0132041Y0102336D01*
X0132041Y0103334D02*
X0010589Y0103334D01*
X0010589Y0104333D02*
X0132041Y0104333D01*
X0132041Y0105331D02*
X0127553Y0105331D01*
X0127037Y0104815D02*
X0128267Y0106045D01*
X0128267Y0151092D01*
X0127037Y0152322D01*
X0110534Y0152322D01*
X0109304Y0151092D01*
X0109304Y0146417D01*
X0090866Y0146417D01*
X0090866Y0150108D01*
X0089636Y0151338D01*
X0087896Y0151338D01*
X0073132Y0151338D01*
X0071902Y0150108D01*
X0071902Y0148368D01*
X0072886Y0147384D01*
X0072886Y0106045D01*
X0074117Y0104815D01*
X0082746Y0104815D01*
X0083976Y0106045D01*
X0090866Y0112935D01*
X0090866Y0119579D01*
X0110288Y0119579D01*
X0110288Y0106045D01*
X0111518Y0104815D01*
X0127037Y0104815D01*
X0128267Y0106330D02*
X0132041Y0106330D01*
X0132041Y0107328D02*
X0128267Y0107328D01*
X0128267Y0108327D02*
X0132041Y0108327D01*
X0132041Y0109325D02*
X0128267Y0109325D01*
X0128267Y0110324D02*
X0132041Y0110324D01*
X0132041Y0111322D02*
X0128267Y0111322D01*
X0128267Y0112321D02*
X0132041Y0112321D01*
X0132041Y0113319D02*
X0128267Y0113319D01*
X0128267Y0114318D02*
X0132041Y0114318D01*
X0132041Y0115316D02*
X0128267Y0115316D01*
X0128267Y0116315D02*
X0132041Y0116315D01*
X0132041Y0117313D02*
X0128267Y0117313D01*
X0128267Y0118312D02*
X0132041Y0118312D01*
X0132041Y0119310D02*
X0128267Y0119310D01*
X0128267Y0120309D02*
X0132041Y0120309D01*
X0132041Y0121307D02*
X0128267Y0121307D01*
X0128267Y0122306D02*
X0132041Y0122306D01*
X0132041Y0123304D02*
X0128267Y0123304D01*
X0128267Y0124303D02*
X0132041Y0124303D01*
X0132041Y0125301D02*
X0128267Y0125301D01*
X0128267Y0126300D02*
X0132041Y0126300D01*
X0132041Y0127298D02*
X0128267Y0127298D01*
X0128267Y0128297D02*
X0132041Y0128297D01*
X0132041Y0129295D02*
X0128267Y0129295D01*
X0128267Y0130294D02*
X0132041Y0130294D01*
X0132041Y0131292D02*
X0128267Y0131292D01*
X0128267Y0132291D02*
X0132041Y0132291D01*
X0132041Y0133289D02*
X0128267Y0133289D01*
X0128267Y0134288D02*
X0132041Y0134288D01*
X0132041Y0135286D02*
X0128267Y0135286D01*
X0128267Y0136285D02*
X0132041Y0136285D01*
X0132041Y0137283D02*
X0128267Y0137283D01*
X0128267Y0138282D02*
X0132041Y0138282D01*
X0132041Y0139280D02*
X0128267Y0139280D01*
X0128267Y0140279D02*
X0132041Y0140279D01*
X0132041Y0141278D02*
X0128267Y0141278D01*
X0128267Y0142276D02*
X0132041Y0142276D01*
X0132041Y0143275D02*
X0128267Y0143275D01*
X0128267Y0144273D02*
X0132041Y0144273D01*
X0132041Y0145272D02*
X0128267Y0145272D01*
X0128267Y0146270D02*
X0132041Y0146270D01*
X0132041Y0147269D02*
X0128267Y0147269D01*
X0128267Y0148267D02*
X0132041Y0148267D01*
X0132041Y0149266D02*
X0128267Y0149266D01*
X0128267Y0150264D02*
X0132041Y0150264D01*
X0132041Y0151263D02*
X0128097Y0151263D01*
X0127098Y0152261D02*
X0132041Y0152261D01*
X0132041Y0153260D02*
X0065896Y0153260D01*
X0065896Y0152683D02*
X0065896Y0154533D01*
X0065188Y0156242D01*
X0063880Y0157550D01*
X0062171Y0158258D01*
X0060321Y0158258D01*
X0058612Y0157550D01*
X0057304Y0156242D01*
X0056596Y0154533D01*
X0056596Y0152683D01*
X0057304Y0150974D01*
X0058612Y0149666D01*
X0060321Y0148958D01*
X0062171Y0148958D01*
X0063880Y0149666D01*
X0065188Y0150974D01*
X0065896Y0152683D01*
X0065721Y0152261D02*
X0110473Y0152261D01*
X0109474Y0151263D02*
X0089711Y0151263D01*
X0090709Y0150264D02*
X0109304Y0150264D01*
X0109304Y0149266D02*
X0090866Y0149266D01*
X0090866Y0148267D02*
X0109304Y0148267D01*
X0109304Y0147269D02*
X0090866Y0147269D01*
X0072886Y0147269D02*
X0010589Y0147269D01*
X0010589Y0148267D02*
X0072003Y0148267D01*
X0071902Y0149266D02*
X0062914Y0149266D01*
X0064479Y0150264D02*
X0072059Y0150264D01*
X0073057Y0151263D02*
X0065308Y0151263D01*
X0065896Y0154258D02*
X0132041Y0154258D01*
X0132041Y0155257D02*
X0065596Y0155257D01*
X0065175Y0156255D02*
X0132041Y0156255D01*
X0132041Y0157254D02*
X0064176Y0157254D01*
X0062185Y0158252D02*
X0132041Y0158252D01*
X0132041Y0159251D02*
X0010589Y0159251D01*
X0010589Y0160249D02*
X0132041Y0160249D01*
X0132041Y0161248D02*
X0010589Y0161248D01*
X0010589Y0162246D02*
X0132041Y0162246D01*
X0132041Y0163245D02*
X0010589Y0163245D01*
X0010589Y0164243D02*
X0132041Y0164243D01*
X0132041Y0165242D02*
X0010589Y0165242D01*
X0010589Y0166240D02*
X0132041Y0166240D01*
X0132041Y0167239D02*
X0010589Y0167239D01*
X0010589Y0168237D02*
X0132041Y0168237D01*
X0132041Y0169236D02*
X0010589Y0169236D01*
X0010589Y0170234D02*
X0132041Y0170234D01*
X0132041Y0171233D02*
X0010589Y0171233D01*
X0010589Y0172231D02*
X0132041Y0172231D01*
X0132041Y0173230D02*
X0010589Y0173230D01*
X0010589Y0174228D02*
X0132041Y0174228D01*
X0132041Y0175227D02*
X0010589Y0175227D01*
X0010589Y0176225D02*
X0132041Y0176225D01*
X0132041Y0177224D02*
X0010589Y0177224D01*
X0010589Y0178222D02*
X0132041Y0178222D01*
X0132041Y0179221D02*
X0010589Y0179221D01*
X0010589Y0180219D02*
X0132041Y0180219D01*
X0132041Y0181218D02*
X0010589Y0181218D01*
X0010589Y0182216D02*
X0132041Y0182216D01*
X0132041Y0183215D02*
X0010589Y0183215D01*
X0010589Y0184213D02*
X0132041Y0184213D01*
X0132041Y0185212D02*
X0010589Y0185212D01*
X0010589Y0186211D02*
X0132041Y0186211D01*
X0132041Y0187209D02*
X0010589Y0187209D01*
X0010589Y0188208D02*
X0132041Y0188208D01*
X0132041Y0189206D02*
X0010589Y0189206D01*
X0010589Y0190205D02*
X0132041Y0190205D01*
X0132041Y0191203D02*
X0010589Y0191203D01*
X0010589Y0192202D02*
X0132041Y0192202D01*
X0132041Y0193200D02*
X0010589Y0193200D01*
X0010589Y0194199D02*
X0132041Y0194199D01*
X0132041Y0195197D02*
X0010589Y0195197D01*
X0010589Y0196196D02*
X0132041Y0196196D01*
X0131485Y0197194D02*
X0010589Y0197194D01*
X0010589Y0198193D02*
X0043872Y0198193D01*
X0041336Y0199191D02*
X0010589Y0199191D01*
X0010589Y0200190D02*
X0040651Y0200190D01*
X0040403Y0201188D02*
X0010589Y0201188D01*
X0010589Y0202187D02*
X0040473Y0202187D01*
X0040906Y0203185D02*
X0010589Y0203185D01*
X0010589Y0208178D02*
X0085580Y0208178D01*
X0088015Y0208178D02*
X0090705Y0208178D01*
X0090600Y0207179D02*
X0089325Y0207179D01*
X0089791Y0206181D02*
X0090813Y0206181D01*
X0091189Y0209176D02*
X0010589Y0209176D01*
X0010589Y0210175D02*
X0092539Y0210175D01*
X0094835Y0210175D02*
X0128778Y0210175D01*
X0128185Y0211173D02*
X0010589Y0211173D01*
X0010589Y0212172D02*
X0128001Y0212172D01*
X0128137Y0213170D02*
X0010589Y0213170D01*
X0010589Y0214169D02*
X0128661Y0214169D01*
X0130113Y0215167D02*
X0010589Y0215167D01*
X0010589Y0216166D02*
X0287553Y0216166D01*
X0287553Y0217164D02*
X0010589Y0217164D01*
X0010589Y0218163D02*
X0287553Y0218163D01*
X0287553Y0219161D02*
X0010589Y0219161D01*
X0010589Y0220160D02*
X0287553Y0220160D01*
X0287553Y0221158D02*
X0010589Y0221158D01*
X0010589Y0222157D02*
X0287553Y0222157D01*
X0287553Y0223155D02*
X0010589Y0223155D01*
X0010589Y0224154D02*
X0287553Y0224154D01*
X0287553Y0225152D02*
X0010589Y0225152D01*
X0010589Y0226151D02*
X0287553Y0226151D01*
X0287553Y0227149D02*
X0010589Y0227149D01*
X0010589Y0228148D02*
X0224227Y0228148D01*
X0223828Y0228313D02*
X0224963Y0227843D01*
X0226191Y0227843D01*
X0227326Y0228313D01*
X0228194Y0229182D01*
X0228664Y0230317D01*
X0228664Y0231545D01*
X0228194Y0232680D01*
X0227326Y0233548D01*
X0226191Y0234018D01*
X0225318Y0234018D01*
X0224437Y0234899D01*
X0224069Y0234899D01*
X0224257Y0235087D01*
X0224727Y0236222D01*
X0224727Y0237450D01*
X0224257Y0238585D01*
X0223389Y0239454D01*
X0222444Y0239845D01*
X0221484Y0240805D01*
X0216195Y0240805D01*
X0216383Y0240993D01*
X0216853Y0242128D01*
X0216853Y0243356D01*
X0216383Y0244491D01*
X0215515Y0245359D01*
X0214380Y0245829D01*
X0213507Y0245829D01*
X0193128Y0266208D01*
X0191957Y0267380D01*
X0173809Y0267380D01*
X0173192Y0267997D01*
X0172057Y0268467D01*
X0170829Y0268467D01*
X0169694Y0267997D01*
X0168826Y0267128D01*
X0168356Y0265994D01*
X0168356Y0264765D01*
X0168826Y0263631D01*
X0169694Y0262762D01*
X0170829Y0262292D01*
X0172057Y0262292D01*
X0173192Y0262762D01*
X0173809Y0263380D01*
X0190300Y0263380D01*
X0210679Y0243001D01*
X0210679Y0242128D01*
X0211149Y0240993D01*
X0211337Y0240805D01*
X0210657Y0240805D01*
X0201986Y0249476D01*
X0200815Y0250647D01*
X0166920Y0250647D01*
X0166302Y0251265D01*
X0165167Y0251735D01*
X0163939Y0251735D01*
X0162804Y0251265D01*
X0161936Y0250396D01*
X0161466Y0249261D01*
X0161466Y0248658D01*
X0142744Y0267380D01*
X0130502Y0267380D01*
X0129885Y0267997D01*
X0128750Y0268467D01*
X0127522Y0268467D01*
X0126387Y0267997D01*
X0125519Y0267128D01*
X0125049Y0265994D01*
X0125049Y0264765D01*
X0125519Y0263631D01*
X0126387Y0262762D01*
X0127522Y0262292D01*
X0128750Y0262292D01*
X0129885Y0262762D01*
X0130502Y0263380D01*
X0141087Y0263380D01*
X0162741Y0241726D01*
X0197189Y0241726D01*
X0208016Y0230899D01*
X0222490Y0230899D01*
X0222490Y0230317D01*
X0222960Y0229182D01*
X0223828Y0228313D01*
X0222995Y0229147D02*
X0010589Y0229147D01*
X0010589Y0230145D02*
X0222561Y0230145D01*
X0223608Y0232899D02*
X0208845Y0232899D01*
X0198018Y0243726D01*
X0163569Y0243726D01*
X0141916Y0265380D01*
X0128136Y0265380D01*
X0125327Y0264094D02*
X0010589Y0264094D01*
X0010589Y0263096D02*
X0126053Y0263096D01*
X0125049Y0265093D02*
X0010589Y0265093D01*
X0010589Y0266091D02*
X0125089Y0266091D01*
X0125503Y0267090D02*
X0010589Y0267090D01*
X0010589Y0268088D02*
X0126608Y0268088D01*
X0129664Y0268088D02*
X0169915Y0268088D01*
X0168810Y0267090D02*
X0143034Y0267090D01*
X0144032Y0266091D02*
X0168396Y0266091D01*
X0168356Y0265093D02*
X0145031Y0265093D01*
X0146029Y0264094D02*
X0168634Y0264094D01*
X0169360Y0263096D02*
X0147028Y0263096D01*
X0148026Y0262097D02*
X0191582Y0262097D01*
X0192580Y0261099D02*
X0149025Y0261099D01*
X0150023Y0260100D02*
X0193579Y0260100D01*
X0194577Y0259102D02*
X0151022Y0259102D01*
X0152020Y0258103D02*
X0195576Y0258103D01*
X0196574Y0257105D02*
X0153019Y0257105D01*
X0154017Y0256106D02*
X0197573Y0256106D01*
X0198571Y0255108D02*
X0155016Y0255108D01*
X0156014Y0254109D02*
X0199570Y0254109D01*
X0200568Y0253111D02*
X0157013Y0253111D01*
X0158011Y0252112D02*
X0201567Y0252112D01*
X0202565Y0251114D02*
X0166453Y0251114D01*
X0164553Y0248647D02*
X0199986Y0248647D01*
X0209829Y0238805D01*
X0220656Y0238805D01*
X0221640Y0237820D01*
X0221640Y0236836D01*
X0218553Y0236805D02*
X0218553Y0236222D01*
X0219023Y0235087D01*
X0219211Y0234899D01*
X0209673Y0234899D01*
X0200018Y0244554D01*
X0198846Y0245726D01*
X0165568Y0245726D01*
X0166302Y0246030D01*
X0166920Y0246647D01*
X0199158Y0246647D01*
X0209000Y0236805D01*
X0218553Y0236805D01*
X0218588Y0236136D02*
X0208436Y0236136D01*
X0208671Y0237135D02*
X0207438Y0237135D01*
X0207672Y0238133D02*
X0206439Y0238133D01*
X0206674Y0239132D02*
X0205441Y0239132D01*
X0205675Y0240130D02*
X0204442Y0240130D01*
X0204677Y0241129D02*
X0203444Y0241129D01*
X0203678Y0242127D02*
X0202445Y0242127D01*
X0202680Y0243126D02*
X0201447Y0243126D01*
X0201681Y0244124D02*
X0200448Y0244124D01*
X0200683Y0245123D02*
X0199450Y0245123D01*
X0199684Y0246121D02*
X0166394Y0246121D01*
X0162339Y0242127D02*
X0010589Y0242127D01*
X0010589Y0241129D02*
X0197787Y0241129D01*
X0198785Y0240130D02*
X0010589Y0240130D01*
X0010589Y0239132D02*
X0199784Y0239132D01*
X0200782Y0238133D02*
X0010589Y0238133D01*
X0010589Y0237135D02*
X0201781Y0237135D01*
X0202779Y0236136D02*
X0010589Y0236136D01*
X0010589Y0235138D02*
X0203778Y0235138D01*
X0204776Y0234139D02*
X0010589Y0234139D01*
X0010589Y0233141D02*
X0205775Y0233141D01*
X0206773Y0232142D02*
X0010589Y0232142D01*
X0010589Y0231144D02*
X0207772Y0231144D01*
X0209435Y0235138D02*
X0219002Y0235138D01*
X0223608Y0232899D02*
X0225577Y0230931D01*
X0227733Y0233141D02*
X0287553Y0233141D01*
X0287553Y0234139D02*
X0225197Y0234139D01*
X0224278Y0235138D02*
X0287553Y0235138D01*
X0287553Y0236136D02*
X0224692Y0236136D01*
X0224727Y0237135D02*
X0287553Y0237135D01*
X0287553Y0238133D02*
X0285690Y0238133D01*
X0286049Y0238282D02*
X0284542Y0237657D01*
X0282911Y0237657D01*
X0281404Y0238282D01*
X0280251Y0239435D01*
X0279627Y0240942D01*
X0279627Y0242573D01*
X0280251Y0244080D01*
X0281404Y0245233D01*
X0282911Y0245857D01*
X0284542Y0245857D01*
X0286049Y0245233D01*
X0287202Y0244080D01*
X0287553Y0243233D01*
X0287553Y0265966D01*
X0286936Y0266583D01*
X0286466Y0267718D01*
X0286466Y0268946D01*
X0286936Y0270081D01*
X0287804Y0270950D01*
X0288939Y0271420D01*
X0290167Y0271420D01*
X0291302Y0270950D01*
X0292171Y0270081D01*
X0292641Y0268946D01*
X0292641Y0267718D01*
X0292171Y0266583D01*
X0291553Y0265966D01*
X0291553Y0227025D01*
X0291857Y0227758D01*
X0292726Y0228627D01*
X0293860Y0229097D01*
X0295089Y0229097D01*
X0296223Y0228627D01*
X0297092Y0227758D01*
X0297562Y0226624D01*
X0297562Y0225395D01*
X0297395Y0224993D01*
X0297797Y0225160D01*
X0299026Y0225160D01*
X0300160Y0224690D01*
X0300349Y0224502D01*
X0300349Y0296741D01*
X0299766Y0296741D01*
X0298631Y0297211D01*
X0297763Y0298079D01*
X0297293Y0299214D01*
X0297293Y0300442D01*
X0297763Y0301577D01*
X0298631Y0302446D01*
X0299766Y0302916D01*
X0300994Y0302916D01*
X0301230Y0302818D01*
X0301230Y0303395D01*
X0301700Y0304530D01*
X0302568Y0305398D01*
X0303703Y0305868D01*
X0304931Y0305868D01*
X0306066Y0305398D01*
X0306934Y0304530D01*
X0307404Y0303395D01*
X0307404Y0302167D01*
X0306934Y0301032D01*
X0306317Y0300415D01*
X0306317Y0166798D01*
X0308098Y0165017D01*
X0376691Y0165017D01*
X0376503Y0165205D01*
X0376033Y0166340D01*
X0376033Y0167568D01*
X0376130Y0167804D01*
X0375553Y0167804D01*
X0374419Y0168274D01*
X0373550Y0169142D01*
X0373080Y0170277D01*
X0373080Y0171505D01*
X0373550Y0172640D01*
X0374167Y0173258D01*
X0374167Y0173813D01*
X0373864Y0173079D01*
X0372995Y0172211D01*
X0371860Y0171741D01*
X0370632Y0171741D01*
X0369497Y0172211D01*
X0368629Y0173079D01*
X0368159Y0174214D01*
X0368159Y0175442D01*
X0368256Y0175678D01*
X0367679Y0175678D01*
X0366545Y0176148D01*
X0365676Y0177016D01*
X0365206Y0178151D01*
X0365206Y0179379D01*
X0365676Y0180514D01*
X0366545Y0181383D01*
X0367679Y0181853D01*
X0368552Y0181853D01*
X0369246Y0182547D01*
X0369246Y0261287D01*
X0370418Y0262458D01*
X0370418Y0262458D01*
X0372096Y0264136D01*
X0372096Y0265009D01*
X0372566Y0266144D01*
X0373434Y0267013D01*
X0374569Y0267483D01*
X0375797Y0267483D01*
X0376932Y0267013D01*
X0377801Y0266144D01*
X0378271Y0265009D01*
X0378271Y0263781D01*
X0377801Y0262646D01*
X0377716Y0262561D01*
X0377766Y0262561D01*
X0378901Y0262091D01*
X0379769Y0261223D01*
X0380239Y0260088D01*
X0380239Y0258860D01*
X0379769Y0257725D01*
X0379684Y0257640D01*
X0379734Y0257640D01*
X0380869Y0257170D01*
X0381738Y0256302D01*
X0382208Y0255167D01*
X0382208Y0253939D01*
X0381738Y0252804D01*
X0381379Y0252445D01*
X0381853Y0252249D01*
X0382722Y0251380D01*
X0383192Y0250246D01*
X0383192Y0250195D01*
X0383277Y0250280D01*
X0384412Y0250750D01*
X0385640Y0250750D01*
X0386775Y0250280D01*
X0387643Y0249412D01*
X0388113Y0248277D01*
X0388113Y0247049D01*
X0387643Y0245914D01*
X0387026Y0245297D01*
X0387026Y0169321D01*
X0387643Y0168703D01*
X0388113Y0167568D01*
X0388113Y0166340D01*
X0387643Y0165205D01*
X0387455Y0165017D01*
X0485022Y0165017D01*
X0485639Y0165635D01*
X0486774Y0166105D01*
X0488002Y0166105D01*
X0489137Y0165635D01*
X0490005Y0164766D01*
X0490475Y0163631D01*
X0490475Y0162403D01*
X0490005Y0161268D01*
X0489137Y0160400D01*
X0488002Y0159930D01*
X0486774Y0159930D01*
X0485639Y0160400D01*
X0485022Y0161017D01*
X0484342Y0161017D01*
X0486248Y0159112D01*
X0501289Y0159112D01*
X0501538Y0159215D01*
X0502766Y0159215D01*
X0503901Y0158745D01*
X0504769Y0157876D01*
X0505239Y0156742D01*
X0505239Y0155513D01*
X0504769Y0154379D01*
X0503901Y0153510D01*
X0502766Y0153040D01*
X0501538Y0153040D01*
X0500403Y0153510D01*
X0499534Y0154379D01*
X0499231Y0155112D01*
X0484591Y0155112D01*
X0483419Y0156283D01*
X0480654Y0159049D01*
X0431280Y0159049D01*
X0431420Y0158710D01*
X0431420Y0157482D01*
X0430950Y0156347D01*
X0430082Y0155479D01*
X0428947Y0155009D01*
X0427719Y0155009D01*
X0426584Y0155479D01*
X0425715Y0156347D01*
X0425412Y0157080D01*
X0294630Y0157080D01*
X0293459Y0158252D01*
X0287553Y0164157D01*
X0287553Y0240282D01*
X0287202Y0239435D01*
X0286049Y0238282D01*
X0286899Y0239132D02*
X0287553Y0239132D01*
X0287553Y0240130D02*
X0287490Y0240130D01*
X0287553Y0244124D02*
X0287158Y0244124D01*
X0287553Y0245123D02*
X0286160Y0245123D01*
X0287553Y0246121D02*
X0213215Y0246121D01*
X0212216Y0247120D02*
X0287553Y0247120D01*
X0287553Y0248118D02*
X0211218Y0248118D01*
X0210219Y0249117D02*
X0287553Y0249117D01*
X0287553Y0250115D02*
X0209221Y0250115D01*
X0208222Y0251114D02*
X0287553Y0251114D01*
X0287553Y0252112D02*
X0207224Y0252112D01*
X0206225Y0253111D02*
X0287553Y0253111D01*
X0287553Y0254109D02*
X0205227Y0254109D01*
X0204228Y0255108D02*
X0287553Y0255108D01*
X0287553Y0256106D02*
X0203230Y0256106D01*
X0202231Y0257105D02*
X0287553Y0257105D01*
X0287553Y0258103D02*
X0201233Y0258103D01*
X0200234Y0259102D02*
X0287553Y0259102D01*
X0287553Y0260100D02*
X0199236Y0260100D01*
X0198237Y0261099D02*
X0287553Y0261099D01*
X0287553Y0262097D02*
X0197239Y0262097D01*
X0196240Y0263096D02*
X0287553Y0263096D01*
X0287553Y0264094D02*
X0195242Y0264094D01*
X0194243Y0265093D02*
X0287553Y0265093D01*
X0287428Y0266091D02*
X0193245Y0266091D01*
X0192246Y0267090D02*
X0286726Y0267090D01*
X0286466Y0268088D02*
X0172971Y0268088D01*
X0171443Y0265380D02*
X0191128Y0265380D01*
X0213766Y0242742D01*
X0216535Y0244124D02*
X0270295Y0244124D01*
X0270251Y0244080D02*
X0269627Y0242573D01*
X0269627Y0240942D01*
X0270251Y0239435D01*
X0271404Y0238282D01*
X0272911Y0237657D01*
X0274542Y0237657D01*
X0276049Y0238282D01*
X0277202Y0239435D01*
X0277827Y0240942D01*
X0277827Y0242573D01*
X0277202Y0244080D01*
X0276049Y0245233D01*
X0274542Y0245857D01*
X0272911Y0245857D01*
X0271404Y0245233D01*
X0270251Y0244080D01*
X0269855Y0243126D02*
X0216853Y0243126D01*
X0216853Y0242127D02*
X0269627Y0242127D01*
X0269627Y0241129D02*
X0216440Y0241129D01*
X0215751Y0245123D02*
X0271293Y0245123D01*
X0276160Y0245123D02*
X0281293Y0245123D01*
X0280295Y0244124D02*
X0277158Y0244124D01*
X0277598Y0243126D02*
X0279855Y0243126D01*
X0279627Y0242127D02*
X0277827Y0242127D01*
X0277827Y0241129D02*
X0279627Y0241129D01*
X0279963Y0240130D02*
X0277490Y0240130D01*
X0276899Y0239132D02*
X0280554Y0239132D01*
X0281763Y0238133D02*
X0275690Y0238133D01*
X0271763Y0238133D02*
X0224445Y0238133D01*
X0223711Y0239132D02*
X0270554Y0239132D01*
X0269963Y0240130D02*
X0222159Y0240130D01*
X0211092Y0241129D02*
X0210333Y0241129D01*
X0210679Y0242127D02*
X0209335Y0242127D01*
X0208336Y0243126D02*
X0210554Y0243126D01*
X0209555Y0244124D02*
X0207338Y0244124D01*
X0206339Y0245123D02*
X0208557Y0245123D01*
X0207558Y0246121D02*
X0205341Y0246121D01*
X0204342Y0247120D02*
X0206559Y0247120D01*
X0205561Y0248118D02*
X0203344Y0248118D01*
X0202345Y0249117D02*
X0204562Y0249117D01*
X0203564Y0250115D02*
X0201347Y0250115D01*
X0201986Y0249476D02*
X0201986Y0249476D01*
X0190583Y0263096D02*
X0173526Y0263096D01*
X0162654Y0251114D02*
X0159010Y0251114D01*
X0160008Y0250115D02*
X0161820Y0250115D01*
X0161466Y0249117D02*
X0161007Y0249117D01*
X0158345Y0246121D02*
X0010589Y0246121D01*
X0010589Y0245123D02*
X0159344Y0245123D01*
X0160342Y0244124D02*
X0010589Y0244124D01*
X0010589Y0243126D02*
X0161341Y0243126D01*
X0157347Y0247120D02*
X0010589Y0247120D01*
X0010589Y0248118D02*
X0156348Y0248118D01*
X0155350Y0249117D02*
X0010589Y0249117D01*
X0010589Y0250115D02*
X0154351Y0250115D01*
X0153353Y0251114D02*
X0010589Y0251114D01*
X0010589Y0252112D02*
X0152354Y0252112D01*
X0151356Y0253111D02*
X0010589Y0253111D01*
X0010589Y0254109D02*
X0150357Y0254109D01*
X0149359Y0255108D02*
X0010589Y0255108D01*
X0010589Y0256106D02*
X0148360Y0256106D01*
X0147362Y0257105D02*
X0010589Y0257105D01*
X0010589Y0258103D02*
X0146363Y0258103D01*
X0145365Y0259102D02*
X0010589Y0259102D01*
X0010589Y0260100D02*
X0144366Y0260100D01*
X0143368Y0261099D02*
X0010589Y0261099D01*
X0010589Y0262097D02*
X0142369Y0262097D01*
X0141371Y0263096D02*
X0130219Y0263096D01*
X0142272Y0289950D02*
X0143926Y0289265D01*
X0151716Y0289265D01*
X0153370Y0289950D01*
X0154636Y0291216D01*
X0155321Y0292870D01*
X0155321Y0294660D01*
X0154636Y0296314D01*
X0153370Y0297580D01*
X0151716Y0298265D01*
X0143926Y0298265D01*
X0142272Y0297580D01*
X0141006Y0296314D01*
X0140321Y0294660D01*
X0140321Y0292870D01*
X0141006Y0291216D01*
X0142272Y0289950D01*
X0142167Y0290056D02*
X0010589Y0290056D01*
X0010589Y0291054D02*
X0141168Y0291054D01*
X0140660Y0292053D02*
X0010589Y0292053D01*
X0010589Y0293051D02*
X0140321Y0293051D01*
X0140321Y0294050D02*
X0010589Y0294050D01*
X0010589Y0295048D02*
X0140482Y0295048D01*
X0140895Y0296047D02*
X0010589Y0296047D01*
X0010589Y0297045D02*
X0141737Y0297045D01*
X0143391Y0298044D02*
X0010589Y0298044D01*
X0010589Y0299042D02*
X0212750Y0299042D01*
X0212750Y0298044D02*
X0152251Y0298044D01*
X0151716Y0299265D02*
X0153370Y0299950D01*
X0154636Y0301216D01*
X0155321Y0302870D01*
X0155321Y0304660D01*
X0154636Y0306314D01*
X0153370Y0307580D01*
X0151716Y0308265D01*
X0143926Y0308265D01*
X0142272Y0307580D01*
X0141006Y0306314D01*
X0140321Y0304660D01*
X0140321Y0302870D01*
X0141006Y0301216D01*
X0142272Y0299950D01*
X0143926Y0299265D01*
X0151716Y0299265D01*
X0153460Y0300041D02*
X0212750Y0300041D01*
X0212750Y0301039D02*
X0154459Y0301039D01*
X0154976Y0302038D02*
X0212750Y0302038D01*
X0212750Y0303036D02*
X0155321Y0303036D01*
X0155321Y0304035D02*
X0212750Y0304035D01*
X0212750Y0305033D02*
X0155167Y0305033D01*
X0154753Y0306032D02*
X0212750Y0306032D01*
X0212750Y0307030D02*
X0194790Y0307030D01*
X0194845Y0307053D02*
X0195714Y0307922D01*
X0196184Y0309057D01*
X0196184Y0309639D01*
X0206478Y0309639D01*
X0207096Y0309022D01*
X0208231Y0308552D01*
X0209459Y0308552D01*
X0210594Y0309022D01*
X0211462Y0309890D01*
X0211932Y0311025D01*
X0211932Y0312253D01*
X0211462Y0313388D01*
X0210594Y0314257D01*
X0210119Y0314453D01*
X0210478Y0314812D01*
X0210948Y0315946D01*
X0210948Y0317175D01*
X0210478Y0318309D01*
X0209609Y0319178D01*
X0208475Y0319648D01*
X0207246Y0319648D01*
X0206112Y0319178D01*
X0205243Y0318309D01*
X0204773Y0317175D01*
X0204773Y0316592D01*
X0190300Y0316592D01*
X0189419Y0315711D01*
X0188545Y0315711D01*
X0187411Y0315241D01*
X0186542Y0314372D01*
X0186072Y0313238D01*
X0186072Y0312009D01*
X0186542Y0310875D01*
X0187411Y0310006D01*
X0188545Y0309536D01*
X0189774Y0309536D01*
X0190009Y0309634D01*
X0190009Y0309057D01*
X0190479Y0307922D01*
X0191348Y0307053D01*
X0192482Y0306583D01*
X0193711Y0306583D01*
X0194845Y0307053D01*
X0195758Y0308029D02*
X0212750Y0308029D01*
X0212750Y0309027D02*
X0210599Y0309027D01*
X0211518Y0310026D02*
X0212750Y0310026D01*
X0212750Y0311024D02*
X0211932Y0311024D01*
X0211932Y0312023D02*
X0212750Y0312023D01*
X0212750Y0313021D02*
X0211614Y0313021D01*
X0210830Y0314020D02*
X0212750Y0314020D01*
X0212750Y0315018D02*
X0210563Y0315018D01*
X0210948Y0316017D02*
X0212750Y0316017D01*
X0212750Y0317016D02*
X0210948Y0317016D01*
X0210600Y0318014D02*
X0212750Y0318014D01*
X0212750Y0319013D02*
X0209775Y0319013D01*
X0207860Y0316561D02*
X0205892Y0314592D01*
X0191128Y0314592D01*
X0189160Y0312624D01*
X0186396Y0314020D02*
X0010589Y0314020D01*
X0010589Y0315018D02*
X0187188Y0315018D01*
X0186072Y0313021D02*
X0010589Y0313021D01*
X0010589Y0312023D02*
X0186072Y0312023D01*
X0186480Y0311024D02*
X0010589Y0311024D01*
X0010589Y0310026D02*
X0187391Y0310026D01*
X0190021Y0309027D02*
X0010589Y0309027D01*
X0010589Y0308029D02*
X0143355Y0308029D01*
X0141722Y0307030D02*
X0010589Y0307030D01*
X0010589Y0306032D02*
X0140889Y0306032D01*
X0140475Y0305033D02*
X0010589Y0305033D01*
X0010589Y0304035D02*
X0140321Y0304035D01*
X0140321Y0303036D02*
X0010589Y0303036D01*
X0010589Y0302038D02*
X0140666Y0302038D01*
X0141183Y0301039D02*
X0010589Y0301039D01*
X0010589Y0300041D02*
X0142182Y0300041D01*
X0153905Y0297045D02*
X0212750Y0297045D01*
X0212750Y0296047D02*
X0154747Y0296047D01*
X0155160Y0295048D02*
X0212750Y0295048D01*
X0212750Y0294050D02*
X0155321Y0294050D01*
X0155321Y0293051D02*
X0212750Y0293051D01*
X0212750Y0292053D02*
X0154982Y0292053D01*
X0154474Y0291054D02*
X0212750Y0291054D01*
X0212750Y0290056D02*
X0153475Y0290056D01*
X0153920Y0307030D02*
X0191404Y0307030D01*
X0190435Y0308029D02*
X0152287Y0308029D01*
X0189725Y0316017D02*
X0010589Y0316017D01*
X0010589Y0317016D02*
X0204773Y0317016D01*
X0205121Y0318014D02*
X0010589Y0318014D01*
X0010589Y0319013D02*
X0205946Y0319013D01*
X0212750Y0320011D02*
X0010589Y0320011D01*
X0010589Y0321010D02*
X0212750Y0321010D01*
X0212750Y0322008D02*
X0010589Y0322008D01*
X0010589Y0323007D02*
X0212750Y0323007D01*
X0212750Y0324005D02*
X0010589Y0324005D01*
X0010589Y0325004D02*
X0212750Y0325004D01*
X0212750Y0326002D02*
X0010589Y0326002D01*
X0010589Y0327001D02*
X0212750Y0327001D01*
X0212750Y0327999D02*
X0010589Y0327999D01*
X0010589Y0328998D02*
X0212750Y0328998D01*
X0212750Y0329996D02*
X0010589Y0329996D01*
X0010589Y0330995D02*
X0212750Y0330995D01*
X0212750Y0331911D02*
X0212750Y0285893D01*
X0210969Y0284112D01*
X0209797Y0282940D01*
X0209797Y0277325D01*
X0209215Y0277325D01*
X0208080Y0276855D01*
X0207212Y0275987D01*
X0206741Y0274852D01*
X0206741Y0273624D01*
X0207212Y0272489D01*
X0208080Y0271620D01*
X0209215Y0271150D01*
X0210443Y0271150D01*
X0211578Y0271620D01*
X0212446Y0272489D01*
X0212838Y0273434D01*
X0213797Y0274394D01*
X0213797Y0275746D01*
X0213986Y0275557D01*
X0215120Y0275087D01*
X0216349Y0275087D01*
X0217483Y0275557D01*
X0218352Y0276426D01*
X0218822Y0277561D01*
X0218822Y0278434D01*
X0219703Y0279315D01*
X0219703Y0309210D01*
X0219891Y0309022D01*
X0221026Y0308552D01*
X0222254Y0308552D01*
X0223389Y0309022D01*
X0224257Y0309890D01*
X0224727Y0311025D01*
X0224727Y0312253D01*
X0224257Y0313388D01*
X0223640Y0314006D01*
X0223640Y0327253D01*
X0224223Y0327253D01*
X0225357Y0327723D01*
X0226226Y0328591D01*
X0226696Y0329726D01*
X0226696Y0330954D01*
X0226226Y0332089D01*
X0225357Y0332958D01*
X0224223Y0333428D01*
X0222994Y0333428D01*
X0221860Y0332958D01*
X0221501Y0332599D01*
X0221305Y0333073D01*
X0220436Y0333942D01*
X0219301Y0334412D01*
X0218073Y0334412D01*
X0217838Y0334314D01*
X0217838Y0334891D01*
X0217368Y0336026D01*
X0216499Y0336895D01*
X0215364Y0337365D01*
X0214136Y0337365D01*
X0213001Y0336895D01*
X0212133Y0336026D01*
X0211663Y0334891D01*
X0211663Y0333663D01*
X0212133Y0332528D01*
X0212750Y0331911D01*
X0212668Y0331993D02*
X0039077Y0331993D01*
X0040695Y0332992D02*
X0211941Y0332992D01*
X0211663Y0333990D02*
X0041521Y0333990D01*
X0041935Y0334989D02*
X0211703Y0334989D01*
X0212117Y0335987D02*
X0042085Y0335987D01*
X0042085Y0336986D02*
X0213221Y0336986D01*
X0216279Y0336986D02*
X0315406Y0336986D01*
X0315406Y0337984D02*
X0042085Y0337984D01*
X0042085Y0338983D02*
X0315406Y0338983D01*
X0315406Y0339981D02*
X0042085Y0339981D01*
X0042085Y0340980D02*
X0314902Y0340980D01*
X0314889Y0340993D02*
X0315406Y0340475D01*
X0315406Y0306439D01*
X0315993Y0305851D01*
X0315993Y0305120D01*
X0316463Y0303985D01*
X0317332Y0303116D01*
X0318467Y0302646D01*
X0319695Y0302646D01*
X0320830Y0303116D01*
X0321698Y0303985D01*
X0322168Y0305120D01*
X0322168Y0306348D01*
X0321698Y0307483D01*
X0320830Y0308351D01*
X0319695Y0308821D01*
X0319606Y0308821D01*
X0319606Y0340475D01*
X0320123Y0340993D01*
X0320593Y0342128D01*
X0320593Y0343356D01*
X0320123Y0344491D01*
X0319255Y0345359D01*
X0318120Y0345829D01*
X0316892Y0345829D01*
X0315757Y0345359D01*
X0314889Y0344491D01*
X0314419Y0343356D01*
X0314419Y0342128D01*
X0314889Y0340993D01*
X0314480Y0341978D02*
X0042085Y0341978D01*
X0042085Y0342977D02*
X0314419Y0342977D01*
X0314675Y0343975D02*
X0042085Y0343975D01*
X0042085Y0344974D02*
X0315372Y0344974D01*
X0319640Y0344974D02*
X0336766Y0344974D01*
X0336766Y0345972D02*
X0042085Y0345972D01*
X0042085Y0346971D02*
X0336766Y0346971D01*
X0336766Y0347969D02*
X0042085Y0347969D01*
X0042085Y0348968D02*
X0336766Y0348968D01*
X0336766Y0349966D02*
X0042085Y0349966D01*
X0042085Y0350965D02*
X0336766Y0350965D01*
X0336766Y0351963D02*
X0042085Y0351963D01*
X0042085Y0352962D02*
X0335954Y0352962D01*
X0336766Y0352150D02*
X0334000Y0354915D01*
X0305930Y0354915D01*
X0304945Y0355899D01*
X0303774Y0357071D01*
X0303774Y0359794D01*
X0303225Y0360021D01*
X0301959Y0361287D01*
X0301274Y0362941D01*
X0301274Y0370731D01*
X0301959Y0372385D01*
X0303225Y0373651D01*
X0304879Y0374336D01*
X0306669Y0374336D01*
X0308323Y0373651D01*
X0309589Y0372385D01*
X0310274Y0370731D01*
X0310274Y0362941D01*
X0309589Y0361287D01*
X0308323Y0360021D01*
X0307774Y0359794D01*
X0307774Y0358915D01*
X0335657Y0358915D01*
X0336829Y0357743D01*
X0340766Y0353806D01*
X0340766Y0300226D01*
X0341383Y0299609D01*
X0341853Y0298474D01*
X0341853Y0297246D01*
X0341383Y0296111D01*
X0340515Y0295242D01*
X0339380Y0294772D01*
X0338152Y0294772D01*
X0337017Y0295242D01*
X0336149Y0296111D01*
X0335679Y0297246D01*
X0335679Y0298474D01*
X0336149Y0299609D01*
X0336766Y0300226D01*
X0336766Y0352150D01*
X0338766Y0352978D02*
X0334829Y0356915D01*
X0306758Y0356915D01*
X0305774Y0357899D01*
X0305774Y0366836D01*
X0310274Y0366941D02*
X0311274Y0366941D01*
X0311274Y0365943D02*
X0310274Y0365943D01*
X0310274Y0364944D02*
X0311274Y0364944D01*
X0311274Y0363946D02*
X0310274Y0363946D01*
X0310274Y0362947D02*
X0311274Y0362947D01*
X0311274Y0362941D02*
X0311959Y0361287D01*
X0313225Y0360021D01*
X0314879Y0359336D01*
X0316669Y0359336D01*
X0318323Y0360021D01*
X0319589Y0361287D01*
X0320274Y0362941D01*
X0320274Y0370731D01*
X0319589Y0372385D01*
X0318323Y0373651D01*
X0316669Y0374336D01*
X0314879Y0374336D01*
X0313225Y0373651D01*
X0311959Y0372385D01*
X0311274Y0370731D01*
X0311274Y0362941D01*
X0311685Y0361949D02*
X0309863Y0361949D01*
X0309252Y0360950D02*
X0312296Y0360950D01*
X0313393Y0359951D02*
X0308154Y0359951D01*
X0307774Y0358953D02*
X0584266Y0358953D01*
X0584266Y0359951D02*
X0348154Y0359951D01*
X0348323Y0360021D02*
X0349589Y0361287D01*
X0350274Y0362941D01*
X0350274Y0370731D01*
X0349589Y0372385D01*
X0348323Y0373651D01*
X0346669Y0374336D01*
X0344879Y0374336D01*
X0343225Y0373651D01*
X0341959Y0372385D01*
X0341274Y0370731D01*
X0341274Y0362941D01*
X0341959Y0361287D01*
X0343225Y0360021D01*
X0344879Y0359336D01*
X0346669Y0359336D01*
X0348323Y0360021D01*
X0349252Y0360950D02*
X0584266Y0360950D01*
X0584266Y0361949D02*
X0349863Y0361949D01*
X0350274Y0362947D02*
X0584266Y0362947D01*
X0584266Y0363946D02*
X0350274Y0363946D01*
X0350274Y0364944D02*
X0584266Y0364944D01*
X0584266Y0365943D02*
X0574515Y0365943D01*
X0576245Y0366941D02*
X0584266Y0366941D01*
X0584266Y0367940D02*
X0577498Y0367940D01*
X0578497Y0368938D02*
X0584266Y0368938D01*
X0584266Y0369937D02*
X0579195Y0369937D01*
X0579772Y0370935D02*
X0584266Y0370935D01*
X0584266Y0371934D02*
X0580245Y0371934D01*
X0580512Y0372932D02*
X0584266Y0372932D01*
X0584266Y0373931D02*
X0580780Y0373931D01*
X0580864Y0374929D02*
X0584266Y0374929D01*
X0584266Y0375928D02*
X0580864Y0375928D01*
X0580864Y0376926D02*
X0584266Y0376926D01*
X0584266Y0377925D02*
X0580613Y0377925D01*
X0580345Y0378923D02*
X0584266Y0378923D01*
X0584266Y0379922D02*
X0579988Y0379922D01*
X0579412Y0380920D02*
X0584266Y0380920D01*
X0584266Y0381919D02*
X0578835Y0381919D01*
X0577873Y0382917D02*
X0584266Y0382917D01*
X0563045Y0382917D02*
X0399526Y0382917D01*
X0400489Y0381919D02*
X0562083Y0381919D01*
X0561506Y0380920D02*
X0401065Y0380920D01*
X0401642Y0379922D02*
X0560930Y0379922D01*
X0560572Y0378923D02*
X0401999Y0378923D01*
X0402266Y0377925D02*
X0560305Y0377925D01*
X0560053Y0376926D02*
X0402518Y0376926D01*
X0402518Y0375928D02*
X0560053Y0375928D01*
X0560053Y0374929D02*
X0402518Y0374929D01*
X0402433Y0373931D02*
X0560138Y0373931D01*
X0560405Y0372932D02*
X0402166Y0372932D01*
X0401898Y0371934D02*
X0560673Y0371934D01*
X0561146Y0370935D02*
X0401425Y0370935D01*
X0400849Y0369937D02*
X0561722Y0369937D01*
X0562421Y0368938D02*
X0400150Y0368938D01*
X0399152Y0367940D02*
X0563419Y0367940D01*
X0564673Y0366941D02*
X0397898Y0366941D01*
X0396169Y0365943D02*
X0566402Y0365943D01*
X0584266Y0357954D02*
X0336618Y0357954D01*
X0336669Y0359336D02*
X0334879Y0359336D01*
X0333225Y0360021D01*
X0331959Y0361287D01*
X0331274Y0362941D01*
X0331274Y0370731D01*
X0331959Y0372385D01*
X0333225Y0373651D01*
X0334879Y0374336D01*
X0336669Y0374336D01*
X0338323Y0373651D01*
X0339589Y0372385D01*
X0340274Y0370731D01*
X0340274Y0362941D01*
X0339589Y0361287D01*
X0338323Y0360021D01*
X0336669Y0359336D01*
X0338154Y0359951D02*
X0343393Y0359951D01*
X0342296Y0360950D02*
X0339252Y0360950D01*
X0339863Y0361949D02*
X0341685Y0361949D01*
X0341274Y0362947D02*
X0340274Y0362947D01*
X0340274Y0363946D02*
X0341274Y0363946D01*
X0341274Y0364944D02*
X0340274Y0364944D01*
X0340274Y0365943D02*
X0341274Y0365943D01*
X0341274Y0366941D02*
X0340274Y0366941D01*
X0340274Y0367940D02*
X0341274Y0367940D01*
X0341274Y0368938D02*
X0340274Y0368938D01*
X0340274Y0369937D02*
X0341274Y0369937D01*
X0341358Y0370935D02*
X0340189Y0370935D01*
X0339776Y0371934D02*
X0341772Y0371934D01*
X0342506Y0372932D02*
X0339042Y0372932D01*
X0337648Y0373931D02*
X0343900Y0373931D01*
X0347648Y0373931D02*
X0381791Y0373931D01*
X0381707Y0374929D02*
X0244644Y0374929D01*
X0244644Y0375928D02*
X0381707Y0375928D01*
X0381707Y0376926D02*
X0244644Y0376926D01*
X0244392Y0377925D02*
X0381958Y0377925D01*
X0382226Y0378923D02*
X0244125Y0378923D01*
X0243768Y0379922D02*
X0382583Y0379922D01*
X0383160Y0380920D02*
X0243191Y0380920D01*
X0242615Y0381919D02*
X0383736Y0381919D01*
X0384698Y0382917D02*
X0241652Y0382917D01*
X0244559Y0373931D02*
X0303900Y0373931D01*
X0302506Y0372932D02*
X0244292Y0372932D01*
X0244024Y0371934D02*
X0301772Y0371934D01*
X0301358Y0370935D02*
X0243551Y0370935D01*
X0242975Y0369937D02*
X0301274Y0369937D01*
X0301274Y0368938D02*
X0242276Y0368938D01*
X0241278Y0367940D02*
X0301274Y0367940D01*
X0301274Y0366941D02*
X0240024Y0366941D01*
X0238295Y0365943D02*
X0301274Y0365943D01*
X0301274Y0364944D02*
X0042085Y0364944D01*
X0042085Y0363946D02*
X0301274Y0363946D01*
X0301274Y0362947D02*
X0042085Y0362947D01*
X0042085Y0361949D02*
X0301685Y0361949D01*
X0302296Y0360950D02*
X0042085Y0360950D01*
X0042085Y0359951D02*
X0303393Y0359951D01*
X0303774Y0358953D02*
X0042085Y0358953D01*
X0042085Y0357954D02*
X0303774Y0357954D01*
X0303889Y0356956D02*
X0042085Y0356956D01*
X0042085Y0355957D02*
X0304887Y0355957D01*
X0305886Y0354959D02*
X0042085Y0354959D01*
X0042085Y0353960D02*
X0334955Y0353960D01*
X0338766Y0352978D02*
X0338766Y0297860D01*
X0340951Y0300041D02*
X0443949Y0300041D01*
X0443949Y0301039D02*
X0340766Y0301039D01*
X0340766Y0302038D02*
X0443949Y0302038D01*
X0443949Y0303036D02*
X0340766Y0303036D01*
X0340766Y0304035D02*
X0443949Y0304035D01*
X0443949Y0305033D02*
X0340766Y0305033D01*
X0340766Y0306032D02*
X0443949Y0306032D01*
X0443949Y0307030D02*
X0340766Y0307030D01*
X0340766Y0308029D02*
X0443949Y0308029D01*
X0443949Y0309027D02*
X0340766Y0309027D01*
X0340766Y0310026D02*
X0443949Y0310026D01*
X0443949Y0311024D02*
X0340766Y0311024D01*
X0340766Y0312023D02*
X0443949Y0312023D01*
X0443949Y0313021D02*
X0340766Y0313021D01*
X0340766Y0314020D02*
X0443949Y0314020D01*
X0443949Y0315018D02*
X0340766Y0315018D01*
X0340766Y0316017D02*
X0443949Y0316017D01*
X0443949Y0317016D02*
X0340766Y0317016D01*
X0340766Y0318014D02*
X0443949Y0318014D01*
X0443949Y0319013D02*
X0340766Y0319013D01*
X0340766Y0320011D02*
X0443949Y0320011D01*
X0443949Y0320383D02*
X0443949Y0288315D01*
X0443683Y0288049D01*
X0405109Y0288049D01*
X0404491Y0288666D01*
X0403356Y0289136D01*
X0402128Y0289136D01*
X0401683Y0288952D01*
X0398837Y0291798D01*
X0397665Y0292970D01*
X0317941Y0292970D01*
X0317144Y0293767D01*
X0315972Y0294939D01*
X0312589Y0294939D01*
X0311971Y0295556D01*
X0310837Y0296026D01*
X0309608Y0296026D01*
X0308474Y0295556D01*
X0307605Y0294687D01*
X0307135Y0293553D01*
X0307135Y0292324D01*
X0307605Y0291190D01*
X0308474Y0290321D01*
X0309608Y0289851D01*
X0309659Y0289851D01*
X0309574Y0289766D01*
X0309104Y0288631D01*
X0309104Y0287403D01*
X0309574Y0286268D01*
X0310442Y0285400D01*
X0311577Y0284930D01*
X0312805Y0284930D01*
X0313940Y0285400D01*
X0314557Y0286017D01*
X0372200Y0286017D01*
X0371466Y0285713D01*
X0370597Y0284845D01*
X0370127Y0283710D01*
X0370127Y0282482D01*
X0370285Y0282102D01*
X0369497Y0281776D01*
X0368629Y0280908D01*
X0368159Y0279773D01*
X0368159Y0279196D01*
X0367923Y0279294D01*
X0366695Y0279294D01*
X0365560Y0278824D01*
X0364692Y0277955D01*
X0364222Y0276820D01*
X0364222Y0275592D01*
X0364379Y0275213D01*
X0363592Y0274887D01*
X0362723Y0274018D01*
X0362253Y0272883D01*
X0362253Y0271655D01*
X0362723Y0270520D01*
X0363592Y0269652D01*
X0364727Y0269182D01*
X0365955Y0269182D01*
X0367090Y0269652D01*
X0367707Y0270269D01*
X0389119Y0270269D01*
X0389916Y0269472D01*
X0389916Y0254709D01*
X0393853Y0250772D01*
X0395024Y0249600D01*
X0519040Y0249600D01*
X0525454Y0243186D01*
X0525442Y0243159D01*
X0525442Y0241931D01*
X0525912Y0240796D01*
X0526781Y0239928D01*
X0527916Y0239457D01*
X0529144Y0239457D01*
X0530279Y0239928D01*
X0530664Y0240313D01*
X0530664Y0234747D01*
X0530560Y0234498D01*
X0530560Y0233269D01*
X0531030Y0232135D01*
X0531899Y0231266D01*
X0533034Y0230796D01*
X0533611Y0230796D01*
X0533513Y0230561D01*
X0533513Y0229332D01*
X0533983Y0228198D01*
X0534852Y0227329D01*
X0535986Y0226859D01*
X0537215Y0226859D01*
X0538349Y0227329D01*
X0539218Y0228198D01*
X0539688Y0229332D01*
X0539688Y0230561D01*
X0539585Y0230810D01*
X0539585Y0253413D01*
X0538413Y0254584D01*
X0534664Y0258334D01*
X0533492Y0259505D01*
X0473417Y0259505D01*
X0474531Y0259967D01*
X0475399Y0260835D01*
X0475869Y0261970D01*
X0475869Y0263198D01*
X0475399Y0264333D01*
X0474882Y0264850D01*
X0474882Y0277433D01*
X0518960Y0277433D01*
X0519478Y0276916D01*
X0520612Y0276446D01*
X0521841Y0276446D01*
X0522975Y0276916D01*
X0523493Y0277433D01*
X0579984Y0277433D01*
X0580501Y0276916D01*
X0581636Y0276446D01*
X0582864Y0276446D01*
X0583999Y0276916D01*
X0584868Y0277784D01*
X0585338Y0278919D01*
X0585338Y0280147D01*
X0584868Y0281282D01*
X0584156Y0281994D01*
X0584946Y0282784D01*
X0585416Y0283919D01*
X0585416Y0285147D01*
X0584946Y0286282D01*
X0584078Y0287150D01*
X0582943Y0287620D01*
X0581715Y0287620D01*
X0580580Y0287150D01*
X0580063Y0286633D01*
X0517745Y0286633D01*
X0517227Y0287150D01*
X0516093Y0287620D01*
X0514864Y0287620D01*
X0513730Y0287150D01*
X0513212Y0286633D01*
X0461642Y0286633D01*
X0461125Y0287150D01*
X0459990Y0287620D01*
X0458762Y0287620D01*
X0457627Y0287150D01*
X0456759Y0286282D01*
X0456289Y0285147D01*
X0456289Y0283919D01*
X0456759Y0282784D01*
X0457627Y0281916D01*
X0458310Y0281633D01*
X0454058Y0281633D01*
X0454058Y0281742D01*
X0453588Y0282876D01*
X0453071Y0283394D01*
X0453071Y0312738D01*
X0453196Y0312863D01*
X0453927Y0312863D01*
X0455062Y0313333D01*
X0455579Y0313850D01*
X0521539Y0313850D01*
X0522056Y0313333D01*
X0523191Y0312863D01*
X0524419Y0312863D01*
X0525554Y0313333D01*
X0526072Y0313850D01*
X0579236Y0313850D01*
X0579753Y0313333D01*
X0580888Y0312863D01*
X0582116Y0312863D01*
X0583251Y0313333D01*
X0584119Y0314202D01*
X0584590Y0315336D01*
X0584590Y0316565D01*
X0584119Y0317699D01*
X0583329Y0318490D01*
X0584041Y0319202D01*
X0584511Y0320336D01*
X0584511Y0321565D01*
X0584041Y0322699D01*
X0583172Y0323568D01*
X0582038Y0324038D01*
X0580809Y0324038D01*
X0579675Y0323568D01*
X0579157Y0323050D01*
X0520166Y0323050D01*
X0519649Y0323568D01*
X0518514Y0324038D01*
X0517286Y0324038D01*
X0516151Y0323568D01*
X0515634Y0323050D01*
X0449831Y0323050D01*
X0449314Y0323568D01*
X0448179Y0324038D01*
X0446951Y0324038D01*
X0445816Y0323568D01*
X0444948Y0322699D01*
X0444478Y0321565D01*
X0444478Y0320912D01*
X0443949Y0320383D01*
X0444478Y0321010D02*
X0340766Y0321010D01*
X0340766Y0322008D02*
X0444661Y0322008D01*
X0445255Y0323007D02*
X0340766Y0323007D01*
X0340766Y0324005D02*
X0446872Y0324005D01*
X0448258Y0324005D02*
X0517207Y0324005D01*
X0518593Y0324005D02*
X0580730Y0324005D01*
X0582116Y0324005D02*
X0615762Y0324005D01*
X0615762Y0323007D02*
X0583733Y0323007D01*
X0584327Y0322008D02*
X0615762Y0322008D01*
X0615762Y0321010D02*
X0584511Y0321010D01*
X0584376Y0320011D02*
X0615762Y0320011D01*
X0615762Y0319013D02*
X0583852Y0319013D01*
X0583805Y0318014D02*
X0615762Y0318014D01*
X0615762Y0317016D02*
X0584403Y0317016D01*
X0584590Y0316017D02*
X0615762Y0316017D01*
X0615762Y0315018D02*
X0584458Y0315018D01*
X0583938Y0314020D02*
X0615762Y0314020D01*
X0615762Y0313021D02*
X0582499Y0313021D01*
X0580505Y0313021D02*
X0524802Y0313021D01*
X0522809Y0313021D02*
X0454310Y0313021D01*
X0453071Y0312023D02*
X0615762Y0312023D01*
X0615762Y0311024D02*
X0453071Y0311024D01*
X0453071Y0310026D02*
X0615762Y0310026D01*
X0615762Y0309027D02*
X0453071Y0309027D01*
X0453071Y0308029D02*
X0615762Y0308029D01*
X0615762Y0307030D02*
X0453071Y0307030D01*
X0453071Y0306032D02*
X0615762Y0306032D01*
X0615762Y0305033D02*
X0453071Y0305033D01*
X0453071Y0304035D02*
X0615762Y0304035D01*
X0615762Y0303036D02*
X0453071Y0303036D01*
X0453071Y0302038D02*
X0615762Y0302038D01*
X0615762Y0301039D02*
X0453071Y0301039D01*
X0453071Y0300041D02*
X0615762Y0300041D01*
X0615762Y0299042D02*
X0453071Y0299042D01*
X0453071Y0298044D02*
X0615762Y0298044D01*
X0615762Y0297045D02*
X0453071Y0297045D01*
X0453071Y0296047D02*
X0615762Y0296047D01*
X0615762Y0295048D02*
X0453071Y0295048D01*
X0453071Y0294050D02*
X0615762Y0294050D01*
X0615762Y0293051D02*
X0453071Y0293051D01*
X0453071Y0292053D02*
X0615762Y0292053D01*
X0615762Y0291054D02*
X0453071Y0291054D01*
X0453071Y0290056D02*
X0615762Y0290056D01*
X0615762Y0289057D02*
X0453071Y0289057D01*
X0453071Y0288059D02*
X0615762Y0288059D01*
X0615762Y0287060D02*
X0584168Y0287060D01*
X0585038Y0286062D02*
X0615762Y0286062D01*
X0615762Y0285063D02*
X0585416Y0285063D01*
X0585416Y0284065D02*
X0615762Y0284065D01*
X0615762Y0283066D02*
X0585063Y0283066D01*
X0584230Y0282068D02*
X0615762Y0282068D01*
X0615762Y0281069D02*
X0584956Y0281069D01*
X0585338Y0280071D02*
X0615762Y0280071D01*
X0615762Y0279072D02*
X0585338Y0279072D01*
X0584987Y0278074D02*
X0615762Y0278074D01*
X0615762Y0277075D02*
X0584158Y0277075D01*
X0580342Y0277075D02*
X0523135Y0277075D01*
X0519318Y0277075D02*
X0474882Y0277075D01*
X0474882Y0276077D02*
X0615762Y0276077D01*
X0615762Y0275078D02*
X0474882Y0275078D01*
X0474882Y0274080D02*
X0615762Y0274080D01*
X0615762Y0273081D02*
X0474882Y0273081D01*
X0474882Y0272082D02*
X0615762Y0272082D01*
X0615762Y0271084D02*
X0474882Y0271084D01*
X0474882Y0270085D02*
X0615762Y0270085D01*
X0615762Y0269087D02*
X0474882Y0269087D01*
X0474882Y0268088D02*
X0615762Y0268088D01*
X0615762Y0267090D02*
X0474882Y0267090D01*
X0474882Y0266091D02*
X0615762Y0266091D01*
X0615762Y0265093D02*
X0474882Y0265093D01*
X0475498Y0264094D02*
X0615762Y0264094D01*
X0615762Y0263096D02*
X0475869Y0263096D01*
X0475869Y0262097D02*
X0615762Y0262097D01*
X0615762Y0261099D02*
X0475508Y0261099D01*
X0474664Y0260100D02*
X0615762Y0260100D01*
X0615762Y0259102D02*
X0533896Y0259102D01*
X0534894Y0258103D02*
X0615762Y0258103D01*
X0615762Y0257105D02*
X0535893Y0257105D01*
X0536891Y0256106D02*
X0615762Y0256106D01*
X0615762Y0255108D02*
X0537890Y0255108D01*
X0538888Y0254109D02*
X0615762Y0254109D01*
X0615762Y0253111D02*
X0539585Y0253111D01*
X0539585Y0252112D02*
X0615762Y0252112D01*
X0615762Y0251114D02*
X0539585Y0251114D01*
X0539585Y0250115D02*
X0615762Y0250115D01*
X0615762Y0249117D02*
X0539585Y0249117D01*
X0539585Y0248118D02*
X0615762Y0248118D01*
X0615762Y0247120D02*
X0539585Y0247120D01*
X0539585Y0246121D02*
X0615762Y0246121D01*
X0615762Y0245123D02*
X0539585Y0245123D01*
X0539585Y0244124D02*
X0615762Y0244124D01*
X0615762Y0243126D02*
X0539585Y0243126D01*
X0539585Y0242127D02*
X0615762Y0242127D01*
X0615762Y0241129D02*
X0539585Y0241129D01*
X0539585Y0240130D02*
X0615762Y0240130D01*
X0615762Y0239132D02*
X0539585Y0239132D01*
X0539585Y0238133D02*
X0615762Y0238133D01*
X0615762Y0237135D02*
X0539585Y0237135D01*
X0539585Y0236136D02*
X0615762Y0236136D01*
X0615762Y0235138D02*
X0539585Y0235138D01*
X0539585Y0234139D02*
X0615762Y0234139D01*
X0615762Y0233141D02*
X0539585Y0233141D01*
X0539585Y0232142D02*
X0615762Y0232142D01*
X0615762Y0231144D02*
X0539585Y0231144D01*
X0539688Y0230145D02*
X0615762Y0230145D01*
X0615762Y0229147D02*
X0539611Y0229147D01*
X0539168Y0228148D02*
X0615762Y0228148D01*
X0615762Y0227149D02*
X0537916Y0227149D01*
X0535285Y0227149D02*
X0387026Y0227149D01*
X0387026Y0226151D02*
X0418203Y0226151D01*
X0417841Y0225790D02*
X0417371Y0224655D01*
X0417371Y0223427D01*
X0417841Y0222292D01*
X0418200Y0221934D01*
X0417726Y0221737D01*
X0416857Y0220869D01*
X0416387Y0219734D01*
X0416387Y0218506D01*
X0416857Y0217371D01*
X0416942Y0217286D01*
X0415908Y0217286D01*
X0414773Y0216816D01*
X0413904Y0215947D01*
X0413434Y0214813D01*
X0413434Y0213584D01*
X0413904Y0212450D01*
X0414522Y0211832D01*
X0414522Y0191716D01*
X0415693Y0190545D01*
X0416490Y0189748D01*
X0417662Y0188576D01*
X0448867Y0188576D01*
X0448867Y0187994D01*
X0449338Y0186859D01*
X0450206Y0185991D01*
X0451341Y0185520D01*
X0452569Y0185520D01*
X0453704Y0185991D01*
X0454572Y0186859D01*
X0455042Y0187994D01*
X0455042Y0189222D01*
X0454572Y0190357D01*
X0453704Y0191225D01*
X0452569Y0191695D01*
X0451696Y0191695D01*
X0450878Y0192513D01*
X0462937Y0192513D01*
X0466584Y0188867D01*
X0466584Y0187994D01*
X0467054Y0186859D01*
X0467923Y0185991D01*
X0469057Y0185520D01*
X0470286Y0185520D01*
X0471420Y0185991D01*
X0472289Y0186859D01*
X0472759Y0187994D01*
X0472759Y0189222D01*
X0472289Y0190357D01*
X0471420Y0191225D01*
X0470286Y0191695D01*
X0469412Y0191695D01*
X0466626Y0194482D01*
X0527586Y0194482D01*
X0528468Y0195363D01*
X0529341Y0195363D01*
X0530475Y0195833D01*
X0531344Y0196702D01*
X0531814Y0197836D01*
X0531814Y0199065D01*
X0531344Y0200199D01*
X0530475Y0201068D01*
X0529341Y0201538D01*
X0528112Y0201538D01*
X0526978Y0201068D01*
X0526109Y0200199D01*
X0525639Y0199065D01*
X0525639Y0198482D01*
X0430146Y0198482D01*
X0426396Y0202232D01*
X0426396Y0220932D01*
X0425224Y0222104D01*
X0423546Y0223782D01*
X0423546Y0224655D01*
X0423076Y0225790D01*
X0422208Y0226658D01*
X0421073Y0227128D01*
X0419845Y0227128D01*
X0418710Y0226658D01*
X0417841Y0225790D01*
X0417577Y0225152D02*
X0387026Y0225152D01*
X0387026Y0224154D02*
X0417371Y0224154D01*
X0417484Y0223155D02*
X0387026Y0223155D01*
X0387026Y0222157D02*
X0417977Y0222157D01*
X0417147Y0221158D02*
X0387026Y0221158D01*
X0387026Y0220160D02*
X0416564Y0220160D01*
X0416387Y0219161D02*
X0387026Y0219161D01*
X0387026Y0218163D02*
X0416529Y0218163D01*
X0415614Y0217164D02*
X0387026Y0217164D01*
X0387026Y0216166D02*
X0414123Y0216166D01*
X0413581Y0215167D02*
X0387026Y0215167D01*
X0387026Y0214169D02*
X0413434Y0214169D01*
X0413606Y0213170D02*
X0387026Y0213170D01*
X0387026Y0212172D02*
X0414182Y0212172D01*
X0414522Y0211173D02*
X0387026Y0211173D01*
X0387026Y0210175D02*
X0414522Y0210175D01*
X0414522Y0209176D02*
X0387026Y0209176D01*
X0387026Y0208178D02*
X0414522Y0208178D01*
X0414522Y0207179D02*
X0387026Y0207179D01*
X0387026Y0206181D02*
X0414522Y0206181D01*
X0414522Y0205182D02*
X0387026Y0205182D01*
X0387026Y0204184D02*
X0414522Y0204184D01*
X0414522Y0203185D02*
X0387026Y0203185D01*
X0387026Y0202187D02*
X0414522Y0202187D01*
X0414522Y0201188D02*
X0387026Y0201188D01*
X0387026Y0200190D02*
X0414522Y0200190D01*
X0414522Y0199191D02*
X0387026Y0199191D01*
X0387026Y0198193D02*
X0414522Y0198193D01*
X0414522Y0197194D02*
X0387026Y0197194D01*
X0387026Y0196196D02*
X0414522Y0196196D01*
X0414522Y0195197D02*
X0387026Y0195197D01*
X0387026Y0194199D02*
X0414522Y0194199D01*
X0414522Y0193200D02*
X0387026Y0193200D01*
X0387026Y0192202D02*
X0414522Y0192202D01*
X0415035Y0191203D02*
X0387026Y0191203D01*
X0387026Y0190205D02*
X0416034Y0190205D01*
X0417032Y0189206D02*
X0387026Y0189206D01*
X0387026Y0188208D02*
X0448867Y0188208D01*
X0449193Y0187209D02*
X0387026Y0187209D01*
X0387026Y0186211D02*
X0449986Y0186211D01*
X0451955Y0188608D02*
X0449986Y0190576D01*
X0418490Y0190576D01*
X0416522Y0192545D01*
X0416522Y0214198D01*
X0419438Y0213170D02*
X0419443Y0213170D01*
X0419443Y0213183D02*
X0419443Y0196638D01*
X0420615Y0195466D01*
X0422396Y0193685D01*
X0423504Y0192576D01*
X0419319Y0192576D01*
X0418522Y0193373D01*
X0418522Y0211832D01*
X0419139Y0212450D01*
X0419443Y0213183D01*
X0419443Y0212172D02*
X0418861Y0212172D01*
X0418522Y0211173D02*
X0419443Y0211173D01*
X0419443Y0210175D02*
X0418522Y0210175D01*
X0418522Y0209176D02*
X0419443Y0209176D01*
X0419443Y0208178D02*
X0418522Y0208178D01*
X0418522Y0207179D02*
X0419443Y0207179D01*
X0419443Y0206181D02*
X0418522Y0206181D01*
X0418522Y0205182D02*
X0419443Y0205182D01*
X0419443Y0204184D02*
X0418522Y0204184D01*
X0418522Y0203185D02*
X0419443Y0203185D01*
X0419443Y0202187D02*
X0418522Y0202187D01*
X0418522Y0201188D02*
X0419443Y0201188D01*
X0419443Y0200190D02*
X0418522Y0200190D01*
X0418522Y0199191D02*
X0419443Y0199191D01*
X0419443Y0198193D02*
X0418522Y0198193D01*
X0418522Y0197194D02*
X0419443Y0197194D01*
X0419885Y0196196D02*
X0418522Y0196196D01*
X0418522Y0195197D02*
X0420884Y0195197D01*
X0421882Y0194199D02*
X0418522Y0194199D01*
X0418695Y0193200D02*
X0422881Y0193200D01*
X0424396Y0194513D02*
X0463766Y0194513D01*
X0469671Y0188608D01*
X0466909Y0187209D02*
X0454717Y0187209D01*
X0455042Y0188208D02*
X0466584Y0188208D01*
X0466245Y0189206D02*
X0455042Y0189206D01*
X0454635Y0190205D02*
X0465246Y0190205D01*
X0464248Y0191203D02*
X0453726Y0191203D01*
X0451190Y0192202D02*
X0463249Y0192202D01*
X0466909Y0194199D02*
X0615762Y0194199D01*
X0615762Y0195197D02*
X0528302Y0195197D01*
X0526758Y0196482D02*
X0528727Y0198450D01*
X0526758Y0196482D02*
X0429317Y0196482D01*
X0424396Y0201403D01*
X0424396Y0220104D01*
X0420459Y0224041D01*
X0423340Y0225152D02*
X0615762Y0225152D01*
X0615762Y0224154D02*
X0423546Y0224154D01*
X0424173Y0223155D02*
X0615762Y0223155D01*
X0615762Y0222157D02*
X0425171Y0222157D01*
X0426170Y0221158D02*
X0615762Y0221158D01*
X0615762Y0220160D02*
X0426396Y0220160D01*
X0426396Y0219161D02*
X0615762Y0219161D01*
X0615762Y0218163D02*
X0466956Y0218163D01*
X0466629Y0218298D02*
X0464998Y0218298D01*
X0463491Y0217674D01*
X0462337Y0216521D01*
X0461713Y0215014D01*
X0461713Y0213383D01*
X0462337Y0211876D01*
X0463491Y0210723D01*
X0464998Y0210098D01*
X0466629Y0210098D01*
X0468136Y0210723D01*
X0469289Y0211876D01*
X0469913Y0213383D01*
X0469913Y0215014D01*
X0469289Y0216521D01*
X0468136Y0217674D01*
X0466629Y0218298D01*
X0464670Y0218163D02*
X0456956Y0218163D01*
X0456629Y0218298D02*
X0454998Y0218298D01*
X0453491Y0217674D01*
X0452337Y0216521D01*
X0451713Y0215014D01*
X0451713Y0213383D01*
X0452337Y0211876D01*
X0453491Y0210723D01*
X0454998Y0210098D01*
X0456629Y0210098D01*
X0458136Y0210723D01*
X0459289Y0211876D01*
X0459913Y0213383D01*
X0459913Y0215014D01*
X0459289Y0216521D01*
X0458136Y0217674D01*
X0456629Y0218298D01*
X0454670Y0218163D02*
X0426396Y0218163D01*
X0426396Y0217164D02*
X0452981Y0217164D01*
X0452190Y0216166D02*
X0426396Y0216166D01*
X0426396Y0215167D02*
X0451777Y0215167D01*
X0451713Y0214169D02*
X0426396Y0214169D01*
X0426396Y0213170D02*
X0451801Y0213170D01*
X0452215Y0212172D02*
X0426396Y0212172D01*
X0426396Y0211173D02*
X0453040Y0211173D01*
X0454813Y0210175D02*
X0426396Y0210175D01*
X0426396Y0209176D02*
X0615762Y0209176D01*
X0615762Y0208178D02*
X0426396Y0208178D01*
X0426396Y0207179D02*
X0615762Y0207179D01*
X0615762Y0206181D02*
X0426396Y0206181D01*
X0426396Y0205182D02*
X0615762Y0205182D01*
X0615762Y0204184D02*
X0426396Y0204184D01*
X0426396Y0203185D02*
X0615762Y0203185D01*
X0615762Y0202187D02*
X0426441Y0202187D01*
X0427439Y0201188D02*
X0527268Y0201188D01*
X0526105Y0200190D02*
X0428438Y0200190D01*
X0429436Y0199191D02*
X0525692Y0199191D01*
X0530185Y0201188D02*
X0615762Y0201188D01*
X0615762Y0200190D02*
X0531348Y0200190D01*
X0531761Y0199191D02*
X0615762Y0199191D01*
X0615762Y0198193D02*
X0531814Y0198193D01*
X0531548Y0197194D02*
X0615762Y0197194D01*
X0615762Y0196196D02*
X0530838Y0196196D01*
X0534033Y0228148D02*
X0387026Y0228148D01*
X0387026Y0229147D02*
X0533590Y0229147D01*
X0533513Y0230145D02*
X0387026Y0230145D01*
X0387026Y0231144D02*
X0532195Y0231144D01*
X0531027Y0232142D02*
X0410135Y0232142D01*
X0410397Y0232250D02*
X0411014Y0232868D01*
X0461642Y0232868D01*
X0463610Y0234836D01*
X0464782Y0236008D01*
X0464782Y0239391D01*
X0465399Y0240009D01*
X0465869Y0241143D01*
X0465869Y0242372D01*
X0465399Y0243506D01*
X0464531Y0244375D01*
X0463396Y0244845D01*
X0462168Y0244845D01*
X0461033Y0244375D01*
X0460164Y0243506D01*
X0459694Y0242372D01*
X0459694Y0241143D01*
X0460164Y0240009D01*
X0460782Y0239391D01*
X0460782Y0237665D01*
X0459985Y0236868D01*
X0411014Y0236868D01*
X0410397Y0237485D01*
X0409262Y0237955D01*
X0408034Y0237955D01*
X0406899Y0237485D01*
X0406030Y0236617D01*
X0405560Y0235482D01*
X0405560Y0234254D01*
X0406030Y0233119D01*
X0406899Y0232250D01*
X0408034Y0231780D01*
X0409262Y0231780D01*
X0410397Y0232250D01*
X0408648Y0234868D02*
X0460813Y0234868D01*
X0462782Y0236836D01*
X0462782Y0241757D01*
X0465557Y0243126D02*
X0525442Y0243126D01*
X0525442Y0242127D02*
X0465869Y0242127D01*
X0465863Y0241129D02*
X0525775Y0241129D01*
X0526578Y0240130D02*
X0465449Y0240130D01*
X0464782Y0239132D02*
X0530664Y0239132D01*
X0530664Y0240130D02*
X0530481Y0240130D01*
X0530664Y0238133D02*
X0464782Y0238133D01*
X0464782Y0237135D02*
X0530664Y0237135D01*
X0530664Y0236136D02*
X0464782Y0236136D01*
X0463911Y0235138D02*
X0530664Y0235138D01*
X0530560Y0234139D02*
X0462913Y0234139D01*
X0461914Y0233141D02*
X0530614Y0233141D01*
X0532664Y0234868D02*
X0532664Y0252584D01*
X0529711Y0255537D01*
X0397821Y0255537D01*
X0395853Y0257506D01*
X0395853Y0272269D01*
X0390931Y0277191D01*
X0373215Y0277191D01*
X0371246Y0279159D01*
X0374334Y0279191D02*
X0374334Y0279773D01*
X0374176Y0280153D01*
X0374964Y0280479D01*
X0375581Y0281096D01*
X0388134Y0281096D01*
X0390040Y0279191D01*
X0374334Y0279191D01*
X0374210Y0280071D02*
X0389160Y0280071D01*
X0388161Y0281069D02*
X0375554Y0281069D01*
X0373215Y0283096D02*
X0388963Y0283096D01*
X0397821Y0274238D01*
X0397821Y0258490D01*
X0398805Y0257506D01*
X0532664Y0257506D01*
X0537585Y0252584D01*
X0537585Y0230931D01*
X0536601Y0229946D01*
X0533648Y0233883D02*
X0532664Y0234868D01*
X0534664Y0236804D02*
X0534664Y0252677D01*
X0535585Y0251756D01*
X0535585Y0236313D01*
X0535397Y0236501D01*
X0534664Y0236804D01*
X0534664Y0237135D02*
X0535585Y0237135D01*
X0535585Y0238133D02*
X0534664Y0238133D01*
X0534664Y0239132D02*
X0535585Y0239132D01*
X0535585Y0240130D02*
X0534664Y0240130D01*
X0534664Y0241129D02*
X0535585Y0241129D01*
X0535585Y0242127D02*
X0534664Y0242127D01*
X0534664Y0243126D02*
X0535585Y0243126D01*
X0535585Y0244124D02*
X0534664Y0244124D01*
X0534664Y0245123D02*
X0535585Y0245123D01*
X0535585Y0246121D02*
X0534664Y0246121D01*
X0534664Y0247120D02*
X0535585Y0247120D01*
X0535585Y0248118D02*
X0534664Y0248118D01*
X0534664Y0249117D02*
X0535585Y0249117D01*
X0535585Y0250115D02*
X0534664Y0250115D01*
X0534664Y0251114D02*
X0535585Y0251114D01*
X0535228Y0252112D02*
X0534664Y0252112D01*
X0530664Y0249171D02*
X0530664Y0244777D01*
X0530279Y0245162D01*
X0529144Y0245632D01*
X0528664Y0245632D01*
X0522728Y0251569D01*
X0524945Y0251569D01*
X0525245Y0251268D01*
X0525245Y0250592D01*
X0525715Y0249457D01*
X0526584Y0248589D01*
X0527719Y0248119D01*
X0528947Y0248119D01*
X0530082Y0248589D01*
X0530664Y0249171D01*
X0530664Y0249117D02*
X0530609Y0249117D01*
X0530664Y0248118D02*
X0526178Y0248118D01*
X0526056Y0249117D02*
X0525180Y0249117D01*
X0525443Y0250115D02*
X0524181Y0250115D01*
X0523183Y0251114D02*
X0525245Y0251114D01*
X0525774Y0253569D02*
X0396837Y0253569D01*
X0393884Y0256521D01*
X0393884Y0271285D01*
X0389947Y0275222D01*
X0368293Y0275222D01*
X0367309Y0276206D01*
X0366160Y0279072D02*
X0306317Y0279072D01*
X0306317Y0278074D02*
X0364810Y0278074D01*
X0364327Y0277075D02*
X0306317Y0277075D01*
X0306317Y0276077D02*
X0364222Y0276077D01*
X0364054Y0275078D02*
X0306317Y0275078D01*
X0306317Y0274080D02*
X0362785Y0274080D01*
X0362335Y0273081D02*
X0306317Y0273081D01*
X0306317Y0272082D02*
X0362253Y0272082D01*
X0362490Y0271084D02*
X0306317Y0271084D01*
X0306317Y0270085D02*
X0363158Y0270085D01*
X0365341Y0272269D02*
X0389947Y0272269D01*
X0391916Y0270301D01*
X0391916Y0255537D01*
X0395853Y0251600D01*
X0519868Y0251600D01*
X0528530Y0242939D01*
X0528530Y0242545D01*
X0530318Y0245123D02*
X0530664Y0245123D01*
X0530664Y0246121D02*
X0528175Y0246121D01*
X0527177Y0247120D02*
X0530664Y0247120D01*
X0528333Y0251206D02*
X0528136Y0251206D01*
X0525774Y0253569D01*
X0519523Y0249117D02*
X0387765Y0249117D01*
X0388113Y0248118D02*
X0520522Y0248118D01*
X0521520Y0247120D02*
X0388113Y0247120D01*
X0387729Y0246121D02*
X0522519Y0246121D01*
X0523517Y0245123D02*
X0387026Y0245123D01*
X0387026Y0244124D02*
X0460782Y0244124D01*
X0460007Y0243126D02*
X0387026Y0243126D01*
X0387026Y0242127D02*
X0459694Y0242127D01*
X0459700Y0241129D02*
X0387026Y0241129D01*
X0387026Y0240130D02*
X0460114Y0240130D01*
X0460782Y0239132D02*
X0387026Y0239132D01*
X0387026Y0238133D02*
X0460782Y0238133D01*
X0460252Y0237135D02*
X0410747Y0237135D01*
X0406548Y0237135D02*
X0387026Y0237135D01*
X0387026Y0236136D02*
X0405831Y0236136D01*
X0405560Y0235138D02*
X0387026Y0235138D01*
X0387026Y0234139D02*
X0405608Y0234139D01*
X0406021Y0233141D02*
X0387026Y0233141D01*
X0387026Y0232142D02*
X0407160Y0232142D01*
X0422715Y0226151D02*
X0615762Y0226151D01*
X0615762Y0217164D02*
X0468645Y0217164D01*
X0469436Y0216166D02*
X0615762Y0216166D01*
X0615762Y0215167D02*
X0469850Y0215167D01*
X0469913Y0214169D02*
X0615762Y0214169D01*
X0615762Y0213170D02*
X0469825Y0213170D01*
X0469411Y0212172D02*
X0615762Y0212172D01*
X0615762Y0211173D02*
X0468586Y0211173D01*
X0466813Y0210175D02*
X0615762Y0210175D01*
X0615762Y0193200D02*
X0467908Y0193200D01*
X0468906Y0192202D02*
X0615762Y0192202D01*
X0615762Y0191203D02*
X0471442Y0191203D01*
X0472352Y0190205D02*
X0615762Y0190205D01*
X0615762Y0189206D02*
X0472759Y0189206D01*
X0472759Y0188208D02*
X0615762Y0188208D01*
X0615762Y0187209D02*
X0472434Y0187209D01*
X0471640Y0186211D02*
X0615762Y0186211D01*
X0615762Y0185212D02*
X0387026Y0185212D01*
X0387026Y0184213D02*
X0615762Y0184213D01*
X0615762Y0183215D02*
X0387026Y0183215D01*
X0387026Y0182216D02*
X0615762Y0182216D01*
X0615762Y0181218D02*
X0387026Y0181218D01*
X0387026Y0180219D02*
X0615762Y0180219D01*
X0615762Y0179221D02*
X0387026Y0179221D01*
X0387026Y0178222D02*
X0615762Y0178222D01*
X0615762Y0177224D02*
X0387026Y0177224D01*
X0387026Y0176225D02*
X0615762Y0176225D01*
X0615762Y0175227D02*
X0387026Y0175227D01*
X0387026Y0174228D02*
X0615762Y0174228D01*
X0615762Y0173230D02*
X0387026Y0173230D01*
X0387026Y0172231D02*
X0615762Y0172231D01*
X0615762Y0171233D02*
X0387026Y0171233D01*
X0387026Y0170234D02*
X0615762Y0170234D01*
X0615762Y0169236D02*
X0387110Y0169236D01*
X0387836Y0168237D02*
X0615762Y0168237D01*
X0615762Y0167239D02*
X0388113Y0167239D01*
X0388072Y0166240D02*
X0615762Y0166240D01*
X0615762Y0165242D02*
X0532837Y0165242D01*
X0532566Y0165354D02*
X0530478Y0165354D01*
X0528548Y0164555D01*
X0527071Y0163078D01*
X0526272Y0161148D01*
X0526272Y0159060D01*
X0527071Y0157130D01*
X0528548Y0155653D01*
X0530478Y0154854D01*
X0532566Y0154854D01*
X0534496Y0155653D01*
X0535973Y0157130D01*
X0536772Y0159060D01*
X0536772Y0161148D01*
X0535973Y0163078D01*
X0534496Y0164555D01*
X0532566Y0165354D01*
X0530207Y0165242D02*
X0489530Y0165242D01*
X0490222Y0164243D02*
X0528237Y0164243D01*
X0527238Y0163245D02*
X0490475Y0163245D01*
X0490410Y0162246D02*
X0526727Y0162246D01*
X0526313Y0161248D02*
X0489985Y0161248D01*
X0488773Y0160249D02*
X0526272Y0160249D01*
X0526272Y0159251D02*
X0486109Y0159251D01*
X0486003Y0160249D02*
X0485110Y0160249D01*
X0485419Y0157112D02*
X0501167Y0157112D01*
X0502152Y0156128D01*
X0505027Y0157254D02*
X0527020Y0157254D01*
X0526606Y0158252D02*
X0504393Y0158252D01*
X0505239Y0156255D02*
X0527946Y0156255D01*
X0529505Y0155257D02*
X0505133Y0155257D01*
X0504649Y0154258D02*
X0615762Y0154258D01*
X0615762Y0153260D02*
X0503296Y0153260D01*
X0501008Y0153260D02*
X0149821Y0153260D01*
X0149821Y0154258D02*
X0499655Y0154258D01*
X0485419Y0157112D02*
X0481482Y0161049D01*
X0435223Y0161049D01*
X0306286Y0161049D01*
X0302349Y0164986D01*
X0302349Y0297860D01*
X0300380Y0299828D01*
X0297540Y0301039D02*
X0219703Y0301039D01*
X0219703Y0300041D02*
X0297293Y0300041D01*
X0297364Y0299042D02*
X0219703Y0299042D01*
X0219703Y0298044D02*
X0297798Y0298044D01*
X0299031Y0297045D02*
X0219703Y0297045D01*
X0219703Y0296047D02*
X0300349Y0296047D01*
X0300349Y0295048D02*
X0219703Y0295048D01*
X0219703Y0294050D02*
X0300349Y0294050D01*
X0300349Y0293051D02*
X0219703Y0293051D01*
X0219703Y0292053D02*
X0300349Y0292053D01*
X0300349Y0291054D02*
X0219703Y0291054D01*
X0219703Y0290056D02*
X0300349Y0290056D01*
X0300349Y0289057D02*
X0219703Y0289057D01*
X0219703Y0288059D02*
X0300349Y0288059D01*
X0300349Y0287060D02*
X0219703Y0287060D01*
X0219703Y0286062D02*
X0300349Y0286062D01*
X0300349Y0285063D02*
X0219703Y0285063D01*
X0219703Y0284065D02*
X0300349Y0284065D01*
X0300349Y0283066D02*
X0219703Y0283066D01*
X0219703Y0282068D02*
X0300349Y0282068D01*
X0300349Y0281069D02*
X0219703Y0281069D01*
X0219703Y0280071D02*
X0300349Y0280071D01*
X0300349Y0279072D02*
X0219460Y0279072D01*
X0218822Y0278074D02*
X0300349Y0278074D01*
X0300349Y0277075D02*
X0218621Y0277075D01*
X0218002Y0276077D02*
X0300349Y0276077D01*
X0300349Y0275078D02*
X0213797Y0275078D01*
X0213483Y0274080D02*
X0300349Y0274080D01*
X0300349Y0273081D02*
X0212692Y0273081D01*
X0212040Y0272082D02*
X0300349Y0272082D01*
X0300349Y0271084D02*
X0290978Y0271084D01*
X0292166Y0270085D02*
X0300349Y0270085D01*
X0300349Y0269087D02*
X0292582Y0269087D01*
X0292641Y0268088D02*
X0300349Y0268088D01*
X0300349Y0267090D02*
X0292380Y0267090D01*
X0291679Y0266091D02*
X0300349Y0266091D01*
X0300349Y0265093D02*
X0291553Y0265093D01*
X0291553Y0264094D02*
X0300349Y0264094D01*
X0300349Y0263096D02*
X0291553Y0263096D01*
X0291553Y0262097D02*
X0300349Y0262097D01*
X0300349Y0261099D02*
X0291553Y0261099D01*
X0291553Y0260100D02*
X0300349Y0260100D01*
X0300349Y0259102D02*
X0291553Y0259102D01*
X0291553Y0258103D02*
X0300349Y0258103D01*
X0300349Y0257105D02*
X0291553Y0257105D01*
X0291553Y0256106D02*
X0300349Y0256106D01*
X0300349Y0255108D02*
X0291553Y0255108D01*
X0291553Y0254109D02*
X0300349Y0254109D01*
X0300349Y0253111D02*
X0291553Y0253111D01*
X0291553Y0252112D02*
X0300349Y0252112D01*
X0300349Y0251114D02*
X0291553Y0251114D01*
X0291553Y0250115D02*
X0300349Y0250115D01*
X0300349Y0249117D02*
X0291553Y0249117D01*
X0291553Y0248118D02*
X0300349Y0248118D01*
X0300349Y0247120D02*
X0291553Y0247120D01*
X0291553Y0246121D02*
X0300349Y0246121D01*
X0300349Y0245123D02*
X0291553Y0245123D01*
X0291553Y0244124D02*
X0300349Y0244124D01*
X0300349Y0243126D02*
X0291553Y0243126D01*
X0291553Y0242127D02*
X0300349Y0242127D01*
X0300349Y0241129D02*
X0291553Y0241129D01*
X0291553Y0240130D02*
X0300349Y0240130D01*
X0300349Y0239132D02*
X0291553Y0239132D01*
X0291553Y0238133D02*
X0300349Y0238133D01*
X0300349Y0237135D02*
X0291553Y0237135D01*
X0291553Y0236136D02*
X0300349Y0236136D01*
X0300349Y0235138D02*
X0291553Y0235138D01*
X0291553Y0234139D02*
X0300349Y0234139D01*
X0300349Y0233141D02*
X0291553Y0233141D01*
X0291553Y0232142D02*
X0300349Y0232142D01*
X0300349Y0231144D02*
X0291553Y0231144D01*
X0291553Y0230145D02*
X0300349Y0230145D01*
X0300349Y0229147D02*
X0291553Y0229147D01*
X0291553Y0228148D02*
X0292247Y0228148D01*
X0291605Y0227149D02*
X0291553Y0227149D01*
X0291553Y0224994D02*
X0291553Y0186670D01*
X0291857Y0187404D01*
X0292475Y0188021D01*
X0292475Y0223643D01*
X0291857Y0224261D01*
X0291553Y0224994D01*
X0291553Y0224154D02*
X0291964Y0224154D01*
X0291553Y0223155D02*
X0292475Y0223155D01*
X0292475Y0222157D02*
X0291553Y0222157D01*
X0291553Y0221158D02*
X0292475Y0221158D01*
X0292475Y0220160D02*
X0291553Y0220160D01*
X0291553Y0219161D02*
X0292475Y0219161D01*
X0292475Y0218163D02*
X0291553Y0218163D01*
X0291553Y0217164D02*
X0292475Y0217164D01*
X0292475Y0216166D02*
X0291553Y0216166D01*
X0291553Y0215167D02*
X0292475Y0215167D01*
X0292475Y0214169D02*
X0291553Y0214169D01*
X0291553Y0213170D02*
X0292475Y0213170D01*
X0292475Y0212172D02*
X0291553Y0212172D01*
X0291553Y0211173D02*
X0292475Y0211173D01*
X0292475Y0210175D02*
X0291553Y0210175D01*
X0291553Y0209176D02*
X0292475Y0209176D01*
X0292475Y0208178D02*
X0291553Y0208178D01*
X0291553Y0207179D02*
X0292475Y0207179D01*
X0292475Y0206181D02*
X0291553Y0206181D01*
X0291553Y0205182D02*
X0292475Y0205182D01*
X0292475Y0204184D02*
X0291553Y0204184D01*
X0291553Y0203185D02*
X0292475Y0203185D01*
X0292475Y0202187D02*
X0291553Y0202187D01*
X0291553Y0201188D02*
X0292475Y0201188D01*
X0292475Y0200190D02*
X0291553Y0200190D01*
X0291553Y0199191D02*
X0292475Y0199191D01*
X0292475Y0198193D02*
X0291553Y0198193D01*
X0291553Y0197194D02*
X0292475Y0197194D01*
X0292475Y0196196D02*
X0291553Y0196196D01*
X0291553Y0195197D02*
X0292475Y0195197D01*
X0292475Y0194199D02*
X0291553Y0194199D01*
X0291553Y0193200D02*
X0292475Y0193200D01*
X0292475Y0192202D02*
X0291553Y0192202D01*
X0291553Y0191203D02*
X0292475Y0191203D01*
X0292475Y0190205D02*
X0291553Y0190205D01*
X0291553Y0189206D02*
X0292475Y0189206D01*
X0292475Y0188208D02*
X0291553Y0188208D01*
X0291553Y0187209D02*
X0291776Y0187209D01*
X0291553Y0184640D02*
X0291857Y0183906D01*
X0292726Y0183038D01*
X0293860Y0182568D01*
X0295089Y0182568D01*
X0296223Y0183038D01*
X0296412Y0183226D01*
X0296412Y0183100D01*
X0295794Y0182483D01*
X0295324Y0181348D01*
X0295324Y0180120D01*
X0295794Y0178985D01*
X0296663Y0178116D01*
X0297797Y0177646D01*
X0299026Y0177646D01*
X0300160Y0178116D01*
X0300349Y0178305D01*
X0300349Y0164157D01*
X0303426Y0161080D01*
X0296287Y0161080D01*
X0291553Y0165814D01*
X0291553Y0184640D01*
X0291553Y0184213D02*
X0291730Y0184213D01*
X0291553Y0183215D02*
X0292548Y0183215D01*
X0291553Y0182216D02*
X0295684Y0182216D01*
X0295324Y0181218D02*
X0291553Y0181218D01*
X0291553Y0180219D02*
X0295324Y0180219D01*
X0295696Y0179221D02*
X0291553Y0179221D01*
X0291553Y0178222D02*
X0296557Y0178222D01*
X0298412Y0180734D02*
X0298412Y0222072D01*
X0299044Y0225152D02*
X0300349Y0225152D01*
X0300349Y0226151D02*
X0297562Y0226151D01*
X0297461Y0225152D02*
X0297780Y0225152D01*
X0297344Y0227149D02*
X0300349Y0227149D01*
X0300349Y0228148D02*
X0296702Y0228148D01*
X0294475Y0226009D02*
X0294475Y0185655D01*
X0296401Y0183215D02*
X0296412Y0183215D01*
X0300266Y0178222D02*
X0300349Y0178222D01*
X0300349Y0177224D02*
X0291553Y0177224D01*
X0291553Y0176225D02*
X0300349Y0176225D01*
X0300349Y0175227D02*
X0291553Y0175227D01*
X0291553Y0174228D02*
X0300349Y0174228D01*
X0300349Y0173230D02*
X0291553Y0173230D01*
X0291553Y0172231D02*
X0300349Y0172231D01*
X0300349Y0171233D02*
X0291553Y0171233D01*
X0291553Y0170234D02*
X0300349Y0170234D01*
X0300349Y0169236D02*
X0291553Y0169236D01*
X0291553Y0168237D02*
X0300349Y0168237D01*
X0300349Y0167239D02*
X0291553Y0167239D01*
X0291553Y0166240D02*
X0300349Y0166240D01*
X0300349Y0165242D02*
X0292126Y0165242D01*
X0293124Y0164243D02*
X0300349Y0164243D01*
X0301261Y0163245D02*
X0294123Y0163245D01*
X0295121Y0162246D02*
X0302260Y0162246D01*
X0303258Y0161248D02*
X0296120Y0161248D01*
X0295459Y0159080D02*
X0427349Y0159080D01*
X0428333Y0158096D01*
X0429546Y0155257D02*
X0484446Y0155257D01*
X0483448Y0156255D02*
X0430858Y0156255D01*
X0431326Y0157254D02*
X0482449Y0157254D01*
X0481451Y0158252D02*
X0431420Y0158252D01*
X0433254Y0163017D02*
X0487388Y0163017D01*
X0485246Y0165242D02*
X0387658Y0165242D01*
X0385026Y0166954D02*
X0385026Y0247663D01*
X0382104Y0246648D02*
X0382408Y0245914D01*
X0383026Y0245297D01*
X0383026Y0169321D01*
X0382408Y0168703D01*
X0382104Y0167970D01*
X0382104Y0168767D01*
X0382104Y0246648D01*
X0382104Y0246121D02*
X0382323Y0246121D01*
X0382104Y0245123D02*
X0383026Y0245123D01*
X0383026Y0244124D02*
X0382104Y0244124D01*
X0382104Y0243126D02*
X0383026Y0243126D01*
X0383026Y0242127D02*
X0382104Y0242127D01*
X0382104Y0241129D02*
X0383026Y0241129D01*
X0383026Y0240130D02*
X0382104Y0240130D01*
X0382104Y0239132D02*
X0383026Y0239132D01*
X0383026Y0238133D02*
X0382104Y0238133D01*
X0382104Y0237135D02*
X0383026Y0237135D01*
X0383026Y0236136D02*
X0382104Y0236136D01*
X0382104Y0235138D02*
X0383026Y0235138D01*
X0383026Y0234139D02*
X0382104Y0234139D01*
X0382104Y0233141D02*
X0383026Y0233141D01*
X0383026Y0232142D02*
X0382104Y0232142D01*
X0382104Y0231144D02*
X0383026Y0231144D01*
X0383026Y0230145D02*
X0382104Y0230145D01*
X0382104Y0229147D02*
X0383026Y0229147D01*
X0383026Y0228148D02*
X0382104Y0228148D01*
X0382104Y0227149D02*
X0383026Y0227149D01*
X0383026Y0226151D02*
X0382104Y0226151D01*
X0382104Y0225152D02*
X0383026Y0225152D01*
X0383026Y0224154D02*
X0382104Y0224154D01*
X0382104Y0223155D02*
X0383026Y0223155D01*
X0383026Y0222157D02*
X0382104Y0222157D01*
X0382104Y0221158D02*
X0383026Y0221158D01*
X0383026Y0220160D02*
X0382104Y0220160D01*
X0382104Y0219161D02*
X0383026Y0219161D01*
X0383026Y0218163D02*
X0382104Y0218163D01*
X0382104Y0217164D02*
X0383026Y0217164D01*
X0383026Y0216166D02*
X0382104Y0216166D01*
X0382104Y0215167D02*
X0383026Y0215167D01*
X0383026Y0214169D02*
X0382104Y0214169D01*
X0382104Y0213170D02*
X0383026Y0213170D01*
X0383026Y0212172D02*
X0382104Y0212172D01*
X0382104Y0211173D02*
X0383026Y0211173D01*
X0383026Y0210175D02*
X0382104Y0210175D01*
X0382104Y0209176D02*
X0383026Y0209176D01*
X0383026Y0208178D02*
X0382104Y0208178D01*
X0382104Y0207179D02*
X0383026Y0207179D01*
X0383026Y0206181D02*
X0382104Y0206181D01*
X0382104Y0205182D02*
X0383026Y0205182D01*
X0383026Y0204184D02*
X0382104Y0204184D01*
X0382104Y0203185D02*
X0383026Y0203185D01*
X0383026Y0202187D02*
X0382104Y0202187D01*
X0382104Y0201188D02*
X0383026Y0201188D01*
X0383026Y0200190D02*
X0382104Y0200190D01*
X0382104Y0199191D02*
X0383026Y0199191D01*
X0383026Y0198193D02*
X0382104Y0198193D01*
X0382104Y0197194D02*
X0383026Y0197194D01*
X0383026Y0196196D02*
X0382104Y0196196D01*
X0382104Y0195197D02*
X0383026Y0195197D01*
X0383026Y0194199D02*
X0382104Y0194199D01*
X0382104Y0193200D02*
X0383026Y0193200D01*
X0383026Y0192202D02*
X0382104Y0192202D01*
X0382104Y0191203D02*
X0383026Y0191203D01*
X0383026Y0190205D02*
X0382104Y0190205D01*
X0382104Y0189206D02*
X0383026Y0189206D01*
X0383026Y0188208D02*
X0382104Y0188208D01*
X0382104Y0187209D02*
X0383026Y0187209D01*
X0383026Y0186211D02*
X0382104Y0186211D01*
X0382104Y0185212D02*
X0383026Y0185212D01*
X0383026Y0184213D02*
X0382104Y0184213D01*
X0382104Y0183215D02*
X0383026Y0183215D01*
X0383026Y0182216D02*
X0382104Y0182216D01*
X0382104Y0181218D02*
X0383026Y0181218D01*
X0383026Y0180219D02*
X0382104Y0180219D01*
X0382104Y0179221D02*
X0383026Y0179221D01*
X0383026Y0178222D02*
X0382104Y0178222D01*
X0382104Y0177224D02*
X0383026Y0177224D01*
X0383026Y0176225D02*
X0382104Y0176225D01*
X0382104Y0175227D02*
X0383026Y0175227D01*
X0383026Y0174228D02*
X0382104Y0174228D01*
X0382104Y0173230D02*
X0383026Y0173230D01*
X0383026Y0172231D02*
X0382104Y0172231D01*
X0382104Y0171233D02*
X0383026Y0171233D01*
X0383026Y0170234D02*
X0382104Y0170234D01*
X0382104Y0169236D02*
X0382941Y0169236D01*
X0382215Y0168237D02*
X0382104Y0168237D01*
X0380104Y0167939D02*
X0379120Y0166954D01*
X0380104Y0167939D02*
X0380104Y0249631D01*
X0382832Y0251114D02*
X0393510Y0251114D01*
X0392512Y0252112D02*
X0381990Y0252112D01*
X0381865Y0253111D02*
X0391513Y0253111D01*
X0390515Y0254109D02*
X0382208Y0254109D01*
X0382208Y0255108D02*
X0389916Y0255108D01*
X0389916Y0256106D02*
X0381819Y0256106D01*
X0380934Y0257105D02*
X0389916Y0257105D01*
X0389916Y0258103D02*
X0379926Y0258103D01*
X0380239Y0259102D02*
X0389916Y0259102D01*
X0389916Y0260100D02*
X0380234Y0260100D01*
X0379820Y0261099D02*
X0389916Y0261099D01*
X0389916Y0262097D02*
X0378886Y0262097D01*
X0377987Y0263096D02*
X0389916Y0263096D01*
X0389916Y0264094D02*
X0378271Y0264094D01*
X0378236Y0265093D02*
X0389916Y0265093D01*
X0389916Y0266091D02*
X0377822Y0266091D01*
X0376745Y0267090D02*
X0389916Y0267090D01*
X0389916Y0268088D02*
X0306317Y0268088D01*
X0306317Y0267090D02*
X0373621Y0267090D01*
X0372544Y0266091D02*
X0326583Y0266091D01*
X0326735Y0266028D02*
X0325601Y0266498D01*
X0324372Y0266498D01*
X0323238Y0266028D01*
X0322369Y0265160D01*
X0321899Y0264025D01*
X0321899Y0262797D01*
X0322286Y0261862D01*
X0322286Y0200000D01*
X0321899Y0199065D01*
X0321899Y0197836D01*
X0322369Y0196702D01*
X0323238Y0195833D01*
X0324372Y0195363D01*
X0325601Y0195363D01*
X0326735Y0195833D01*
X0327604Y0196702D01*
X0328074Y0197836D01*
X0328074Y0199065D01*
X0327686Y0200000D01*
X0327686Y0261862D01*
X0328074Y0262797D01*
X0328074Y0264025D01*
X0327604Y0265160D01*
X0326735Y0266028D01*
X0327631Y0265093D02*
X0372130Y0265093D01*
X0372054Y0264094D02*
X0328045Y0264094D01*
X0328074Y0263096D02*
X0371055Y0263096D01*
X0370057Y0262097D02*
X0327784Y0262097D01*
X0327686Y0261099D02*
X0369246Y0261099D01*
X0369246Y0260100D02*
X0327686Y0260100D01*
X0327686Y0259102D02*
X0369246Y0259102D01*
X0369246Y0258103D02*
X0327686Y0258103D01*
X0327686Y0257105D02*
X0369246Y0257105D01*
X0369246Y0256106D02*
X0327686Y0256106D01*
X0327686Y0255108D02*
X0369246Y0255108D01*
X0369246Y0254109D02*
X0327686Y0254109D01*
X0327686Y0253111D02*
X0369246Y0253111D01*
X0369246Y0252112D02*
X0327686Y0252112D01*
X0327686Y0251114D02*
X0369246Y0251114D01*
X0369246Y0250115D02*
X0327686Y0250115D01*
X0327686Y0249117D02*
X0369246Y0249117D01*
X0369246Y0248118D02*
X0327686Y0248118D01*
X0327686Y0247120D02*
X0369246Y0247120D01*
X0369246Y0246121D02*
X0327686Y0246121D01*
X0327686Y0245123D02*
X0369246Y0245123D01*
X0369246Y0244124D02*
X0327686Y0244124D01*
X0327686Y0243126D02*
X0369246Y0243126D01*
X0369246Y0242127D02*
X0327686Y0242127D01*
X0327686Y0241129D02*
X0369246Y0241129D01*
X0369246Y0240130D02*
X0327686Y0240130D01*
X0327686Y0239132D02*
X0369246Y0239132D01*
X0369246Y0238133D02*
X0327686Y0238133D01*
X0327686Y0237135D02*
X0369246Y0237135D01*
X0369246Y0236136D02*
X0327686Y0236136D01*
X0327686Y0235138D02*
X0369246Y0235138D01*
X0369246Y0234139D02*
X0327686Y0234139D01*
X0327686Y0233141D02*
X0369246Y0233141D01*
X0369246Y0232142D02*
X0327686Y0232142D01*
X0327686Y0231144D02*
X0369246Y0231144D01*
X0369246Y0230145D02*
X0327686Y0230145D01*
X0327686Y0229147D02*
X0369246Y0229147D01*
X0369246Y0228148D02*
X0327686Y0228148D01*
X0327686Y0227149D02*
X0369246Y0227149D01*
X0369246Y0226151D02*
X0327686Y0226151D01*
X0327686Y0225152D02*
X0369246Y0225152D01*
X0369246Y0224154D02*
X0327686Y0224154D01*
X0327686Y0223155D02*
X0369246Y0223155D01*
X0369246Y0222157D02*
X0327686Y0222157D01*
X0327686Y0221158D02*
X0369246Y0221158D01*
X0369246Y0220160D02*
X0327686Y0220160D01*
X0327686Y0219161D02*
X0369246Y0219161D01*
X0369246Y0218163D02*
X0327686Y0218163D01*
X0327686Y0217164D02*
X0369246Y0217164D01*
X0369246Y0216166D02*
X0327686Y0216166D01*
X0327686Y0215167D02*
X0369246Y0215167D01*
X0369246Y0214169D02*
X0327686Y0214169D01*
X0327686Y0213170D02*
X0369246Y0213170D01*
X0369246Y0212172D02*
X0327686Y0212172D01*
X0327686Y0211173D02*
X0369246Y0211173D01*
X0369246Y0210175D02*
X0327686Y0210175D01*
X0327686Y0209176D02*
X0369246Y0209176D01*
X0369246Y0208178D02*
X0327686Y0208178D01*
X0327686Y0207179D02*
X0369246Y0207179D01*
X0369246Y0206181D02*
X0327686Y0206181D01*
X0327686Y0205182D02*
X0369246Y0205182D01*
X0369246Y0204184D02*
X0327686Y0204184D01*
X0327686Y0203185D02*
X0369246Y0203185D01*
X0369246Y0202187D02*
X0327686Y0202187D01*
X0327686Y0201188D02*
X0369246Y0201188D01*
X0369246Y0200190D02*
X0327686Y0200190D01*
X0328021Y0199191D02*
X0369246Y0199191D01*
X0369246Y0198193D02*
X0328074Y0198193D01*
X0327808Y0197194D02*
X0369246Y0197194D01*
X0369246Y0196196D02*
X0327098Y0196196D01*
X0322875Y0196196D02*
X0306317Y0196196D01*
X0306317Y0197194D02*
X0322165Y0197194D01*
X0321899Y0198193D02*
X0306317Y0198193D01*
X0306317Y0199191D02*
X0321951Y0199191D01*
X0322286Y0200190D02*
X0306317Y0200190D01*
X0306317Y0201188D02*
X0322286Y0201188D01*
X0322286Y0202187D02*
X0306317Y0202187D01*
X0306317Y0203185D02*
X0322286Y0203185D01*
X0322286Y0204184D02*
X0306317Y0204184D01*
X0306317Y0205182D02*
X0322286Y0205182D01*
X0322286Y0206181D02*
X0306317Y0206181D01*
X0306317Y0207179D02*
X0322286Y0207179D01*
X0322286Y0208178D02*
X0306317Y0208178D01*
X0306317Y0209176D02*
X0322286Y0209176D01*
X0322286Y0210175D02*
X0306317Y0210175D01*
X0306317Y0211173D02*
X0322286Y0211173D01*
X0322286Y0212172D02*
X0306317Y0212172D01*
X0306317Y0213170D02*
X0322286Y0213170D01*
X0322286Y0214169D02*
X0306317Y0214169D01*
X0306317Y0215167D02*
X0322286Y0215167D01*
X0322286Y0216166D02*
X0306317Y0216166D01*
X0306317Y0217164D02*
X0322286Y0217164D01*
X0322286Y0218163D02*
X0306317Y0218163D01*
X0306317Y0219161D02*
X0322286Y0219161D01*
X0322286Y0220160D02*
X0306317Y0220160D01*
X0306317Y0221158D02*
X0322286Y0221158D01*
X0322286Y0222157D02*
X0306317Y0222157D01*
X0306317Y0223155D02*
X0322286Y0223155D01*
X0322286Y0224154D02*
X0306317Y0224154D01*
X0306317Y0225152D02*
X0322286Y0225152D01*
X0322286Y0226151D02*
X0306317Y0226151D01*
X0306317Y0227149D02*
X0322286Y0227149D01*
X0322286Y0228148D02*
X0306317Y0228148D01*
X0306317Y0229147D02*
X0322286Y0229147D01*
X0322286Y0230145D02*
X0306317Y0230145D01*
X0306317Y0231144D02*
X0322286Y0231144D01*
X0322286Y0232142D02*
X0306317Y0232142D01*
X0306317Y0233141D02*
X0322286Y0233141D01*
X0322286Y0234139D02*
X0306317Y0234139D01*
X0306317Y0235138D02*
X0322286Y0235138D01*
X0322286Y0236136D02*
X0306317Y0236136D01*
X0306317Y0237135D02*
X0322286Y0237135D01*
X0322286Y0238133D02*
X0306317Y0238133D01*
X0306317Y0239132D02*
X0322286Y0239132D01*
X0322286Y0240130D02*
X0306317Y0240130D01*
X0306317Y0241129D02*
X0322286Y0241129D01*
X0322286Y0242127D02*
X0306317Y0242127D01*
X0306317Y0243126D02*
X0322286Y0243126D01*
X0322286Y0244124D02*
X0306317Y0244124D01*
X0306317Y0245123D02*
X0322286Y0245123D01*
X0322286Y0246121D02*
X0306317Y0246121D01*
X0306317Y0247120D02*
X0322286Y0247120D01*
X0322286Y0248118D02*
X0306317Y0248118D01*
X0306317Y0249117D02*
X0322286Y0249117D01*
X0322286Y0250115D02*
X0306317Y0250115D01*
X0306317Y0251114D02*
X0322286Y0251114D01*
X0322286Y0252112D02*
X0306317Y0252112D01*
X0306317Y0253111D02*
X0322286Y0253111D01*
X0322286Y0254109D02*
X0306317Y0254109D01*
X0306317Y0255108D02*
X0322286Y0255108D01*
X0322286Y0256106D02*
X0306317Y0256106D01*
X0306317Y0257105D02*
X0322286Y0257105D01*
X0322286Y0258103D02*
X0306317Y0258103D01*
X0306317Y0259102D02*
X0322286Y0259102D01*
X0322286Y0260100D02*
X0306317Y0260100D01*
X0306317Y0261099D02*
X0322286Y0261099D01*
X0322189Y0262097D02*
X0306317Y0262097D01*
X0306317Y0263096D02*
X0321899Y0263096D01*
X0321928Y0264094D02*
X0306317Y0264094D01*
X0306317Y0265093D02*
X0322341Y0265093D01*
X0323390Y0266091D02*
X0306317Y0266091D01*
X0306317Y0269087D02*
X0389916Y0269087D01*
X0389302Y0270085D02*
X0367523Y0270085D01*
X0375183Y0264395D02*
X0371246Y0260458D01*
X0371246Y0181718D01*
X0368293Y0178765D01*
X0365554Y0180219D02*
X0306317Y0180219D01*
X0306317Y0179221D02*
X0365206Y0179221D01*
X0365206Y0178222D02*
X0306317Y0178222D01*
X0306317Y0177224D02*
X0365590Y0177224D01*
X0366467Y0176225D02*
X0306317Y0176225D01*
X0306317Y0175227D02*
X0368159Y0175227D01*
X0368159Y0174228D02*
X0306317Y0174228D01*
X0306317Y0173230D02*
X0368567Y0173230D01*
X0369477Y0172231D02*
X0306317Y0172231D01*
X0306317Y0171233D02*
X0373080Y0171233D01*
X0373098Y0170234D02*
X0306317Y0170234D01*
X0306317Y0169236D02*
X0373511Y0169236D01*
X0374507Y0168237D02*
X0306317Y0168237D01*
X0306317Y0167239D02*
X0376033Y0167239D01*
X0376074Y0166240D02*
X0306875Y0166240D01*
X0307874Y0165242D02*
X0376488Y0165242D01*
X0381549Y0165017D02*
X0381738Y0165205D01*
X0382073Y0166015D01*
X0382408Y0165205D01*
X0382597Y0165017D01*
X0381549Y0165017D01*
X0381753Y0165242D02*
X0382393Y0165242D01*
X0376167Y0170891D02*
X0376167Y0251600D01*
X0379120Y0254553D01*
X0376287Y0255781D02*
X0375215Y0254709D01*
X0375215Y0253476D01*
X0375339Y0253600D01*
X0376033Y0254294D01*
X0376033Y0255167D01*
X0376287Y0255781D01*
X0376033Y0255108D02*
X0375614Y0255108D01*
X0375848Y0254109D02*
X0375215Y0254109D01*
X0373215Y0255537D02*
X0377152Y0259474D01*
X0374319Y0260702D02*
X0373246Y0259630D01*
X0373246Y0258397D01*
X0374064Y0259215D01*
X0374064Y0260088D01*
X0374319Y0260702D01*
X0374069Y0260100D02*
X0373717Y0260100D01*
X0373951Y0259102D02*
X0373246Y0259102D01*
X0373215Y0255537D02*
X0373215Y0176797D01*
X0371246Y0174828D01*
X0373926Y0173230D02*
X0374140Y0173230D01*
X0373381Y0172231D02*
X0373015Y0172231D01*
X0366380Y0181218D02*
X0306317Y0181218D01*
X0306317Y0182216D02*
X0368916Y0182216D01*
X0369246Y0183215D02*
X0306317Y0183215D01*
X0306317Y0184213D02*
X0369246Y0184213D01*
X0369246Y0185212D02*
X0306317Y0185212D01*
X0306317Y0186211D02*
X0369246Y0186211D01*
X0369246Y0187209D02*
X0306317Y0187209D01*
X0306317Y0188208D02*
X0369246Y0188208D01*
X0369246Y0189206D02*
X0306317Y0189206D01*
X0306317Y0190205D02*
X0369246Y0190205D01*
X0369246Y0191203D02*
X0306317Y0191203D01*
X0306317Y0192202D02*
X0369246Y0192202D01*
X0369246Y0193200D02*
X0306317Y0193200D01*
X0306317Y0194199D02*
X0369246Y0194199D01*
X0369246Y0195197D02*
X0306317Y0195197D01*
X0287553Y0195197D02*
X0149821Y0195197D01*
X0149821Y0194199D02*
X0287553Y0194199D01*
X0287553Y0193200D02*
X0149821Y0193200D01*
X0149821Y0192202D02*
X0287553Y0192202D01*
X0287553Y0191203D02*
X0149821Y0191203D01*
X0149821Y0190205D02*
X0287553Y0190205D01*
X0287553Y0189206D02*
X0149821Y0189206D01*
X0149821Y0188208D02*
X0287553Y0188208D01*
X0287553Y0187209D02*
X0149821Y0187209D01*
X0149821Y0186211D02*
X0287553Y0186211D01*
X0287553Y0185212D02*
X0149821Y0185212D01*
X0149821Y0184213D02*
X0287553Y0184213D01*
X0287553Y0183215D02*
X0149821Y0183215D01*
X0149821Y0182216D02*
X0287553Y0182216D01*
X0287553Y0181218D02*
X0149821Y0181218D01*
X0149821Y0180219D02*
X0287553Y0180219D01*
X0287553Y0179221D02*
X0149821Y0179221D01*
X0149821Y0178222D02*
X0287553Y0178222D01*
X0287553Y0177224D02*
X0149821Y0177224D01*
X0149821Y0176225D02*
X0287553Y0176225D01*
X0287553Y0175227D02*
X0149821Y0175227D01*
X0149821Y0174228D02*
X0287553Y0174228D01*
X0287553Y0173230D02*
X0149821Y0173230D01*
X0149821Y0172231D02*
X0287553Y0172231D01*
X0287553Y0171233D02*
X0149821Y0171233D01*
X0149821Y0170234D02*
X0287553Y0170234D01*
X0287553Y0169236D02*
X0149821Y0169236D01*
X0149821Y0168237D02*
X0287553Y0168237D01*
X0287553Y0167239D02*
X0149821Y0167239D01*
X0149821Y0166240D02*
X0287553Y0166240D01*
X0287553Y0165242D02*
X0149821Y0165242D01*
X0149821Y0164243D02*
X0287553Y0164243D01*
X0288466Y0163245D02*
X0149821Y0163245D01*
X0149821Y0162246D02*
X0289464Y0162246D01*
X0290463Y0161248D02*
X0149821Y0161248D01*
X0149821Y0160249D02*
X0291461Y0160249D01*
X0292460Y0159251D02*
X0149821Y0159251D01*
X0149821Y0158252D02*
X0293459Y0158252D01*
X0294457Y0157254D02*
X0149821Y0157254D01*
X0149821Y0156255D02*
X0425807Y0156255D01*
X0427120Y0155257D02*
X0149821Y0155257D01*
X0149821Y0152261D02*
X0615762Y0152261D01*
X0615762Y0151263D02*
X0149821Y0151263D01*
X0149821Y0150264D02*
X0615762Y0150264D01*
X0615762Y0149266D02*
X0149821Y0149266D01*
X0149821Y0148267D02*
X0615762Y0148267D01*
X0615762Y0147269D02*
X0149821Y0147269D01*
X0149821Y0146270D02*
X0615762Y0146270D01*
X0615762Y0145272D02*
X0149821Y0145272D01*
X0149821Y0144273D02*
X0615762Y0144273D01*
X0615762Y0143275D02*
X0149821Y0143275D01*
X0149821Y0142276D02*
X0615762Y0142276D01*
X0615762Y0141278D02*
X0149821Y0141278D01*
X0149821Y0140279D02*
X0615762Y0140279D01*
X0615762Y0139280D02*
X0149821Y0139280D01*
X0149821Y0138282D02*
X0481206Y0138282D01*
X0480642Y0138048D02*
X0479365Y0136771D01*
X0478673Y0135102D01*
X0478673Y0133295D01*
X0479365Y0131626D01*
X0480642Y0130348D01*
X0482311Y0129657D01*
X0484118Y0129657D01*
X0485787Y0130348D01*
X0487065Y0131626D01*
X0487756Y0133295D01*
X0487756Y0135102D01*
X0487065Y0136771D01*
X0485787Y0138048D01*
X0484118Y0138740D01*
X0482311Y0138740D01*
X0480642Y0138048D01*
X0479877Y0137283D02*
X0149821Y0137283D01*
X0149821Y0136285D02*
X0479163Y0136285D01*
X0478750Y0135286D02*
X0149821Y0135286D01*
X0149821Y0134288D02*
X0160559Y0134288D01*
X0158637Y0133492D02*
X0158637Y0133492D01*
X0158435Y0133289D02*
X0149821Y0133289D01*
X0149821Y0132291D02*
X0157437Y0132291D01*
X0156578Y0131292D02*
X0149821Y0131292D01*
X0149821Y0130294D02*
X0156165Y0130294D01*
X0155751Y0129295D02*
X0149821Y0129295D01*
X0149821Y0128297D02*
X0155616Y0128297D01*
X0155616Y0127298D02*
X0149821Y0127298D01*
X0149821Y0126300D02*
X0155616Y0126300D01*
X0155988Y0125301D02*
X0149821Y0125301D01*
X0149821Y0124303D02*
X0156401Y0124303D01*
X0156677Y0123637D02*
X0156677Y0123637D01*
X0157010Y0123304D02*
X0149821Y0123304D01*
X0149821Y0122306D02*
X0158008Y0122306D01*
X0159529Y0121307D02*
X0149821Y0121307D01*
X0110288Y0119310D02*
X0090866Y0119310D01*
X0090866Y0118312D02*
X0110288Y0118312D01*
X0110288Y0117313D02*
X0090866Y0117313D01*
X0090866Y0116315D02*
X0110288Y0116315D01*
X0110288Y0115316D02*
X0090866Y0115316D01*
X0090866Y0114318D02*
X0110288Y0114318D01*
X0110288Y0113319D02*
X0090866Y0113319D01*
X0090252Y0112321D02*
X0110288Y0112321D01*
X0110288Y0111322D02*
X0089253Y0111322D01*
X0088255Y0110324D02*
X0110288Y0110324D01*
X0110288Y0109325D02*
X0087256Y0109325D01*
X0086258Y0108327D02*
X0110288Y0108327D01*
X0110288Y0107328D02*
X0085259Y0107328D01*
X0084261Y0106330D02*
X0110288Y0106330D01*
X0111002Y0105331D02*
X0083262Y0105331D01*
X0073600Y0105331D02*
X0010589Y0105331D01*
X0010589Y0106330D02*
X0072886Y0106330D01*
X0072886Y0107328D02*
X0010589Y0107328D01*
X0010589Y0108327D02*
X0072886Y0108327D01*
X0072886Y0109325D02*
X0010589Y0109325D01*
X0010589Y0110324D02*
X0072886Y0110324D01*
X0072886Y0111322D02*
X0010589Y0111322D01*
X0010589Y0112321D02*
X0072886Y0112321D01*
X0072886Y0113319D02*
X0010589Y0113319D01*
X0010589Y0114318D02*
X0072886Y0114318D01*
X0072886Y0115316D02*
X0010589Y0115316D01*
X0010589Y0116315D02*
X0072886Y0116315D01*
X0072886Y0117313D02*
X0010589Y0117313D01*
X0010589Y0118312D02*
X0072886Y0118312D01*
X0072886Y0119310D02*
X0010589Y0119310D01*
X0010589Y0120309D02*
X0072886Y0120309D01*
X0072886Y0121307D02*
X0010589Y0121307D01*
X0010589Y0122306D02*
X0072886Y0122306D01*
X0072886Y0123304D02*
X0010589Y0123304D01*
X0010589Y0124303D02*
X0072886Y0124303D01*
X0072886Y0125301D02*
X0010589Y0125301D01*
X0010589Y0126300D02*
X0072886Y0126300D01*
X0072886Y0127298D02*
X0010589Y0127298D01*
X0010589Y0128297D02*
X0072886Y0128297D01*
X0072886Y0129295D02*
X0010589Y0129295D01*
X0010589Y0130294D02*
X0072886Y0130294D01*
X0072886Y0131292D02*
X0010589Y0131292D01*
X0010589Y0132291D02*
X0072886Y0132291D01*
X0072886Y0133289D02*
X0010589Y0133289D01*
X0010589Y0134288D02*
X0072886Y0134288D01*
X0072886Y0135286D02*
X0010589Y0135286D01*
X0010589Y0136285D02*
X0072886Y0136285D01*
X0072886Y0137283D02*
X0010589Y0137283D01*
X0010589Y0138282D02*
X0072886Y0138282D01*
X0072886Y0139280D02*
X0010589Y0139280D01*
X0010589Y0140279D02*
X0072886Y0140279D01*
X0072886Y0141278D02*
X0010589Y0141278D01*
X0010589Y0142276D02*
X0072886Y0142276D01*
X0072886Y0143275D02*
X0010589Y0143275D01*
X0010589Y0144273D02*
X0072886Y0144273D01*
X0072886Y0145272D02*
X0010589Y0145272D01*
X0010589Y0146270D02*
X0072886Y0146270D01*
X0059578Y0149266D02*
X0010589Y0149266D01*
X0010589Y0150264D02*
X0058014Y0150264D01*
X0057185Y0151263D02*
X0010589Y0151263D01*
X0010589Y0152261D02*
X0056771Y0152261D01*
X0056596Y0153260D02*
X0010589Y0153260D01*
X0010589Y0154258D02*
X0056596Y0154258D01*
X0056896Y0155257D02*
X0010589Y0155257D01*
X0010589Y0156255D02*
X0057317Y0156255D01*
X0058316Y0157254D02*
X0010589Y0157254D01*
X0010589Y0158252D02*
X0060308Y0158252D01*
X0088766Y0203372D02*
X0086797Y0205340D01*
X0088766Y0203372D02*
X0134041Y0203372D01*
X0137979Y0199435D01*
X0137979Y0069513D01*
X0144868Y0062624D01*
X0178333Y0062624D01*
X0181286Y0059671D01*
X0181286Y0039002D01*
X0183254Y0037033D01*
X0187191Y0037033D01*
X0185390Y0041426D02*
X0183286Y0041426D01*
X0183286Y0041823D02*
X0191097Y0041823D01*
X0191097Y0039842D01*
X0189881Y0041058D01*
X0188136Y0041781D01*
X0186247Y0041781D01*
X0184502Y0041058D01*
X0183286Y0039842D01*
X0183286Y0041823D01*
X0183286Y0040428D02*
X0183871Y0040428D01*
X0179286Y0040428D02*
X0178700Y0040428D01*
X0179286Y0039842D02*
X0178070Y0041058D01*
X0176325Y0041781D01*
X0174436Y0041781D01*
X0172691Y0041058D01*
X0171475Y0039842D01*
X0171475Y0041823D01*
X0179286Y0041823D01*
X0179286Y0039842D01*
X0179286Y0041426D02*
X0177181Y0041426D01*
X0173579Y0041426D02*
X0171475Y0041426D01*
X0171475Y0040428D02*
X0172060Y0040428D01*
X0170459Y0037033D02*
X0175380Y0037033D01*
X0179857Y0035435D02*
X0182023Y0035435D01*
X0181025Y0036434D02*
X0180128Y0036434D01*
X0179444Y0034437D02*
X0183127Y0034437D01*
X0184071Y0033438D02*
X0178500Y0033438D01*
X0176698Y0032440D02*
X0185873Y0032440D01*
X0188509Y0032440D02*
X0197684Y0032440D01*
X0195882Y0033438D02*
X0190311Y0033438D01*
X0191255Y0034437D02*
X0194938Y0034437D01*
X0193834Y0035435D02*
X0191669Y0035435D01*
X0191939Y0036434D02*
X0192836Y0036434D01*
X0195065Y0037033D02*
X0193097Y0039002D01*
X0193097Y0061639D01*
X0190144Y0064592D01*
X0145853Y0064592D01*
X0139947Y0070498D01*
X0139947Y0200419D01*
X0135026Y0205340D01*
X0095656Y0205340D01*
X0093687Y0207309D01*
X0096669Y0208178D02*
X0132312Y0208178D01*
X0130393Y0209176D02*
X0096186Y0209176D01*
X0131089Y0212230D02*
X0141916Y0201403D01*
X0141916Y0071482D01*
X0146837Y0066561D01*
X0200971Y0066561D01*
X0204908Y0062624D01*
X0204908Y0039002D01*
X0206876Y0037033D01*
X0210813Y0037033D01*
X0209012Y0041426D02*
X0206908Y0041426D01*
X0206908Y0041823D02*
X0214719Y0041823D01*
X0214719Y0039842D01*
X0213503Y0041058D01*
X0211758Y0041781D01*
X0209869Y0041781D01*
X0208124Y0041058D01*
X0206908Y0039842D01*
X0206908Y0041823D01*
X0206908Y0040428D02*
X0207493Y0040428D01*
X0202908Y0040428D02*
X0202322Y0040428D01*
X0202908Y0039842D02*
X0201692Y0041058D01*
X0199947Y0041781D01*
X0198058Y0041781D01*
X0196313Y0041058D01*
X0195097Y0039842D01*
X0195097Y0041823D01*
X0202908Y0041823D01*
X0202908Y0039842D01*
X0202908Y0041426D02*
X0200803Y0041426D01*
X0197201Y0041426D02*
X0195097Y0041426D01*
X0195097Y0040428D02*
X0195682Y0040428D01*
X0195065Y0037033D02*
X0199002Y0037033D01*
X0203480Y0035435D02*
X0205645Y0035435D01*
X0204647Y0036434D02*
X0203750Y0036434D01*
X0203066Y0034437D02*
X0206749Y0034437D01*
X0207693Y0033438D02*
X0202122Y0033438D01*
X0200320Y0032440D02*
X0209495Y0032440D01*
X0212131Y0032440D02*
X0221306Y0032440D01*
X0219504Y0033438D02*
X0213933Y0033438D01*
X0214877Y0034437D02*
X0218560Y0034437D01*
X0217456Y0035435D02*
X0215291Y0035435D01*
X0215561Y0036434D02*
X0216458Y0036434D01*
X0218687Y0037033D02*
X0216719Y0039002D01*
X0216719Y0063608D01*
X0211797Y0068529D01*
X0147821Y0068529D01*
X0143884Y0072466D01*
X0143884Y0206324D01*
X0137979Y0212230D01*
X0141066Y0212172D02*
X0174301Y0212172D01*
X0172910Y0211173D02*
X0141864Y0211173D01*
X0142862Y0210175D02*
X0172410Y0210175D01*
X0172293Y0209176D02*
X0143861Y0209176D01*
X0144859Y0208178D02*
X0146846Y0208178D01*
X0147821Y0206324D02*
X0172427Y0206324D01*
X0175380Y0209277D01*
X0178266Y0208178D02*
X0181053Y0208178D01*
X0179743Y0207179D02*
X0177648Y0207179D01*
X0179276Y0206181D02*
X0175112Y0206181D01*
X0178467Y0209176D02*
X0287553Y0209176D01*
X0287553Y0208178D02*
X0183487Y0208178D01*
X0184797Y0207179D02*
X0287553Y0207179D01*
X0287553Y0206181D02*
X0185263Y0206181D01*
X0185357Y0205182D02*
X0287553Y0205182D01*
X0287553Y0204184D02*
X0185133Y0204184D01*
X0184481Y0203185D02*
X0287553Y0203185D01*
X0287553Y0202187D02*
X0181945Y0202187D01*
X0180301Y0203372D02*
X0182270Y0205340D01*
X0180301Y0203372D02*
X0149790Y0203372D01*
X0147821Y0201403D01*
X0147821Y0074435D01*
X0149790Y0072466D01*
X0235419Y0072466D01*
X0240341Y0067545D01*
X0240341Y0039002D01*
X0242309Y0037033D01*
X0246246Y0037033D01*
X0244445Y0041426D02*
X0242341Y0041426D01*
X0242341Y0040428D02*
X0242926Y0040428D01*
X0238341Y0040428D02*
X0237755Y0040428D01*
X0238341Y0039842D02*
X0237125Y0041058D01*
X0235380Y0041781D01*
X0233491Y0041781D01*
X0231746Y0041058D01*
X0230530Y0039842D01*
X0230530Y0041823D01*
X0238341Y0041823D01*
X0238341Y0039842D01*
X0238341Y0041426D02*
X0236236Y0041426D01*
X0232634Y0041426D02*
X0230530Y0041426D01*
X0230530Y0040428D02*
X0231115Y0040428D01*
X0228530Y0039002D02*
X0230498Y0037033D01*
X0234435Y0037033D01*
X0238913Y0035435D02*
X0241079Y0035435D01*
X0240080Y0036434D02*
X0239183Y0036434D01*
X0238499Y0034437D02*
X0242182Y0034437D01*
X0243126Y0033438D02*
X0237555Y0033438D01*
X0235753Y0032440D02*
X0244928Y0032440D01*
X0247564Y0032440D02*
X0584266Y0032440D01*
X0584266Y0033438D02*
X0249366Y0033438D01*
X0250310Y0034437D02*
X0584266Y0034437D01*
X0584266Y0035435D02*
X0540867Y0035435D01*
X0540201Y0035159D02*
X0542597Y0036152D01*
X0544431Y0037986D01*
X0545423Y0040382D01*
X0545423Y0042976D01*
X0544431Y0045372D01*
X0542597Y0047206D01*
X0541156Y0047803D01*
X0542398Y0049954D01*
X0543148Y0052751D01*
X0543148Y0055646D01*
X0542398Y0058443D01*
X0540951Y0060950D01*
X0538903Y0062997D01*
X0536396Y0064445D01*
X0533599Y0065194D01*
X0530704Y0065194D01*
X0527907Y0064445D01*
X0525400Y0062997D01*
X0523353Y0060950D01*
X0521905Y0058443D01*
X0521156Y0055646D01*
X0521156Y0052751D01*
X0521905Y0049954D01*
X0523353Y0047447D01*
X0525400Y0045399D01*
X0527907Y0043952D01*
X0530704Y0043202D01*
X0532478Y0043202D01*
X0532384Y0042976D01*
X0532384Y0040382D01*
X0533377Y0037986D01*
X0535211Y0036152D01*
X0537607Y0035159D01*
X0540201Y0035159D01*
X0542879Y0036434D02*
X0584266Y0036434D01*
X0584266Y0037432D02*
X0543878Y0037432D01*
X0544615Y0038431D02*
X0584266Y0038431D01*
X0584266Y0039429D02*
X0545029Y0039429D01*
X0545423Y0040428D02*
X0584266Y0040428D01*
X0584266Y0041426D02*
X0545423Y0041426D01*
X0545423Y0042425D02*
X0584266Y0042425D01*
X0584266Y0043423D02*
X0545238Y0043423D01*
X0544824Y0044422D02*
X0584266Y0044422D01*
X0584266Y0045420D02*
X0544382Y0045420D01*
X0543384Y0046419D02*
X0584266Y0046419D01*
X0584266Y0047417D02*
X0542086Y0047417D01*
X0541510Y0048416D02*
X0584266Y0048416D01*
X0584266Y0049414D02*
X0542087Y0049414D01*
X0542521Y0050413D02*
X0584266Y0050413D01*
X0584266Y0051411D02*
X0542789Y0051411D01*
X0543056Y0052410D02*
X0584266Y0052410D01*
X0584266Y0053409D02*
X0543148Y0053409D01*
X0543148Y0054407D02*
X0584266Y0054407D01*
X0584266Y0055406D02*
X0543148Y0055406D01*
X0542945Y0056404D02*
X0584266Y0056404D01*
X0584266Y0057403D02*
X0542677Y0057403D01*
X0542410Y0058401D02*
X0584266Y0058401D01*
X0584266Y0059400D02*
X0541846Y0059400D01*
X0541270Y0060398D02*
X0584266Y0060398D01*
X0584266Y0061397D02*
X0540504Y0061397D01*
X0539506Y0062395D02*
X0584616Y0062395D01*
X0585140Y0063394D02*
X0538217Y0063394D01*
X0536488Y0064392D02*
X0586139Y0064392D01*
X0615762Y0065391D02*
X0452086Y0065391D01*
X0452086Y0066389D02*
X0615762Y0066389D01*
X0615762Y0067388D02*
X0452086Y0067388D01*
X0452086Y0068386D02*
X0615762Y0068386D01*
X0615762Y0069385D02*
X0452086Y0069385D01*
X0452086Y0070383D02*
X0615762Y0070383D01*
X0615762Y0071382D02*
X0452086Y0071382D01*
X0452086Y0072380D02*
X0615762Y0072380D01*
X0615762Y0073379D02*
X0452086Y0073379D01*
X0452086Y0074377D02*
X0615762Y0074377D01*
X0615762Y0075376D02*
X0452086Y0075376D01*
X0452086Y0076374D02*
X0615762Y0076374D01*
X0615762Y0077373D02*
X0452086Y0077373D01*
X0452086Y0078371D02*
X0615762Y0078371D01*
X0615762Y0079370D02*
X0452086Y0079370D01*
X0452086Y0080368D02*
X0615762Y0080368D01*
X0615762Y0081367D02*
X0452086Y0081367D01*
X0452086Y0082365D02*
X0615762Y0082365D01*
X0615762Y0083364D02*
X0452086Y0083364D01*
X0452086Y0084362D02*
X0615762Y0084362D01*
X0615762Y0085361D02*
X0452086Y0085361D01*
X0452086Y0086359D02*
X0615762Y0086359D01*
X0615762Y0087358D02*
X0452086Y0087358D01*
X0452086Y0088356D02*
X0615762Y0088356D01*
X0615762Y0089355D02*
X0452086Y0089355D01*
X0452086Y0090353D02*
X0615762Y0090353D01*
X0615762Y0091352D02*
X0452086Y0091352D01*
X0452086Y0092350D02*
X0615762Y0092350D01*
X0615762Y0093349D02*
X0452086Y0093349D01*
X0452086Y0094347D02*
X0615762Y0094347D01*
X0615762Y0095346D02*
X0452086Y0095346D01*
X0452086Y0096345D02*
X0615762Y0096345D01*
X0615762Y0097343D02*
X0452086Y0097343D01*
X0452086Y0098342D02*
X0615762Y0098342D01*
X0615762Y0099340D02*
X0452086Y0099340D01*
X0452086Y0100339D02*
X0615762Y0100339D01*
X0615762Y0101337D02*
X0452086Y0101337D01*
X0452086Y0102336D02*
X0615762Y0102336D01*
X0615762Y0103334D02*
X0452086Y0103334D01*
X0452086Y0104333D02*
X0615762Y0104333D01*
X0615762Y0105331D02*
X0452086Y0105331D01*
X0452086Y0106330D02*
X0615762Y0106330D01*
X0615762Y0107328D02*
X0452086Y0107328D01*
X0452086Y0108327D02*
X0615762Y0108327D01*
X0615762Y0109325D02*
X0452086Y0109325D01*
X0452086Y0110324D02*
X0484869Y0110324D01*
X0484660Y0110410D02*
X0486302Y0109730D01*
X0488080Y0109730D01*
X0489722Y0110410D01*
X0490979Y0111667D01*
X0491187Y0112169D01*
X0491395Y0111667D01*
X0492652Y0110410D01*
X0494294Y0109730D01*
X0496072Y0109730D01*
X0497714Y0110410D01*
X0498971Y0111667D01*
X0499179Y0112169D01*
X0499387Y0111667D01*
X0500644Y0110410D01*
X0502287Y0109730D01*
X0504064Y0109730D01*
X0505707Y0110410D01*
X0506964Y0111667D01*
X0507171Y0112169D01*
X0507379Y0111667D01*
X0508636Y0110410D01*
X0510279Y0109730D01*
X0512056Y0109730D01*
X0513699Y0110410D01*
X0514956Y0111667D01*
X0515164Y0112169D01*
X0515371Y0111667D01*
X0516628Y0110410D01*
X0518271Y0109730D01*
X0520048Y0109730D01*
X0521691Y0110410D01*
X0522948Y0111667D01*
X0523156Y0112169D01*
X0523364Y0111667D01*
X0524621Y0110410D01*
X0526263Y0109730D01*
X0528041Y0109730D01*
X0529683Y0110410D01*
X0530940Y0111667D01*
X0531620Y0113310D01*
X0531620Y0115087D01*
X0530940Y0116730D01*
X0529683Y0117987D01*
X0528041Y0118667D01*
X0526263Y0118667D01*
X0524621Y0117987D01*
X0523364Y0116730D01*
X0523156Y0116228D01*
X0522948Y0116730D01*
X0521691Y0117987D01*
X0520048Y0118667D01*
X0518271Y0118667D01*
X0516628Y0117987D01*
X0515371Y0116730D01*
X0515164Y0116228D01*
X0514956Y0116730D01*
X0513699Y0117987D01*
X0512056Y0118667D01*
X0510279Y0118667D01*
X0508636Y0117987D01*
X0507379Y0116730D01*
X0507171Y0116228D01*
X0506964Y0116730D01*
X0505707Y0117987D01*
X0504064Y0118667D01*
X0502287Y0118667D01*
X0500644Y0117987D01*
X0499387Y0116730D01*
X0499179Y0116228D01*
X0498971Y0116730D01*
X0497714Y0117987D01*
X0496072Y0118667D01*
X0494294Y0118667D01*
X0492652Y0117987D01*
X0491395Y0116730D01*
X0491187Y0116228D01*
X0490979Y0116730D01*
X0489722Y0117987D01*
X0488080Y0118667D01*
X0486302Y0118667D01*
X0484660Y0117987D01*
X0483403Y0116730D01*
X0482723Y0115087D01*
X0482723Y0113310D01*
X0483403Y0111667D01*
X0484660Y0110410D01*
X0483748Y0111322D02*
X0452086Y0111322D01*
X0452086Y0112321D02*
X0483132Y0112321D01*
X0482723Y0113319D02*
X0452086Y0113319D01*
X0452086Y0114318D02*
X0482723Y0114318D01*
X0482817Y0115316D02*
X0452086Y0115316D01*
X0452086Y0116315D02*
X0483231Y0116315D01*
X0483987Y0117313D02*
X0452086Y0117313D01*
X0452086Y0118312D02*
X0485445Y0118312D01*
X0484104Y0119730D02*
X0482326Y0119730D01*
X0480684Y0120410D01*
X0479427Y0121667D01*
X0478746Y0123310D01*
X0478746Y0125087D01*
X0479427Y0126730D01*
X0480684Y0127987D01*
X0482326Y0128667D01*
X0484104Y0128667D01*
X0485746Y0127987D01*
X0487003Y0126730D01*
X0487211Y0126228D01*
X0487419Y0126730D01*
X0488507Y0127818D01*
X0488507Y0132728D01*
X0488708Y0133212D01*
X0488673Y0133295D01*
X0488673Y0135102D01*
X0489365Y0136771D01*
X0490642Y0138048D01*
X0492311Y0138740D01*
X0494118Y0138740D01*
X0495787Y0138048D01*
X0496937Y0136898D01*
X0517445Y0136898D01*
X0518595Y0138048D01*
X0520264Y0138740D01*
X0522071Y0138740D01*
X0523740Y0138048D01*
X0525017Y0136771D01*
X0525709Y0135102D01*
X0525709Y0133295D01*
X0525017Y0131626D01*
X0523740Y0130348D01*
X0522071Y0129657D01*
X0520264Y0129657D01*
X0518595Y0130348D01*
X0517445Y0131498D01*
X0496937Y0131498D01*
X0495787Y0130348D01*
X0494118Y0129657D01*
X0493907Y0129657D01*
X0493907Y0127818D01*
X0494995Y0126730D01*
X0495675Y0125087D01*
X0495675Y0123310D01*
X0494995Y0121667D01*
X0493738Y0120410D01*
X0492096Y0119730D01*
X0490318Y0119730D01*
X0488676Y0120410D01*
X0487419Y0121667D01*
X0487211Y0122169D01*
X0487003Y0121667D01*
X0485746Y0120410D01*
X0484104Y0119730D01*
X0485501Y0120309D02*
X0488921Y0120309D01*
X0487779Y0121307D02*
X0486643Y0121307D01*
X0488937Y0118312D02*
X0493437Y0118312D01*
X0491979Y0117313D02*
X0490396Y0117313D01*
X0491151Y0116315D02*
X0491223Y0116315D01*
X0493493Y0120309D02*
X0512897Y0120309D01*
X0512652Y0120410D02*
X0514294Y0119730D01*
X0516072Y0119730D01*
X0517714Y0120410D01*
X0518971Y0121667D01*
X0519179Y0122169D01*
X0519387Y0121667D01*
X0520644Y0120410D01*
X0522287Y0119730D01*
X0524064Y0119730D01*
X0525707Y0120410D01*
X0526964Y0121667D01*
X0527171Y0122169D01*
X0527379Y0121667D01*
X0528636Y0120410D01*
X0530279Y0119730D01*
X0532056Y0119730D01*
X0533699Y0120410D01*
X0534956Y0121667D01*
X0535636Y0123310D01*
X0535636Y0125087D01*
X0534956Y0126730D01*
X0533699Y0127987D01*
X0532056Y0128667D01*
X0530279Y0128667D01*
X0528636Y0127987D01*
X0527379Y0126730D01*
X0527171Y0126228D01*
X0526964Y0126730D01*
X0525707Y0127987D01*
X0524064Y0128667D01*
X0522287Y0128667D01*
X0520644Y0127987D01*
X0519387Y0126730D01*
X0519179Y0126228D01*
X0518971Y0126730D01*
X0517714Y0127987D01*
X0516072Y0128667D01*
X0514294Y0128667D01*
X0512652Y0127987D01*
X0511395Y0126730D01*
X0510715Y0125087D01*
X0510715Y0123310D01*
X0511395Y0121667D01*
X0512652Y0120410D01*
X0511755Y0121307D02*
X0494635Y0121307D01*
X0495260Y0122306D02*
X0511130Y0122306D01*
X0510717Y0123304D02*
X0495673Y0123304D01*
X0495675Y0124303D02*
X0510715Y0124303D01*
X0510803Y0125301D02*
X0495587Y0125301D01*
X0495173Y0126300D02*
X0511217Y0126300D01*
X0511964Y0127298D02*
X0494426Y0127298D01*
X0493907Y0128297D02*
X0513401Y0128297D01*
X0516965Y0128297D02*
X0521393Y0128297D01*
X0519956Y0127298D02*
X0518403Y0127298D01*
X0519149Y0126300D02*
X0519209Y0126300D01*
X0518727Y0130294D02*
X0495655Y0130294D01*
X0496731Y0131292D02*
X0517651Y0131292D01*
X0517830Y0137283D02*
X0496552Y0137283D01*
X0495223Y0138282D02*
X0519159Y0138282D01*
X0523176Y0138282D02*
X0529159Y0138282D01*
X0528595Y0138048D02*
X0527318Y0136771D01*
X0526626Y0135102D01*
X0526626Y0133295D01*
X0527318Y0131626D01*
X0528595Y0130348D01*
X0530264Y0129657D01*
X0532071Y0129657D01*
X0533740Y0130348D01*
X0535017Y0131626D01*
X0535709Y0133295D01*
X0535709Y0135102D01*
X0535017Y0136771D01*
X0533740Y0138048D01*
X0532071Y0138740D01*
X0530264Y0138740D01*
X0528595Y0138048D01*
X0527830Y0137283D02*
X0524505Y0137283D01*
X0525219Y0136285D02*
X0527116Y0136285D01*
X0526703Y0135286D02*
X0525632Y0135286D01*
X0525709Y0134288D02*
X0526626Y0134288D01*
X0526628Y0133289D02*
X0525706Y0133289D01*
X0525293Y0132291D02*
X0527042Y0132291D01*
X0527651Y0131292D02*
X0524684Y0131292D01*
X0523608Y0130294D02*
X0528727Y0130294D01*
X0529385Y0128297D02*
X0524958Y0128297D01*
X0526395Y0127298D02*
X0527948Y0127298D01*
X0527201Y0126300D02*
X0527142Y0126300D01*
X0526604Y0121307D02*
X0527739Y0121307D01*
X0528881Y0120309D02*
X0525462Y0120309D01*
X0525405Y0118312D02*
X0520906Y0118312D01*
X0522364Y0117313D02*
X0523947Y0117313D01*
X0523192Y0116315D02*
X0523120Y0116315D01*
X0520889Y0120309D02*
X0517470Y0120309D01*
X0518612Y0121307D02*
X0519747Y0121307D01*
X0517413Y0118312D02*
X0512914Y0118312D01*
X0514372Y0117313D02*
X0515955Y0117313D01*
X0515200Y0116315D02*
X0515128Y0116315D01*
X0514611Y0111322D02*
X0515716Y0111322D01*
X0516837Y0110324D02*
X0513490Y0110324D01*
X0508845Y0110324D02*
X0505498Y0110324D01*
X0506619Y0111322D02*
X0507724Y0111322D01*
X0507207Y0116315D02*
X0507135Y0116315D01*
X0506380Y0117313D02*
X0507963Y0117313D01*
X0509421Y0118312D02*
X0504922Y0118312D01*
X0501429Y0118312D02*
X0496930Y0118312D01*
X0498388Y0117313D02*
X0499971Y0117313D01*
X0499215Y0116315D02*
X0499143Y0116315D01*
X0498626Y0111322D02*
X0499732Y0111322D01*
X0500853Y0110324D02*
X0497505Y0110324D01*
X0492861Y0110324D02*
X0489513Y0110324D01*
X0490634Y0111322D02*
X0491740Y0111322D01*
X0480928Y0120309D02*
X0451373Y0120309D01*
X0452086Y0119310D02*
X0610199Y0119310D01*
X0610199Y0118312D02*
X0528898Y0118312D01*
X0530356Y0117313D02*
X0610442Y0117313D01*
X0610888Y0116315D02*
X0531112Y0116315D01*
X0531525Y0115316D02*
X0611887Y0115316D01*
X0615762Y0114318D02*
X0531620Y0114318D01*
X0531620Y0113319D02*
X0615762Y0113319D01*
X0615762Y0112321D02*
X0531211Y0112321D01*
X0530595Y0111322D02*
X0615762Y0111322D01*
X0615762Y0110324D02*
X0529474Y0110324D01*
X0524829Y0110324D02*
X0521482Y0110324D01*
X0522603Y0111322D02*
X0523709Y0111322D01*
X0533454Y0120309D02*
X0610512Y0120309D01*
X0611058Y0121307D02*
X0534596Y0121307D01*
X0535220Y0122306D02*
X0612135Y0122306D01*
X0615762Y0123304D02*
X0535634Y0123304D01*
X0535636Y0124303D02*
X0615762Y0124303D01*
X0615762Y0125301D02*
X0535547Y0125301D01*
X0535134Y0126300D02*
X0615762Y0126300D01*
X0615762Y0127298D02*
X0534387Y0127298D01*
X0532950Y0128297D02*
X0615762Y0128297D01*
X0615762Y0129295D02*
X0493907Y0129295D01*
X0488507Y0129295D02*
X0452883Y0129295D01*
X0453018Y0128297D02*
X0481432Y0128297D01*
X0479995Y0127298D02*
X0453018Y0127298D01*
X0453018Y0126300D02*
X0479248Y0126300D01*
X0478835Y0125301D02*
X0452646Y0125301D01*
X0452233Y0124303D02*
X0478746Y0124303D01*
X0478748Y0123304D02*
X0451624Y0123304D01*
X0451957Y0123637D02*
X0451957Y0123637D01*
X0450626Y0122306D02*
X0479162Y0122306D01*
X0479786Y0121307D02*
X0449105Y0121307D01*
X0449997Y0121677D02*
X0449997Y0121677D01*
X0452470Y0130294D02*
X0480774Y0130294D01*
X0479698Y0131292D02*
X0452056Y0131292D01*
X0451957Y0131532D02*
X0451957Y0131532D01*
X0451198Y0132291D02*
X0479089Y0132291D01*
X0478676Y0133289D02*
X0450199Y0133289D01*
X0448075Y0134288D02*
X0478673Y0134288D01*
X0485223Y0138282D02*
X0491206Y0138282D01*
X0489877Y0137283D02*
X0486552Y0137283D01*
X0487266Y0136285D02*
X0489163Y0136285D01*
X0488750Y0135286D02*
X0487680Y0135286D01*
X0487756Y0134288D02*
X0488673Y0134288D01*
X0488676Y0133289D02*
X0487754Y0133289D01*
X0487340Y0132291D02*
X0488507Y0132291D01*
X0488507Y0131292D02*
X0486731Y0131292D01*
X0485655Y0130294D02*
X0488507Y0130294D01*
X0488507Y0128297D02*
X0484997Y0128297D01*
X0486434Y0127298D02*
X0487987Y0127298D01*
X0487241Y0126300D02*
X0487181Y0126300D01*
X0533176Y0138282D02*
X0615762Y0138282D01*
X0615762Y0137283D02*
X0534505Y0137283D01*
X0535219Y0136285D02*
X0615762Y0136285D01*
X0615762Y0135286D02*
X0535632Y0135286D01*
X0535709Y0134288D02*
X0615762Y0134288D01*
X0615762Y0133289D02*
X0535706Y0133289D01*
X0535293Y0132291D02*
X0615762Y0132291D01*
X0615762Y0131292D02*
X0534684Y0131292D01*
X0533608Y0130294D02*
X0615762Y0130294D01*
X0615762Y0155257D02*
X0533538Y0155257D01*
X0535098Y0156255D02*
X0615762Y0156255D01*
X0615762Y0157254D02*
X0536024Y0157254D01*
X0536437Y0158252D02*
X0615762Y0158252D01*
X0615762Y0159251D02*
X0536772Y0159251D01*
X0536772Y0160249D02*
X0615762Y0160249D01*
X0615762Y0161248D02*
X0536731Y0161248D01*
X0536317Y0162246D02*
X0615762Y0162246D01*
X0615762Y0163245D02*
X0535806Y0163245D01*
X0534807Y0164243D02*
X0615762Y0164243D01*
X0524516Y0244124D02*
X0464781Y0244124D01*
X0466576Y0259505D02*
X0399821Y0259505D01*
X0399821Y0275066D01*
X0398649Y0276238D01*
X0389791Y0285096D01*
X0375581Y0285096D01*
X0374964Y0285713D01*
X0374230Y0286017D01*
X0393056Y0286017D01*
X0394241Y0284831D01*
X0394241Y0283958D01*
X0394712Y0282824D01*
X0395580Y0281955D01*
X0396715Y0281485D01*
X0397588Y0281485D01*
X0398774Y0280299D01*
X0399945Y0279128D01*
X0448604Y0279128D01*
X0449222Y0278510D01*
X0450356Y0278040D01*
X0451088Y0278040D01*
X0451695Y0277433D01*
X0470682Y0277433D01*
X0470682Y0274241D01*
X0470399Y0274924D01*
X0469531Y0275792D01*
X0468396Y0276262D01*
X0467168Y0276262D01*
X0466033Y0275792D01*
X0465164Y0274924D01*
X0464694Y0273789D01*
X0464694Y0272561D01*
X0465164Y0271426D01*
X0465682Y0270909D01*
X0465682Y0264614D01*
X0465164Y0264097D01*
X0464694Y0262962D01*
X0464694Y0261734D01*
X0465164Y0260599D01*
X0466033Y0259731D01*
X0466576Y0259505D01*
X0465663Y0260100D02*
X0399821Y0260100D01*
X0399821Y0261099D02*
X0464957Y0261099D01*
X0464694Y0262097D02*
X0399821Y0262097D01*
X0399821Y0263096D02*
X0464750Y0263096D01*
X0465163Y0264094D02*
X0399821Y0264094D01*
X0399821Y0265093D02*
X0465682Y0265093D01*
X0465682Y0266091D02*
X0399821Y0266091D01*
X0399821Y0267090D02*
X0465682Y0267090D01*
X0465682Y0268088D02*
X0399821Y0268088D01*
X0399821Y0269087D02*
X0465682Y0269087D01*
X0465682Y0270085D02*
X0399821Y0270085D01*
X0399821Y0271084D02*
X0465506Y0271084D01*
X0464892Y0272082D02*
X0399821Y0272082D01*
X0399821Y0273081D02*
X0464694Y0273081D01*
X0464815Y0274080D02*
X0399821Y0274080D01*
X0399809Y0275078D02*
X0465319Y0275078D01*
X0466719Y0276077D02*
X0398811Y0276077D01*
X0397812Y0277075D02*
X0470682Y0277075D01*
X0470682Y0276077D02*
X0468844Y0276077D01*
X0470245Y0275078D02*
X0470682Y0275078D01*
X0470682Y0272108D02*
X0470682Y0264850D01*
X0470164Y0264333D01*
X0470164Y0264332D01*
X0469882Y0264614D01*
X0469882Y0270909D01*
X0470399Y0271426D01*
X0470682Y0272108D01*
X0470682Y0272082D02*
X0470671Y0272082D01*
X0470682Y0271084D02*
X0470057Y0271084D01*
X0469882Y0270085D02*
X0470682Y0270085D01*
X0470682Y0269087D02*
X0469882Y0269087D01*
X0469882Y0268088D02*
X0470682Y0268088D01*
X0470682Y0267090D02*
X0469882Y0267090D01*
X0469882Y0266091D02*
X0470682Y0266091D01*
X0470682Y0265093D02*
X0469882Y0265093D01*
X0470399Y0260600D02*
X0471033Y0259967D01*
X0472147Y0259505D01*
X0468987Y0259505D01*
X0469531Y0259731D01*
X0470399Y0260599D01*
X0470399Y0260600D01*
X0469900Y0260100D02*
X0470899Y0260100D01*
X0461125Y0281916D02*
X0460443Y0281633D01*
X0514412Y0281633D01*
X0513730Y0281916D01*
X0513212Y0282433D01*
X0461642Y0282433D01*
X0461125Y0281916D01*
X0461277Y0282068D02*
X0513578Y0282068D01*
X0516545Y0281633D02*
X0517227Y0281916D01*
X0517745Y0282433D01*
X0520160Y0282433D01*
X0519478Y0282150D01*
X0518960Y0281633D01*
X0516545Y0281633D01*
X0517379Y0282068D02*
X0519395Y0282068D01*
X0522293Y0282433D02*
X0580063Y0282433D01*
X0580423Y0282072D01*
X0579984Y0281633D01*
X0523493Y0281633D01*
X0522975Y0282150D01*
X0522293Y0282433D01*
X0523058Y0282068D02*
X0580418Y0282068D01*
X0580490Y0287060D02*
X0517318Y0287060D01*
X0513639Y0287060D02*
X0461215Y0287060D01*
X0457537Y0287060D02*
X0453071Y0287060D01*
X0453071Y0286062D02*
X0456668Y0286062D01*
X0456289Y0285063D02*
X0453071Y0285063D01*
X0453071Y0284065D02*
X0456289Y0284065D01*
X0456642Y0283066D02*
X0453398Y0283066D01*
X0453923Y0282068D02*
X0457475Y0282068D01*
X0450971Y0281128D02*
X0400774Y0281128D01*
X0397329Y0284572D01*
X0393884Y0288017D01*
X0312191Y0288017D01*
X0309104Y0288059D02*
X0306317Y0288059D01*
X0306317Y0289057D02*
X0309280Y0289057D01*
X0309115Y0290056D02*
X0306317Y0290056D01*
X0306317Y0291054D02*
X0307741Y0291054D01*
X0307248Y0292053D02*
X0306317Y0292053D01*
X0306317Y0293051D02*
X0307135Y0293051D01*
X0307341Y0294050D02*
X0306317Y0294050D01*
X0306317Y0295048D02*
X0307966Y0295048D01*
X0306317Y0296047D02*
X0336213Y0296047D01*
X0335762Y0297045D02*
X0306317Y0297045D01*
X0306317Y0298044D02*
X0335679Y0298044D01*
X0335914Y0299042D02*
X0306317Y0299042D01*
X0306317Y0300041D02*
X0336581Y0300041D01*
X0336766Y0301039D02*
X0306937Y0301039D01*
X0307351Y0302038D02*
X0336766Y0302038D01*
X0336766Y0303036D02*
X0320636Y0303036D01*
X0321719Y0304035D02*
X0336766Y0304035D01*
X0336766Y0305033D02*
X0322132Y0305033D01*
X0322168Y0306032D02*
X0336766Y0306032D01*
X0336766Y0307030D02*
X0321886Y0307030D01*
X0321152Y0308029D02*
X0336766Y0308029D01*
X0336766Y0309027D02*
X0319606Y0309027D01*
X0319606Y0310026D02*
X0336766Y0310026D01*
X0336766Y0311024D02*
X0319606Y0311024D01*
X0319606Y0312023D02*
X0336766Y0312023D01*
X0336766Y0313021D02*
X0319606Y0313021D01*
X0319606Y0314020D02*
X0336766Y0314020D01*
X0336766Y0315018D02*
X0319606Y0315018D01*
X0319606Y0316017D02*
X0336766Y0316017D01*
X0336766Y0317016D02*
X0319606Y0317016D01*
X0319606Y0318014D02*
X0336766Y0318014D01*
X0336766Y0319013D02*
X0319606Y0319013D01*
X0319606Y0320011D02*
X0336766Y0320011D01*
X0336766Y0321010D02*
X0319606Y0321010D01*
X0319606Y0322008D02*
X0336766Y0322008D01*
X0336766Y0323007D02*
X0319606Y0323007D01*
X0319606Y0324005D02*
X0336766Y0324005D01*
X0336766Y0325004D02*
X0319606Y0325004D01*
X0319606Y0326002D02*
X0336766Y0326002D01*
X0336766Y0327001D02*
X0319606Y0327001D01*
X0319606Y0327999D02*
X0336766Y0327999D01*
X0336766Y0328998D02*
X0319606Y0328998D01*
X0319606Y0329996D02*
X0336766Y0329996D01*
X0336766Y0330995D02*
X0319606Y0330995D01*
X0319606Y0331993D02*
X0336766Y0331993D01*
X0336766Y0332992D02*
X0319606Y0332992D01*
X0319606Y0333990D02*
X0336766Y0333990D01*
X0336766Y0334989D02*
X0319606Y0334989D01*
X0319606Y0335987D02*
X0336766Y0335987D01*
X0336766Y0336986D02*
X0319606Y0336986D01*
X0319606Y0337984D02*
X0336766Y0337984D01*
X0336766Y0338983D02*
X0319606Y0338983D01*
X0319606Y0339981D02*
X0336766Y0339981D01*
X0336766Y0340980D02*
X0320110Y0340980D01*
X0320532Y0341978D02*
X0336766Y0341978D01*
X0336766Y0342977D02*
X0320593Y0342977D01*
X0320337Y0343975D02*
X0336766Y0343975D01*
X0340766Y0343975D02*
X0584266Y0343975D01*
X0584266Y0342977D02*
X0340766Y0342977D01*
X0340766Y0341978D02*
X0584266Y0341978D01*
X0584266Y0340980D02*
X0340766Y0340980D01*
X0340766Y0339981D02*
X0584266Y0339981D01*
X0584266Y0338983D02*
X0340766Y0338983D01*
X0340766Y0337984D02*
X0584266Y0337984D01*
X0584266Y0336986D02*
X0340766Y0336986D01*
X0340766Y0335987D02*
X0584266Y0335987D01*
X0584416Y0334989D02*
X0340766Y0334989D01*
X0340766Y0333990D02*
X0584829Y0333990D01*
X0585656Y0332992D02*
X0340766Y0332992D01*
X0340766Y0331993D02*
X0587273Y0331993D01*
X0584266Y0344974D02*
X0340766Y0344974D01*
X0340766Y0345972D02*
X0584266Y0345972D01*
X0584266Y0346971D02*
X0340766Y0346971D01*
X0340766Y0347969D02*
X0584266Y0347969D01*
X0584266Y0348968D02*
X0340766Y0348968D01*
X0340766Y0349966D02*
X0584266Y0349966D01*
X0584266Y0350965D02*
X0340766Y0350965D01*
X0340766Y0351963D02*
X0584266Y0351963D01*
X0584266Y0352962D02*
X0340766Y0352962D01*
X0340612Y0353960D02*
X0584266Y0353960D01*
X0584266Y0354959D02*
X0339613Y0354959D01*
X0338615Y0355957D02*
X0584266Y0355957D01*
X0584266Y0356956D02*
X0337616Y0356956D01*
X0333393Y0359951D02*
X0318154Y0359951D01*
X0319252Y0360950D02*
X0332296Y0360950D01*
X0331685Y0361949D02*
X0319863Y0361949D01*
X0320274Y0362947D02*
X0331274Y0362947D01*
X0331274Y0363946D02*
X0320274Y0363946D01*
X0320274Y0364944D02*
X0331274Y0364944D01*
X0331274Y0365943D02*
X0320274Y0365943D01*
X0320274Y0366941D02*
X0331274Y0366941D01*
X0331274Y0367940D02*
X0320274Y0367940D01*
X0320274Y0368938D02*
X0331274Y0368938D01*
X0331274Y0369937D02*
X0320274Y0369937D01*
X0320189Y0370935D02*
X0331358Y0370935D01*
X0331772Y0371934D02*
X0319776Y0371934D01*
X0319042Y0372932D02*
X0332506Y0372932D01*
X0333900Y0373931D02*
X0317648Y0373931D01*
X0313900Y0373931D02*
X0307648Y0373931D01*
X0309042Y0372932D02*
X0312506Y0372932D01*
X0311772Y0371934D02*
X0309776Y0371934D01*
X0310189Y0370935D02*
X0311358Y0370935D01*
X0311274Y0369937D02*
X0310274Y0369937D01*
X0310274Y0368938D02*
X0311274Y0368938D01*
X0311274Y0367940D02*
X0310274Y0367940D01*
X0349042Y0372932D02*
X0382059Y0372932D01*
X0382326Y0371934D02*
X0349776Y0371934D01*
X0350189Y0370935D02*
X0382799Y0370935D01*
X0383376Y0369937D02*
X0350274Y0369937D01*
X0350274Y0368938D02*
X0384074Y0368938D01*
X0385073Y0367940D02*
X0350274Y0367940D01*
X0350274Y0366941D02*
X0386326Y0366941D01*
X0388056Y0365943D02*
X0350274Y0365943D01*
X0315406Y0335987D02*
X0217384Y0335987D01*
X0217797Y0334989D02*
X0315406Y0334989D01*
X0315406Y0333990D02*
X0220319Y0333990D01*
X0221338Y0332992D02*
X0221942Y0332992D01*
X0223608Y0330340D02*
X0221640Y0328372D01*
X0221640Y0311639D01*
X0224409Y0313021D02*
X0315406Y0313021D01*
X0315406Y0312023D02*
X0224727Y0312023D01*
X0224727Y0311024D02*
X0315406Y0311024D01*
X0315406Y0310026D02*
X0224313Y0310026D01*
X0223394Y0309027D02*
X0315406Y0309027D01*
X0315406Y0308029D02*
X0219703Y0308029D01*
X0219703Y0309027D02*
X0219886Y0309027D01*
X0219703Y0307030D02*
X0315406Y0307030D01*
X0315813Y0306032D02*
X0219703Y0306032D01*
X0219703Y0305033D02*
X0302203Y0305033D01*
X0301495Y0304035D02*
X0219703Y0304035D01*
X0219703Y0303036D02*
X0301230Y0303036D01*
X0304317Y0302781D02*
X0304317Y0165970D01*
X0307270Y0163017D01*
X0433254Y0163017D01*
X0453924Y0186211D02*
X0467703Y0186211D01*
X0464813Y0210175D02*
X0456813Y0210175D01*
X0458586Y0211173D02*
X0463040Y0211173D01*
X0462215Y0212172D02*
X0459411Y0212172D01*
X0459825Y0213170D02*
X0461801Y0213170D01*
X0461713Y0214169D02*
X0459913Y0214169D01*
X0459850Y0215167D02*
X0461777Y0215167D01*
X0462190Y0216166D02*
X0459436Y0216166D01*
X0458645Y0217164D02*
X0462981Y0217164D01*
X0426457Y0196513D02*
X0425224Y0196513D01*
X0423443Y0198295D01*
X0423443Y0199527D01*
X0426457Y0196513D01*
X0425776Y0197194D02*
X0424543Y0197194D01*
X0424778Y0198193D02*
X0423545Y0198193D01*
X0423443Y0199191D02*
X0423779Y0199191D01*
X0421443Y0197466D02*
X0421443Y0217151D01*
X0419475Y0219120D01*
X0419443Y0216032D02*
X0419054Y0216032D01*
X0419139Y0215947D01*
X0419443Y0215214D01*
X0419443Y0216032D01*
X0421443Y0197466D02*
X0424396Y0194513D01*
X0394509Y0250115D02*
X0386940Y0250115D01*
X0396814Y0278074D02*
X0450276Y0278074D01*
X0448660Y0279072D02*
X0395815Y0279072D01*
X0394817Y0280071D02*
X0399002Y0280071D01*
X0398004Y0281069D02*
X0393818Y0281069D01*
X0392820Y0282068D02*
X0395467Y0282068D01*
X0394611Y0283066D02*
X0391821Y0283066D01*
X0390823Y0284065D02*
X0394241Y0284065D01*
X0394010Y0285063D02*
X0389824Y0285063D01*
X0395760Y0288970D02*
X0396008Y0288970D01*
X0397319Y0287660D01*
X0397070Y0287660D01*
X0395760Y0288970D01*
X0396671Y0288059D02*
X0396920Y0288059D01*
X0396837Y0290970D02*
X0317112Y0290970D01*
X0315144Y0292939D01*
X0310223Y0292939D01*
X0312479Y0295048D02*
X0337486Y0295048D01*
X0340046Y0295048D02*
X0443949Y0295048D01*
X0443949Y0294050D02*
X0316861Y0294050D01*
X0317860Y0293051D02*
X0443949Y0293051D01*
X0443949Y0292053D02*
X0398583Y0292053D01*
X0399581Y0291054D02*
X0443949Y0291054D01*
X0443949Y0290056D02*
X0400580Y0290056D01*
X0401578Y0289057D02*
X0401937Y0289057D01*
X0403547Y0289057D02*
X0443949Y0289057D01*
X0443693Y0288059D02*
X0405099Y0288059D01*
X0402742Y0286049D02*
X0401758Y0286049D01*
X0396837Y0290970D01*
X0402742Y0286049D02*
X0446049Y0286049D01*
X0448871Y0287305D02*
X0448667Y0287798D01*
X0448149Y0288315D01*
X0448149Y0317863D01*
X0448179Y0317863D01*
X0449314Y0318333D01*
X0449831Y0318850D01*
X0452247Y0318850D01*
X0451564Y0318568D01*
X0450696Y0317699D01*
X0450226Y0316565D01*
X0450226Y0315833D01*
X0448871Y0314478D01*
X0448871Y0287305D01*
X0448871Y0288059D02*
X0448406Y0288059D01*
X0448149Y0289057D02*
X0448871Y0289057D01*
X0448871Y0290056D02*
X0448149Y0290056D01*
X0448149Y0291054D02*
X0448871Y0291054D01*
X0448871Y0292053D02*
X0448149Y0292053D01*
X0448149Y0293051D02*
X0448871Y0293051D01*
X0448871Y0294050D02*
X0448149Y0294050D01*
X0448149Y0295048D02*
X0448871Y0295048D01*
X0448871Y0296047D02*
X0448149Y0296047D01*
X0448149Y0297045D02*
X0448871Y0297045D01*
X0448871Y0298044D02*
X0448149Y0298044D01*
X0448149Y0299042D02*
X0448871Y0299042D01*
X0448871Y0300041D02*
X0448149Y0300041D01*
X0448149Y0301039D02*
X0448871Y0301039D01*
X0448871Y0302038D02*
X0448149Y0302038D01*
X0448149Y0303036D02*
X0448871Y0303036D01*
X0448871Y0304035D02*
X0448149Y0304035D01*
X0448149Y0305033D02*
X0448871Y0305033D01*
X0448871Y0306032D02*
X0448149Y0306032D01*
X0448149Y0307030D02*
X0448871Y0307030D01*
X0448871Y0308029D02*
X0448149Y0308029D01*
X0448149Y0309027D02*
X0448871Y0309027D01*
X0448871Y0310026D02*
X0448149Y0310026D01*
X0448149Y0311024D02*
X0448871Y0311024D01*
X0448871Y0312023D02*
X0448149Y0312023D01*
X0448149Y0313021D02*
X0448871Y0313021D01*
X0448871Y0314020D02*
X0448149Y0314020D01*
X0448149Y0315018D02*
X0449411Y0315018D01*
X0450226Y0316017D02*
X0448149Y0316017D01*
X0448149Y0317016D02*
X0450413Y0317016D01*
X0451011Y0318014D02*
X0448544Y0318014D01*
X0454380Y0318850D02*
X0515634Y0318850D01*
X0516151Y0318333D01*
X0516833Y0318050D01*
X0455579Y0318050D01*
X0455062Y0318568D01*
X0454380Y0318850D01*
X0443949Y0299042D02*
X0341618Y0299042D01*
X0341853Y0298044D02*
X0443949Y0298044D01*
X0443949Y0297045D02*
X0341770Y0297045D01*
X0341319Y0296047D02*
X0443949Y0296047D01*
X0443683Y0284049D02*
X0405109Y0284049D01*
X0404491Y0283431D01*
X0403757Y0283128D01*
X0445034Y0283128D01*
X0444300Y0283431D01*
X0443683Y0284049D01*
X0447065Y0283128D02*
X0447798Y0283431D01*
X0448667Y0284300D01*
X0448871Y0284792D01*
X0448871Y0283394D01*
X0448604Y0283128D01*
X0447065Y0283128D01*
X0448431Y0284065D02*
X0448871Y0284065D01*
X0401727Y0283128D02*
X0401602Y0283128D01*
X0401514Y0283216D01*
X0401727Y0283128D01*
X0370816Y0285063D02*
X0313127Y0285063D01*
X0311255Y0285063D02*
X0306317Y0285063D01*
X0306317Y0284065D02*
X0370274Y0284065D01*
X0370127Y0283066D02*
X0306317Y0283066D01*
X0306317Y0282068D02*
X0370200Y0282068D01*
X0368790Y0281069D02*
X0306317Y0281069D01*
X0306317Y0280071D02*
X0368282Y0280071D01*
X0317525Y0303036D02*
X0307404Y0303036D01*
X0307140Y0304035D02*
X0316443Y0304035D01*
X0316029Y0305033D02*
X0306431Y0305033D01*
X0298223Y0302038D02*
X0219703Y0302038D01*
X0223640Y0314020D02*
X0315406Y0314020D01*
X0315406Y0315018D02*
X0223640Y0315018D01*
X0223640Y0316017D02*
X0315406Y0316017D01*
X0315406Y0317016D02*
X0223640Y0317016D01*
X0223640Y0318014D02*
X0315406Y0318014D01*
X0315406Y0319013D02*
X0223640Y0319013D01*
X0223640Y0320011D02*
X0315406Y0320011D01*
X0315406Y0321010D02*
X0223640Y0321010D01*
X0223640Y0322008D02*
X0315406Y0322008D01*
X0315406Y0323007D02*
X0223640Y0323007D01*
X0223640Y0324005D02*
X0315406Y0324005D01*
X0315406Y0325004D02*
X0223640Y0325004D01*
X0223640Y0326002D02*
X0315406Y0326002D01*
X0315406Y0327001D02*
X0223640Y0327001D01*
X0225634Y0327999D02*
X0315406Y0327999D01*
X0315406Y0328998D02*
X0226394Y0328998D01*
X0226696Y0329996D02*
X0315406Y0329996D01*
X0315406Y0330995D02*
X0226679Y0330995D01*
X0226266Y0331993D02*
X0315406Y0331993D01*
X0315406Y0332992D02*
X0225275Y0332992D01*
X0218687Y0331324D02*
X0217703Y0330340D01*
X0217703Y0280143D01*
X0215734Y0278175D01*
X0215703Y0281262D02*
X0215703Y0283189D01*
X0215579Y0283065D01*
X0215579Y0283065D01*
X0213797Y0281283D01*
X0213797Y0280604D01*
X0213986Y0280792D01*
X0215120Y0281262D01*
X0215703Y0281262D01*
X0215703Y0282068D02*
X0214582Y0282068D01*
X0214654Y0281069D02*
X0213797Y0281069D01*
X0211797Y0282112D02*
X0211797Y0275222D01*
X0210813Y0274238D01*
X0209829Y0274238D01*
X0208611Y0277075D02*
X0010589Y0277075D01*
X0010589Y0276077D02*
X0207301Y0276077D01*
X0206835Y0275078D02*
X0010589Y0275078D01*
X0010589Y0274080D02*
X0206741Y0274080D01*
X0206966Y0273081D02*
X0010589Y0273081D01*
X0010589Y0272082D02*
X0207618Y0272082D01*
X0209797Y0278074D02*
X0010589Y0278074D01*
X0010589Y0279072D02*
X0209797Y0279072D01*
X0209797Y0280071D02*
X0010589Y0280071D01*
X0010589Y0281069D02*
X0209797Y0281069D01*
X0209797Y0282068D02*
X0010589Y0282068D01*
X0010589Y0283066D02*
X0209923Y0283066D01*
X0210922Y0284065D02*
X0010589Y0284065D01*
X0010589Y0285063D02*
X0211920Y0285063D01*
X0212750Y0286062D02*
X0010589Y0286062D01*
X0010589Y0287060D02*
X0212750Y0287060D01*
X0212750Y0288059D02*
X0010589Y0288059D01*
X0010589Y0289057D02*
X0212750Y0289057D01*
X0214750Y0285065D02*
X0214750Y0334277D01*
X0208845Y0311639D02*
X0195065Y0311639D01*
X0193097Y0309671D01*
X0196172Y0309027D02*
X0207090Y0309027D01*
X0214750Y0285065D02*
X0211797Y0282112D01*
X0210969Y0284112D02*
X0210969Y0284112D01*
X0215580Y0283066D02*
X0215703Y0283066D01*
X0228417Y0232142D02*
X0287553Y0232142D01*
X0287553Y0231144D02*
X0228664Y0231144D01*
X0228593Y0230145D02*
X0287553Y0230145D01*
X0287553Y0229147D02*
X0228159Y0229147D01*
X0226927Y0228148D02*
X0287553Y0228148D01*
X0287553Y0215167D02*
X0138955Y0215167D01*
X0140406Y0214169D02*
X0287553Y0214169D01*
X0287553Y0213170D02*
X0140931Y0213170D01*
X0137002Y0215167D02*
X0132065Y0215167D01*
X0133516Y0214169D02*
X0135551Y0214169D01*
X0135026Y0213170D02*
X0134041Y0213170D01*
X0134176Y0212172D02*
X0134891Y0212172D01*
X0134974Y0211173D02*
X0135074Y0211173D01*
X0136750Y0209397D02*
X0137364Y0209143D01*
X0138237Y0209143D01*
X0141884Y0205496D01*
X0141884Y0204263D01*
X0136750Y0209397D01*
X0136971Y0209176D02*
X0137283Y0209176D01*
X0137969Y0208178D02*
X0139202Y0208178D01*
X0138968Y0207179D02*
X0140201Y0207179D01*
X0139966Y0206181D02*
X0141199Y0206181D01*
X0140965Y0205182D02*
X0141884Y0205182D01*
X0145853Y0204356D02*
X0147821Y0206324D01*
X0145853Y0204356D02*
X0145853Y0073450D01*
X0148805Y0070498D01*
X0223608Y0070498D01*
X0228530Y0065576D01*
X0228530Y0039002D01*
X0226530Y0039842D02*
X0225314Y0041058D01*
X0223569Y0041781D01*
X0221680Y0041781D01*
X0219935Y0041058D01*
X0218719Y0039842D01*
X0218719Y0041823D01*
X0226530Y0041823D01*
X0226530Y0039842D01*
X0226530Y0040428D02*
X0225944Y0040428D01*
X0226530Y0041426D02*
X0224425Y0041426D01*
X0220823Y0041426D02*
X0218719Y0041426D01*
X0218719Y0040428D02*
X0219304Y0040428D01*
X0218687Y0037033D02*
X0222624Y0037033D01*
X0227102Y0035435D02*
X0229268Y0035435D01*
X0228269Y0036434D02*
X0227372Y0036434D01*
X0226688Y0034437D02*
X0230371Y0034437D01*
X0231315Y0033438D02*
X0225744Y0033438D01*
X0223942Y0032440D02*
X0233117Y0032440D01*
X0248047Y0041426D02*
X0468919Y0041426D01*
X0468919Y0040428D02*
X0249566Y0040428D01*
X0250393Y0039429D02*
X0469314Y0039429D01*
X0468919Y0040382D02*
X0469912Y0037986D01*
X0471746Y0036152D01*
X0474142Y0035159D01*
X0476736Y0035159D01*
X0479132Y0036152D01*
X0480966Y0037986D01*
X0481959Y0040382D01*
X0481959Y0042976D01*
X0481865Y0043202D01*
X0483639Y0043202D01*
X0486435Y0043952D01*
X0488943Y0045399D01*
X0490990Y0047447D01*
X0492438Y0049954D01*
X0493187Y0052751D01*
X0493187Y0055646D01*
X0492438Y0058443D01*
X0490990Y0060950D01*
X0488943Y0062997D01*
X0486435Y0064445D01*
X0483639Y0065194D01*
X0480743Y0065194D01*
X0477947Y0064445D01*
X0475439Y0062997D01*
X0473392Y0060950D01*
X0471944Y0058443D01*
X0471195Y0055646D01*
X0471195Y0052751D01*
X0471944Y0049954D01*
X0473187Y0047803D01*
X0471746Y0047206D01*
X0469912Y0045372D01*
X0468919Y0042976D01*
X0468919Y0040382D01*
X0468919Y0042425D02*
X0451458Y0042425D01*
X0452086Y0043423D02*
X0469105Y0043423D01*
X0469519Y0044422D02*
X0452086Y0044422D01*
X0452086Y0045420D02*
X0469961Y0045420D01*
X0470959Y0046419D02*
X0452086Y0046419D01*
X0452086Y0047417D02*
X0472257Y0047417D01*
X0472832Y0048416D02*
X0452086Y0048416D01*
X0452086Y0049414D02*
X0472256Y0049414D01*
X0471821Y0050413D02*
X0452086Y0050413D01*
X0452086Y0051411D02*
X0471554Y0051411D01*
X0471286Y0052410D02*
X0452086Y0052410D01*
X0452086Y0053409D02*
X0471195Y0053409D01*
X0471195Y0054407D02*
X0452086Y0054407D01*
X0452086Y0055406D02*
X0471195Y0055406D01*
X0471398Y0056404D02*
X0452086Y0056404D01*
X0452086Y0057403D02*
X0471666Y0057403D01*
X0471933Y0058401D02*
X0452086Y0058401D01*
X0452086Y0059400D02*
X0472497Y0059400D01*
X0473073Y0060398D02*
X0452086Y0060398D01*
X0452086Y0061397D02*
X0473839Y0061397D01*
X0474837Y0062395D02*
X0452086Y0062395D01*
X0452086Y0063394D02*
X0476126Y0063394D01*
X0477855Y0064392D02*
X0452086Y0064392D01*
X0469728Y0038431D02*
X0250806Y0038431D01*
X0250994Y0037432D02*
X0470465Y0037432D01*
X0471464Y0036434D02*
X0250994Y0036434D01*
X0250724Y0035435D02*
X0473475Y0035435D01*
X0477403Y0035435D02*
X0536940Y0035435D01*
X0534928Y0036434D02*
X0479414Y0036434D01*
X0480413Y0037432D02*
X0533930Y0037432D01*
X0533192Y0038431D02*
X0481151Y0038431D01*
X0481564Y0039429D02*
X0532779Y0039429D01*
X0532384Y0040428D02*
X0481959Y0040428D01*
X0481959Y0041426D02*
X0532384Y0041426D01*
X0532384Y0042425D02*
X0481959Y0042425D01*
X0484464Y0043423D02*
X0529879Y0043423D01*
X0527093Y0044422D02*
X0487250Y0044422D01*
X0488964Y0045420D02*
X0525379Y0045420D01*
X0524380Y0046419D02*
X0489962Y0046419D01*
X0490961Y0047417D02*
X0523382Y0047417D01*
X0522793Y0048416D02*
X0491550Y0048416D01*
X0492126Y0049414D02*
X0522217Y0049414D01*
X0521782Y0050413D02*
X0492561Y0050413D01*
X0492828Y0051411D02*
X0521515Y0051411D01*
X0521247Y0052410D02*
X0493096Y0052410D01*
X0493187Y0053409D02*
X0521156Y0053409D01*
X0521156Y0054407D02*
X0493187Y0054407D01*
X0493187Y0055406D02*
X0521156Y0055406D01*
X0521359Y0056404D02*
X0492984Y0056404D01*
X0492717Y0057403D02*
X0521626Y0057403D01*
X0521894Y0058401D02*
X0492449Y0058401D01*
X0491885Y0059400D02*
X0522457Y0059400D01*
X0523034Y0060398D02*
X0491309Y0060398D01*
X0490544Y0061397D02*
X0523799Y0061397D01*
X0524798Y0062395D02*
X0489545Y0062395D01*
X0488257Y0063394D02*
X0526086Y0063394D01*
X0527816Y0064392D02*
X0486527Y0064392D01*
X0560848Y0025450D02*
X0401723Y0025450D01*
X0402036Y0024452D02*
X0560535Y0024452D01*
X0560267Y0023453D02*
X0402304Y0023453D01*
X0402518Y0022455D02*
X0560053Y0022455D01*
X0560053Y0021456D02*
X0402518Y0021456D01*
X0402518Y0020458D02*
X0560053Y0020458D01*
X0560175Y0019459D02*
X0402396Y0019459D01*
X0402128Y0018461D02*
X0560443Y0018461D01*
X0560711Y0017462D02*
X0401861Y0017462D01*
X0401344Y0016464D02*
X0561227Y0016464D01*
X0561804Y0015465D02*
X0400767Y0015465D01*
X0400009Y0014467D02*
X0562562Y0014467D01*
X0561425Y0026449D02*
X0401146Y0026449D01*
X0400570Y0027447D02*
X0562001Y0027447D01*
X0562904Y0028446D02*
X0399667Y0028446D01*
X0398669Y0029444D02*
X0563902Y0029444D01*
X0565509Y0030443D02*
X0397062Y0030443D01*
X0394413Y0031441D02*
X0568159Y0031441D01*
X0572759Y0031441D02*
X0584266Y0031441D01*
X0584266Y0030443D02*
X0575408Y0030443D01*
X0577015Y0029444D02*
X0584266Y0029444D01*
X0584266Y0028446D02*
X0578014Y0028446D01*
X0578916Y0027447D02*
X0584266Y0027447D01*
X0584266Y0026449D02*
X0579493Y0026449D01*
X0580069Y0025450D02*
X0584266Y0025450D01*
X0584266Y0024452D02*
X0580383Y0024452D01*
X0580650Y0023453D02*
X0584266Y0023453D01*
X0584266Y0022455D02*
X0580864Y0022455D01*
X0580864Y0021456D02*
X0584266Y0021456D01*
X0584266Y0020458D02*
X0580864Y0020458D01*
X0580742Y0019459D02*
X0584266Y0019459D01*
X0584266Y0018461D02*
X0580475Y0018461D01*
X0580207Y0017462D02*
X0584266Y0017462D01*
X0584266Y0016464D02*
X0579690Y0016464D01*
X0579114Y0015465D02*
X0584266Y0015465D01*
X0584266Y0014467D02*
X0578356Y0014467D01*
X0389812Y0031441D02*
X0058192Y0031441D01*
X0060841Y0030443D02*
X0387163Y0030443D01*
X0385556Y0029444D02*
X0062448Y0029444D01*
X0063447Y0028446D02*
X0151576Y0028446D01*
X0150578Y0027447D02*
X0064349Y0027447D01*
X0064926Y0026449D02*
X0149579Y0026449D01*
X0148581Y0025450D02*
X0065502Y0025450D01*
X0065816Y0024452D02*
X0147582Y0024452D01*
X0146644Y0023453D02*
X0066084Y0023453D01*
X0066297Y0022455D02*
X0146644Y0022455D01*
X0146644Y0021456D02*
X0066297Y0021456D01*
X0066297Y0020458D02*
X0146644Y0020458D01*
X0146644Y0019459D02*
X0066175Y0019459D01*
X0065908Y0018461D02*
X0146644Y0018461D01*
X0146644Y0017462D02*
X0065640Y0017462D01*
X0065123Y0016464D02*
X0146717Y0016464D01*
X0147716Y0015465D02*
X0064547Y0015465D01*
X0063789Y0014467D02*
X0148714Y0014467D01*
X0161416Y0014467D02*
X0295643Y0014467D01*
X0294645Y0015465D02*
X0162414Y0015465D01*
X0163413Y0016464D02*
X0293646Y0016464D01*
X0293573Y0017462D02*
X0163486Y0017462D01*
X0163486Y0018461D02*
X0293573Y0018461D01*
X0293573Y0019459D02*
X0163486Y0019459D01*
X0163486Y0020458D02*
X0293573Y0020458D01*
X0293573Y0021456D02*
X0163486Y0021456D01*
X0163486Y0022455D02*
X0293573Y0022455D01*
X0293573Y0023453D02*
X0163486Y0023453D01*
X0162548Y0024452D02*
X0294511Y0024452D01*
X0295510Y0025450D02*
X0161550Y0025450D01*
X0160551Y0026449D02*
X0296508Y0026449D01*
X0297507Y0027447D02*
X0159553Y0027447D01*
X0158554Y0028446D02*
X0298505Y0028446D01*
X0305483Y0028446D02*
X0384557Y0028446D01*
X0383655Y0027447D02*
X0306482Y0027447D01*
X0307480Y0026449D02*
X0383078Y0026449D01*
X0382502Y0025450D02*
X0308479Y0025450D01*
X0309477Y0024452D02*
X0382188Y0024452D01*
X0381921Y0023453D02*
X0310416Y0023453D01*
X0310416Y0022455D02*
X0381707Y0022455D01*
X0381707Y0021456D02*
X0310416Y0021456D01*
X0310416Y0020458D02*
X0381707Y0020458D01*
X0381829Y0019459D02*
X0310416Y0019459D01*
X0310416Y0018461D02*
X0382097Y0018461D01*
X0382364Y0017462D02*
X0310416Y0017462D01*
X0310342Y0016464D02*
X0382881Y0016464D01*
X0383457Y0015465D02*
X0309344Y0015465D01*
X0308345Y0014467D02*
X0384215Y0014467D01*
X0214719Y0040428D02*
X0214133Y0040428D01*
X0214719Y0041426D02*
X0212614Y0041426D01*
X0191097Y0041426D02*
X0188992Y0041426D01*
X0190511Y0040428D02*
X0191097Y0040428D01*
X0167475Y0040428D02*
X0166889Y0040428D01*
X0167475Y0041426D02*
X0165370Y0041426D01*
X0065908Y0067388D02*
X0010589Y0067388D01*
X0010589Y0068386D02*
X0064909Y0068386D01*
X0064332Y0069385D02*
X0010589Y0069385D01*
X0010589Y0070383D02*
X0063919Y0070383D01*
X0063831Y0071382D02*
X0010589Y0071382D01*
X0010589Y0072380D02*
X0063831Y0072380D01*
X0064119Y0073379D02*
X0010589Y0073379D01*
X0010589Y0074377D02*
X0064532Y0074377D01*
X0065393Y0075376D02*
X0010589Y0075376D01*
X0010589Y0076374D02*
X0066793Y0076374D01*
X0149821Y0196196D02*
X0287553Y0196196D01*
X0287553Y0197194D02*
X0149821Y0197194D01*
X0149821Y0198193D02*
X0287553Y0198193D01*
X0287553Y0199191D02*
X0149821Y0199191D01*
X0149821Y0200190D02*
X0287553Y0200190D01*
X0287553Y0201188D02*
X0150434Y0201188D01*
X0176460Y0212172D02*
X0287553Y0212172D01*
X0287553Y0211173D02*
X0177850Y0211173D01*
X0178350Y0210175D02*
X0287553Y0210175D01*
X0289553Y0164986D02*
X0295459Y0159080D01*
X0289553Y0164986D02*
X0289553Y0268332D01*
X0288129Y0271084D02*
X0010589Y0271084D01*
X0010589Y0270085D02*
X0286940Y0270085D01*
X0286524Y0269087D02*
X0010589Y0269087D01*
X0042085Y0365943D02*
X0051835Y0365943D01*
X0050106Y0366941D02*
X0042085Y0366941D01*
X0042085Y0367940D02*
X0048852Y0367940D01*
X0047854Y0368938D02*
X0042085Y0368938D01*
X0042085Y0369937D02*
X0047155Y0369937D01*
X0046579Y0370935D02*
X0042085Y0370935D01*
X0042085Y0371934D02*
X0046106Y0371934D01*
X0045838Y0372932D02*
X0042085Y0372932D01*
X0042085Y0373931D02*
X0045571Y0373931D01*
X0045486Y0374929D02*
X0042085Y0374929D01*
X0042085Y0375928D02*
X0045486Y0375928D01*
X0045486Y0376926D02*
X0042085Y0376926D01*
X0042085Y0377925D02*
X0045738Y0377925D01*
X0046006Y0378923D02*
X0042085Y0378923D01*
X0042085Y0379922D02*
X0046363Y0379922D01*
X0046939Y0380920D02*
X0042085Y0380920D01*
X0042085Y0381919D02*
X0047516Y0381919D01*
X0048478Y0382917D02*
X0042085Y0382917D01*
X0063306Y0382917D02*
X0226824Y0382917D01*
X0225862Y0381919D02*
X0064268Y0381919D01*
X0064845Y0380920D02*
X0225286Y0380920D01*
X0224709Y0379922D02*
X0065421Y0379922D01*
X0065778Y0378923D02*
X0224352Y0378923D01*
X0224084Y0377925D02*
X0066046Y0377925D01*
X0066297Y0376926D02*
X0223833Y0376926D01*
X0223833Y0375928D02*
X0066297Y0375928D01*
X0066297Y0374929D02*
X0223833Y0374929D01*
X0223917Y0373931D02*
X0066213Y0373931D01*
X0065945Y0372932D02*
X0224185Y0372932D01*
X0224452Y0371934D02*
X0065678Y0371934D01*
X0065205Y0370935D02*
X0224925Y0370935D01*
X0225502Y0369937D02*
X0064628Y0369937D01*
X0063930Y0368938D02*
X0226200Y0368938D01*
X0227199Y0367940D02*
X0062931Y0367940D01*
X0061678Y0366941D02*
X0228452Y0366941D01*
X0230182Y0365943D02*
X0059948Y0365943D01*
X0306317Y0287060D02*
X0309246Y0287060D01*
X0309781Y0286062D02*
X0306317Y0286062D01*
X0313206Y0290939D02*
X0314315Y0290939D01*
X0315237Y0290017D01*
X0314557Y0290017D01*
X0313940Y0290635D01*
X0313206Y0290939D01*
X0314519Y0290056D02*
X0315198Y0290056D01*
X0340766Y0325004D02*
X0615762Y0325004D01*
X0615762Y0326002D02*
X0340766Y0326002D01*
X0340766Y0327001D02*
X0615762Y0327001D01*
X0615762Y0327999D02*
X0340766Y0327999D01*
X0340766Y0328998D02*
X0615762Y0328998D01*
X0615762Y0329996D02*
X0340766Y0329996D01*
X0340766Y0330995D02*
X0615762Y0330995D01*
X0579597Y0318411D02*
X0579157Y0318850D01*
X0524872Y0318850D01*
X0525554Y0318568D01*
X0526072Y0318050D01*
X0579236Y0318050D01*
X0579597Y0318411D01*
X0522739Y0318850D02*
X0522056Y0318568D01*
X0521539Y0318050D01*
X0518966Y0318050D01*
X0519649Y0318333D01*
X0520166Y0318850D01*
X0522739Y0318850D01*
D22*
X0523805Y0315950D03*
X0517900Y0320950D03*
X0517900Y0305734D03*
X0525774Y0305734D03*
X0525774Y0298844D03*
X0517900Y0298844D03*
X0515479Y0284533D03*
X0521227Y0279533D03*
X0525774Y0273254D03*
X0525774Y0261443D03*
X0528333Y0251206D03*
X0528530Y0242545D03*
X0533648Y0233883D03*
X0536601Y0229946D03*
X0521837Y0214198D03*
X0528727Y0198450D03*
X0537585Y0190576D03*
X0553333Y0190576D03*
X0506089Y0188608D03*
X0500183Y0188608D03*
X0500183Y0182702D03*
X0490341Y0182702D03*
X0484435Y0182702D03*
X0484435Y0188608D03*
X0490341Y0188608D03*
X0469671Y0188608D03*
X0451955Y0188608D03*
X0439160Y0214198D03*
X0439160Y0222072D03*
X0420459Y0224041D03*
X0419475Y0219120D03*
X0416522Y0214198D03*
X0407664Y0218135D03*
X0395853Y0218135D03*
X0395853Y0229946D03*
X0408648Y0234868D03*
X0419475Y0245694D03*
X0421443Y0262427D03*
X0416522Y0262427D03*
X0410616Y0262427D03*
X0411601Y0273254D03*
X0416522Y0273254D03*
X0421443Y0273254D03*
X0402742Y0286049D03*
X0397329Y0284572D03*
X0406679Y0293923D03*
X0415538Y0303765D03*
X0402742Y0316561D03*
X0393884Y0316561D03*
X0384041Y0316561D03*
X0372230Y0316561D03*
X0360419Y0316561D03*
X0360419Y0328372D03*
X0372230Y0328372D03*
X0360419Y0340183D03*
X0332860Y0344120D03*
X0324986Y0344120D03*
X0317506Y0342742D03*
X0328923Y0351994D03*
X0306286Y0328372D03*
X0301364Y0328372D03*
X0296443Y0328372D03*
X0291522Y0328372D03*
X0304317Y0302781D03*
X0300380Y0299828D03*
X0310223Y0292939D03*
X0312191Y0288017D03*
X0313175Y0300813D03*
X0319081Y0305734D03*
X0332860Y0300813D03*
X0338766Y0297860D03*
X0332860Y0281128D03*
X0336797Y0273254D03*
X0344671Y0273254D03*
X0365341Y0272269D03*
X0367309Y0276206D03*
X0371246Y0279159D03*
X0373215Y0283096D03*
X0373215Y0294907D03*
X0368293Y0294907D03*
X0372230Y0268332D03*
X0375183Y0264395D03*
X0377152Y0259474D03*
X0379120Y0254553D03*
X0380104Y0249631D03*
X0385026Y0247663D03*
X0363372Y0248647D03*
X0356482Y0248647D03*
X0356482Y0254553D03*
X0324986Y0263411D03*
X0313175Y0273254D03*
X0289553Y0268332D03*
X0297427Y0253569D03*
X0309238Y0230931D03*
X0309238Y0226009D03*
X0309238Y0221088D03*
X0298412Y0222072D03*
X0294475Y0226009D03*
X0269868Y0226009D03*
X0250183Y0226009D03*
X0230498Y0226009D03*
X0225577Y0230931D03*
X0221640Y0236836D03*
X0213766Y0242742D03*
X0217703Y0256521D03*
X0217703Y0262427D03*
X0209829Y0262427D03*
X0209829Y0256521D03*
X0209829Y0274238D03*
X0215734Y0278175D03*
X0234435Y0273254D03*
X0234435Y0285065D03*
X0234435Y0296876D03*
X0221640Y0311639D03*
X0208845Y0311639D03*
X0207860Y0316561D03*
X0193097Y0309671D03*
X0189160Y0312624D03*
X0179317Y0316561D03*
X0163569Y0316561D03*
X0163569Y0300813D03*
X0179317Y0300813D03*
X0218687Y0331324D03*
X0214750Y0334277D03*
X0223608Y0330340D03*
X0195065Y0348057D03*
X0163569Y0348057D03*
X0132073Y0348057D03*
X0100577Y0348057D03*
X0069081Y0348057D03*
X0069081Y0320498D03*
X0069081Y0300813D03*
X0044475Y0280143D03*
X0041522Y0275222D03*
X0066128Y0261443D03*
X0062191Y0255537D03*
X0070065Y0255537D03*
X0076955Y0237820D03*
X0076955Y0231915D03*
X0073018Y0210261D03*
X0061207Y0210261D03*
X0050380Y0203372D03*
X0043490Y0201403D03*
X0033648Y0210261D03*
X0033648Y0233883D03*
X0025774Y0233883D03*
X0086797Y0205340D03*
X0093687Y0207309D03*
X0108451Y0214198D03*
X0120262Y0214198D03*
X0131089Y0212230D03*
X0137979Y0212230D03*
X0147821Y0214198D03*
X0159632Y0214198D03*
X0175380Y0209277D03*
X0182270Y0205340D03*
X0191128Y0214198D03*
X0202939Y0214198D03*
X0202939Y0226009D03*
X0191128Y0226009D03*
X0159632Y0226009D03*
X0147821Y0226009D03*
X0120262Y0226009D03*
X0116325Y0255537D03*
X0108451Y0255537D03*
X0112388Y0262427D03*
X0128136Y0265380D03*
X0154711Y0263411D03*
X0157664Y0258490D03*
X0160616Y0263411D03*
X0171443Y0265380D03*
X0164553Y0248647D03*
X0230498Y0202387D03*
X0250183Y0202387D03*
X0269868Y0202387D03*
X0294475Y0185655D03*
X0298412Y0180734D03*
X0285616Y0159080D03*
X0285616Y0151206D03*
X0293490Y0151206D03*
X0321049Y0151206D03*
X0328923Y0151206D03*
X0336797Y0151206D03*
X0360419Y0151206D03*
X0368293Y0151206D03*
X0376167Y0151206D03*
X0379120Y0166954D03*
X0376167Y0170891D03*
X0371246Y0174828D03*
X0368293Y0178765D03*
X0385026Y0166954D03*
X0395853Y0170891D03*
X0403727Y0170891D03*
X0411601Y0170891D03*
X0428333Y0158096D03*
X0435223Y0151206D03*
X0454908Y0143332D03*
X0454908Y0131521D03*
X0454908Y0119710D03*
X0466719Y0100025D03*
X0466719Y0088214D03*
X0466719Y0076403D03*
X0466719Y0064592D03*
X0466719Y0052781D03*
X0447034Y0017348D03*
X0415538Y0017348D03*
X0368293Y0017348D03*
X0336797Y0017348D03*
X0273805Y0017348D03*
X0210813Y0017348D03*
X0179317Y0017348D03*
X0132073Y0017348D03*
X0128136Y0033096D03*
X0116325Y0033096D03*
X0104514Y0033096D03*
X0100577Y0017348D03*
X0053333Y0048844D03*
X0049396Y0072466D03*
X0041522Y0072466D03*
X0033648Y0072466D03*
X0025774Y0072466D03*
X0017900Y0072466D03*
X0017900Y0127584D03*
X0025774Y0127584D03*
X0033648Y0127584D03*
X0041522Y0127584D03*
X0049396Y0127584D03*
X0057270Y0127584D03*
X0057270Y0135458D03*
X0049396Y0135458D03*
X0041522Y0135458D03*
X0033648Y0135458D03*
X0025774Y0135458D03*
X0017900Y0135458D03*
X0017900Y0143332D03*
X0025774Y0143332D03*
X0033648Y0143332D03*
X0033648Y0182702D03*
X0049396Y0182702D03*
X0065144Y0182702D03*
X0080892Y0182702D03*
X0124199Y0178765D03*
X0124199Y0170891D03*
X0124199Y0186639D03*
X0155695Y0174828D03*
X0155695Y0163017D03*
X0155695Y0151206D03*
X0191128Y0151206D03*
X0191128Y0163017D03*
X0191128Y0174828D03*
X0226561Y0163017D03*
X0234435Y0163017D03*
X0226561Y0151206D03*
X0250183Y0155143D03*
X0258057Y0155143D03*
X0258057Y0163017D03*
X0250183Y0163017D03*
X0265931Y0163017D03*
X0313175Y0202387D03*
X0324986Y0198450D03*
X0336797Y0202387D03*
X0363372Y0224041D03*
X0395853Y0202387D03*
X0407664Y0202387D03*
X0462782Y0241757D03*
X0467782Y0262348D03*
X0472782Y0262584D03*
X0467782Y0273175D03*
X0457860Y0273254D03*
X0451955Y0273254D03*
X0445065Y0273254D03*
X0450971Y0281128D03*
X0446049Y0286049D03*
X0459376Y0284533D03*
X0461797Y0295891D03*
X0470656Y0295891D03*
X0481482Y0303765D03*
X0486404Y0303765D03*
X0453313Y0315950D03*
X0447565Y0320950D03*
X0452939Y0326403D03*
X0448018Y0329356D03*
X0440144Y0342151D03*
X0440144Y0348057D03*
X0461797Y0352978D03*
X0470656Y0352978D03*
X0466719Y0330340D03*
X0439160Y0308687D03*
X0439160Y0302781D03*
X0401758Y0331324D03*
X0417506Y0343135D03*
X0417506Y0349041D03*
X0401758Y0353962D03*
X0394868Y0353962D03*
X0385026Y0353962D03*
X0352545Y0379553D03*
X0321049Y0379553D03*
X0289553Y0379553D03*
X0258057Y0379553D03*
X0258057Y0348057D03*
X0195065Y0379553D03*
X0163569Y0379553D03*
X0132073Y0379553D03*
X0100577Y0379553D03*
X0069081Y0379553D03*
X0033648Y0320498D03*
X0033648Y0300813D03*
X0082860Y0274238D03*
X0088766Y0274238D03*
X0153727Y0107899D03*
X0152742Y0089198D03*
X0128136Y0092151D03*
X0124199Y0088214D03*
X0128136Y0084277D03*
X0124199Y0080340D03*
X0128136Y0076403D03*
X0120262Y0076403D03*
X0120262Y0084277D03*
X0120262Y0092151D03*
X0124199Y0096088D03*
X0128136Y0100025D03*
X0120262Y0100025D03*
X0116325Y0060655D03*
X0128136Y0060655D03*
X0104514Y0060655D03*
X0189160Y0107899D03*
X0226561Y0104946D03*
X0231482Y0089198D03*
X0260026Y0093135D03*
X0268884Y0089198D03*
X0299396Y0093135D03*
X0302349Y0089198D03*
X0334829Y0093135D03*
X0342703Y0089198D03*
X0374199Y0093135D03*
X0379120Y0089198D03*
X0411601Y0093135D03*
X0415538Y0089198D03*
X0448018Y0093135D03*
X0411601Y0151206D03*
X0403727Y0151206D03*
X0395853Y0151206D03*
X0487388Y0163017D03*
X0502152Y0156128D03*
X0498215Y0222072D03*
X0486404Y0237820D03*
X0513963Y0261443D03*
X0489356Y0273254D03*
X0484435Y0273254D03*
X0478530Y0273254D03*
X0582250Y0279533D03*
X0582329Y0284533D03*
X0604514Y0285065D03*
X0604514Y0253569D03*
X0604514Y0222072D03*
X0604514Y0316561D03*
X0581502Y0315950D03*
X0581423Y0320950D03*
X0573018Y0363805D03*
X0557270Y0379553D03*
X0525774Y0379553D03*
X0494278Y0379553D03*
X0462782Y0379553D03*
X0431286Y0379553D03*
X0561207Y0064592D03*
X0576955Y0064592D03*
X0576955Y0044907D03*
X0561207Y0044907D03*
D23*
X0491207Y0124198D02*
X0491207Y0132191D01*
X0493215Y0134198D01*
X0521167Y0134198D01*
X0324986Y0198450D02*
X0324986Y0263411D01*
X0223608Y0107899D02*
X0189160Y0107899D01*
X0153727Y0107899D01*
X0223608Y0107899D02*
X0226561Y0104946D01*
D24*
X0450971Y0281128D02*
X0452565Y0279533D01*
X0471640Y0279533D01*
X0472782Y0278391D01*
X0472782Y0262584D01*
X0467782Y0262348D02*
X0467782Y0273175D01*
X0471640Y0279533D02*
X0521227Y0279533D01*
X0582250Y0279533D01*
X0582329Y0284533D02*
X0515479Y0284533D01*
X0459376Y0284533D01*
X0450971Y0281128D02*
X0450971Y0313608D01*
X0453313Y0315950D01*
X0523805Y0315950D01*
X0581502Y0315950D01*
X0581423Y0320950D02*
X0517900Y0320950D01*
X0447565Y0320950D01*
X0447486Y0320950D01*
X0446049Y0319513D01*
X0446049Y0286049D01*
X0319081Y0305734D02*
X0317506Y0307309D01*
X0317506Y0342742D01*
D25*
X0334829Y0093135D02*
X0299396Y0093135D01*
X0260026Y0093135D01*
X0268884Y0089198D02*
X0231482Y0089198D01*
X0154711Y0089198D01*
X0152742Y0089198D01*
X0268884Y0089198D02*
X0302349Y0089198D01*
X0342703Y0089198D01*
X0379120Y0089198D01*
X0415538Y0089198D01*
X0411601Y0093135D02*
X0374199Y0093135D01*
X0334829Y0093135D01*
X0411601Y0093135D02*
X0448018Y0093135D01*
D26*
X0614356Y0118726D03*
M02*
